DejaVuSans-Bold.ufo
<glyph name="exclam" format="2">
  <advance width="934"/>
  <unicode hex="0021"/>
  <outline>
    <contour>
      <point x="338" y="502" type="line"/>
      <point x="596" y="502" type="line"/>
      <point x="647" y="920" type="line"/>
      <point x="647" y="1493" type="line"/>
      <point x="287" y="1493" type="line"/>
      <point x="287" y="920" type="line"/>
    </contour>
    <contour>
      <point x="287" y="0" type="line"/>
      <point x="647" y="0" type="line"/>
      <point x="647" y="356" type="line"/>
      <point x="287" y="356" type="line"/>
    </contour>
  </outline>
</glyph>
<glyph name="dollar" format="2">
  <advance width="1425"/>
  <unicode hex="0024"/>
  <outline>
    <contour>
      <point x="795" y="-301" type="line"/>
      <point x="633" y="-301" type="line"/>
      <point x="632" y="0" type="line"/>
      <point x="507" y="5"/>
      <point x="273" y="51"/>
      <point x="162" y="92" type="qcurve"/>
      <point x="162" y="354" type="line"/>
      <point x="277" y="295"/>
      <point x="512" y="232"/>
      <point x="633" y="228" type="qcurve"/>
      <point x="633" y="539" type="line"/>
      <point x="600" y="545" type="line" smooth="yes"/>
      <point x="361" y="587"/>
      <point x="160" y="767"/>
      <point x="160" y="936" type="qcurve" smooth="yes"/>
      <point x="160" y="1115"/>
      <point x="405" y="1316"/>
      <point x="632" y="1325" type="qcurve"/>
      <point x="633" y="1556" type="line"/>
      <point x="795" y="1556" type="line"/>
      <point x="795" y="1329" type="line"/>
      <point x="895" y="1321"/>
      <point x="1095" y="1287"/>
      <point x="1196" y="1260" type="qcurve"/>
      <point x="1196" y="1006" type="line"/>
      <point x="1096" y="1048"/>
      <point x="896" y="1095"/>
      <point x="795" y="1100" type="qcurve"/>
      <point x="795" y="813" type="line"/>
      <point x="827" y="807" type="line" smooth="yes"/>
      <point x="1081" y="767"/>
      <point x="1286" y="580"/>
      <point x="1286" y="397" type="qcurve" smooth="yes"/>
      <point x="1286" y="213"/>
      <point x="1042" y="16"/>
      <point x="795" y="2" type="qcurve"/>
    </contour>
    <contour>
      <point x="633" y="836" type="qcurve"/>
      <point x="633" y="1097" type="line"/>
      <point x="562" y="1093"/>
      <point x="477" y="1024"/>
      <point x="477" y="971" type="qcurve" smooth="yes"/>
      <point x="477" y="912"/>
      <point x="555" y="845"/>
    </contour>
    <contour>
      <point x="795" y="510" type="qcurve"/>
      <point x="795" y="232" type="line"/>
      <point x="882" y="233"/>
      <point x="969" y="299"/>
      <point x="969" y="365" type="qcurve" smooth="yes"/>
      <point x="969" y="433"/>
      <point x="889" y="500"/>
    </contour>
  </outline>
</glyph>
<glyph name="percent" format="2">
  <advance width="2052"/>
  <unicode hex="0025"/>
  <outline>
    <contour>
      <point x="449" y="-29" type="line"/>
      <point x="670" y="-29" type="line"/>
      <point x="1604" y="1520" type="line"/>
      <point x="1382" y="1520" type="line"/>
    </contour>
    <contour>
      <point x="465" y="707" type="curve" smooth="yes"/>
      <point x="713" y="707"/>
      <point x="864" y="862"/>
      <point x="864" y="1114" type="curve" smooth="yes"/>
      <point x="864" y="1366"/>
      <point x="713" y="1520"/>
      <point x="465" y="1520" type="curve" smooth="yes"/>
      <point x="217" y="1520"/>
      <point x="66" y="1366"/>
      <point x="66" y="1114" type="curve" smooth="yes"/>
      <point x="66" y="862"/>
      <point x="217" y="707"/>
    </contour>
    <contour>
      <point x="465" y="874" type="curve" smooth="yes"/>
      <point x="369" y="874"/>
      <point x="315" y="961"/>
      <point x="315" y="1114" type="curve" smooth="yes"/>
      <point x="315" y="1266"/>
      <point x="369" y="1352"/>
      <point x="465" y="1352" type="curve" smooth="yes"/>
      <point x="560" y="1352"/>
      <point x="614" y="1266"/>
      <point x="614" y="1114" type="curve" smooth="yes"/>
      <point x="614" y="961"/>
      <point x="561" y="874"/>
    </contour>
    <contour>
      <point x="1587" y="-29" type="curve" smooth="yes"/>
      <point x="1835" y="-29"/>
      <point x="1987" y="127"/>
      <point x="1987" y="379" type="curve" smooth="yes"/>
      <point x="1987" y="631"/>
      <point x="1835" y="784"/>
      <point x="1587" y="784" type="curve" smooth="yes"/>
      <point x="1339" y="784"/>
      <point x="1186" y="630"/>
      <point x="1186" y="379" type="curve" smooth="yes"/>
      <point x="1186" y="127"/>
      <point x="1339" y="-29"/>
    </contour>
    <contour>
      <point x="1587" y="141" type="curve" smooth="yes"/>
      <point x="1491" y="141"/>
      <point x="1438" y="226"/>
      <point x="1438" y="379" type="curve" smooth="yes"/>
      <point x="1438" y="531"/>
      <point x="1492" y="616"/>
      <point x="1587" y="616" type="curve" smooth="yes"/>
      <point x="1682" y="616"/>
      <point x="1735" y="531"/>
      <point x="1735" y="379" type="curve" smooth="yes"/>
      <point x="1735" y="226"/>
      <point x="1683" y="141"/>
    </contour>
  </outline>
</glyph>
<glyph name="ampersand" format="2">
  <advance width="1786"/>
  <unicode hex="0026"/>
  <outline>
    <contour>
      <point x="711" y="-29" type="curve" smooth="yes"/>
      <point x="884" y="-29"/>
      <point x="1038" y="16"/>
      <point x="1178" y="109" type="curve"/>
      <point x="1276" y="0" type="line"/>
      <point x="1700" y="0" type="line"/>
      <point x="1407" y="322" type="line"/>
      <point x="1539" y="465"/>
      <point x="1612" y="652"/>
      <point x="1632" y="895" type="curve"/>
      <point x="1321" y="895" type="line"/>
      <point x="1314" y="748"/>
      <point x="1279" y="634"/>
      <point x="1208" y="541" type="curve"/>
      <point x="799" y="991" type="line" smooth="yes"/>
      <point x="735" y="1062"/>
      <point x="702" y="1120"/>
      <point x="702" y="1165" type="curve" smooth="yes"/>
      <point x="702" y="1237"/>
      <point x="761" y="1278"/>
      <point x="864" y="1278" type="curve" smooth="yes"/>
      <point x="971" y="1278"/>
      <point x="1081" y="1248"/>
      <point x="1206" y="1184" type="curve"/>
      <point x="1206" y="1462" type="line"/>
      <point x="1063" y="1501"/>
      <point x="932" y="1520"/>
      <point x="811" y="1520" type="curve" smooth="yes"/>
      <point x="530" y="1520"/>
      <point x="346" y="1378"/>
      <point x="346" y="1161" type="curve" smooth="yes"/>
      <point x="346" y="1084"/>
      <point x="372" y="1015"/>
      <point x="428" y="944" type="curve"/>
      <point x="212" y="803"/>
      <point x="123" y="662"/>
      <point x="123" y="467" type="curve" smooth="yes"/>
      <point x="123" y="175"/>
      <point x="360" y="-29"/>
    </contour>
    <contour>
      <point x="758" y="229" type="curve" smooth="yes"/>
      <point x="599" y="229"/>
      <point x="469" y="353"/>
      <point x="469" y="506" type="curve" smooth="yes"/>
      <point x="469" y="601"/>
      <point x="513" y="680"/>
      <point x="600" y="743" type="curve"/>
      <point x="991" y="311" type="line"/>
      <point x="924" y="256"/>
      <point x="847" y="229"/>
    </contour>
  </outline>
</glyph>
<glyph name="parenleft" format="2">
  <advance width="936"/>
  <unicode hex="0028"/>
  <outline>
    <contour>
      <point x="772" y="-270" type="qcurve"/>
      <point x="475" y="-270" type="line"/>
      <point x="322" y="-23"/>
      <point x="176" y="422"/>
      <point x="176" y="641" type="qcurve" smooth="yes"/>
      <point x="176" y="860"/>
      <point x="323" y="1309"/>
      <point x="475" y="1554" type="qcurve"/>
      <point x="772" y="1554" type="line"/>
      <point x="644" y="1317"/>
      <point x="516" y="864"/>
      <point x="516" y="643" type="qcurve" smooth="yes"/>
      <point x="516" y="422"/>
      <point x="643" y="-32"/>
    </contour>
  </outline>
</glyph>
<glyph name="parenright" format="2">
  <advance width="936"/>
  <unicode hex="0029"/>
  <outline>
    <contour>
      <point x="164" y="-270" type="curve"/>
      <point x="461" y="-270" type="line"/>
      <point x="665" y="59"/>
      <point x="760" y="349"/>
      <point x="760" y="641" type="curve" smooth="yes"/>
      <point x="760" y="933"/>
      <point x="664" y="1227"/>
      <point x="461" y="1554" type="curve"/>
      <point x="164" y="1554" type="line"/>
      <point x="335" y="1238"/>
      <point x="420" y="938"/>
      <point x="420" y="643" type="curve" smooth="yes"/>
      <point x="420" y="348"/>
      <point x="335" y="47"/>
    </contour>
  </outline>
</glyph>
<glyph name="comma" format="2">
  <advance width="778"/>
  <unicode hex="002C"/>
  <outline>
    <contour>
      <point x="109" y="-291" type="line"/>
      <point x="322" y="-291" type="line"/>
      <point x="569" y="82" type="line"/>
      <point x="569" y="387" type="line"/>
      <point x="209" y="387" type="line"/>
      <point x="209" y="82" type="line"/>
    </contour>
  </outline>
</glyph>
<glyph name="hyphen" format="2">
  <advance width="850"/>
  <unicode hex="002D"/>
  <outline>
    <contour>
      <point x="111" y="735" type="line"/>
      <point x="739" y="735" type="line"/>
      <point x="739" y="444" type="line"/>
      <point x="111" y="444" type="line"/>
    </contour>
  </outline>
</glyph>
<glyph name="slash" format="2">
  <advance width="748"/>
  <unicode hex="002F"/>
  <outline>
    <contour>
      <point x="0" y="-190" type="line"/>
      <point x="221" y="-190" type="line"/>
      <point x="748" y="1493" type="line"/>
      <point x="526" y="1493" type="line"/>
    </contour>
  </outline>
</glyph>
<glyph name="zero" format="2">
  <advance width="1425"/>
  <unicode hex="0030"/>
  <anchor x="713" y="0" name="below"/>
  <anchor x="713" y="1520" name="above"/>
  <outline>
    <contour>
      <point x="942" y="748" type="qcurve" smooth="yes"/>
      <point x="942" y="1028"/>
      <point x="837" y="1257"/>
      <point x="713" y="1257" type="qcurve" smooth="yes"/>
      <point x="589" y="1257"/>
      <point x="483" y="1028"/>
      <point x="483" y="748" type="qcurve" smooth="yes"/>
      <point x="483" y="465"/>
      <point x="589" y="233"/>
      <point x="713" y="233" type="qcurve" smooth="yes"/>
      <point x="836" y="233"/>
      <point x="942" y="465"/>
    </contour>
    <contour>
      <point x="1327" y="745" type="qcurve" smooth="yes"/>
      <point x="1327" y="374"/>
      <point x="1007" y="-29"/>
      <point x="713" y="-29" type="qcurve" smooth="yes"/>
      <point x="418" y="-29"/>
      <point x="98" y="374"/>
      <point x="98" y="745" type="qcurve" smooth="yes"/>
      <point x="98" y="1117"/>
      <point x="418" y="1520"/>
      <point x="713" y="1520" type="qcurve" smooth="yes"/>
      <point x="1007" y="1520"/>
      <point x="1327" y="1117"/>
    </contour>
  </outline>
</glyph>
<glyph name="one" format="2">
  <advance width="1425"/>
  <unicode hex="0031"/>
  <anchor x="713" y="0" name="below"/>
  <anchor x="713" y="1520" name="above"/>
  <outline>
    <contour>
      <point x="240" y="266" type="line"/>
      <point x="580" y="266" type="line"/>
      <point x="580" y="1231" type="line"/>
      <point x="231" y="1159" type="line"/>
      <point x="231" y="1421" type="line"/>
      <point x="578" y="1493" type="line"/>
      <point x="944" y="1493" type="line"/>
      <point x="944" y="266" type="line"/>
      <point x="1284" y="266" type="line"/>
      <point x="1284" y="0" type="line"/>
      <point x="240" y="0" type="line"/>
    </contour>
  </outline>
</glyph>
<glyph name="two" format="2">
  <advance width="1425"/>
  <unicode hex="0032"/>
  <anchor x="713" y="0" name="below"/>
  <anchor x="713" y="1520" name="above"/>
  <outline>
    <contour>
      <point x="162" y="0" type="line"/>
      <point x="1247" y="0" type="line"/>
      <point x="1247" y="283" type="line"/>
      <point x="590" y="283" type="line"/>
      <point x="909" y="563" type="line" smooth="yes"/>
      <point x="1178" y="799"/>
      <point x="1237" y="910"/>
      <point x="1237" y="1073" type="curve" smooth="yes"/>
      <point x="1237" y="1354"/>
      <point x="1029" y="1520"/>
      <point x="672" y="1520" type="curve" smooth="yes"/>
      <point x="509" y="1520"/>
      <point x="339" y="1489"/>
      <point x="166" y="1432" type="curve"/>
      <point x="166" y="1104" type="line"/>
      <point x="329" y="1205"/>
      <point x="472" y="1257"/>
      <point x="592" y="1257" type="curve" smooth="yes"/>
      <point x="748" y="1257"/>
      <point x="850" y="1164"/>
      <point x="850" y="1024" type="curve" smooth="yes"/>
      <point x="850" y="933"/>
      <point x="804" y="852"/>
      <point x="707" y="764" type="curve" smooth="yes"/>
      <point x="162" y="283" type="line"/>
    </contour>
  </outline>
</glyph>
<glyph name="three" format="2">
  <advance width="1425"/>
  <unicode hex="0033"/>
  <anchor x="713" y="0" name="below"/>
  <anchor x="713" y="1520" name="above"/>
  <outline>
    <contour>
      <point x="954" y="805" type="qcurve"/>
      <point x="1105" y="766"/>
      <point x="1262" y="573"/>
      <point x="1262" y="424" type="qcurve" smooth="yes"/>
      <point x="1262" y="202"/>
      <point x="922" y="-29"/>
      <point x="596" y="-29" type="qcurve" smooth="yes"/>
      <point x="481" y="-29"/>
      <point x="250" y="8"/>
      <point x="137" y="45" type="qcurve"/>
      <point x="137" y="342" type="line"/>
      <point x="245" y="288"/>
      <point x="458" y="233"/>
      <point x="561" y="233" type="qcurve" smooth="yes"/>
      <point x="714" y="233"/>
      <point x="877" y="339"/>
      <point x="877" y="438" type="qcurve" smooth="yes"/>
      <point x="877" y="540"/>
      <point x="710" y="645"/>
      <point x="547" y="645" type="qcurve" smooth="yes"/>
      <point x="393" y="645" type="line"/>
      <point x="393" y="893" type="line"/>
      <point x="555" y="893" type="line" smooth="yes"/>
      <point x="700" y="893"/>
      <point x="842" y="984"/>
      <point x="842" y="1077" type="qcurve" smooth="yes"/>
      <point x="842" y="1163"/>
      <point x="704" y="1257"/>
      <point x="578" y="1257" type="qcurve" smooth="yes"/>
      <point x="485" y="1257"/>
      <point x="295" y="1215"/>
      <point x="201" y="1174" type="qcurve"/>
      <point x="201" y="1456" type="line"/>
      <point x="315" y="1488"/>
      <point x="539" y="1520"/>
      <point x="647" y="1520" type="qcurve" smooth="yes"/>
      <point x="938" y="1520"/>
      <point x="1227" y="1329"/>
      <point x="1227" y="1137" type="qcurve" smooth="yes"/>
      <point x="1227" y="1006"/>
      <point x="1089" y="839"/>
    </contour>
  </outline>
</glyph>
<glyph name="four" format="2">
  <advance width="1425"/>
  <unicode hex="0034"/>
  <anchor x="713" y="0" name="below"/>
  <anchor x="713" y="1520" name="above"/>
  <outline>
    <contour>
      <point x="754" y="0" type="line"/>
      <point x="1118" y="0" type="line"/>
      <point x="1118" y="272" type="line"/>
      <point x="1331" y="272" type="line"/>
      <point x="1331" y="551" type="line"/>
      <point x="1118" y="551" type="line"/>
      <point x="1118" y="1493" type="line"/>
      <point x="690" y="1493" type="line"/>
      <point x="92" y="602" type="line"/>
      <point x="92" y="272" type="line"/>
      <point x="754" y="272" type="line"/>
    </contour>
    <contour>
      <point x="332" y="551" type="line"/>
      <point x="754" y="1176" type="line"/>
      <point x="754" y="551" type="line"/>
    </contour>
  </outline>
</glyph>
<glyph name="five" format="2">
  <advance width="1425"/>
  <unicode hex="0035"/>
  <anchor x="713" y="0" name="below"/>
  <anchor x="713" y="1520" name="above"/>
  <outline>
    <contour>
      <point x="657" y="-29" type="curve" smooth="yes"/>
      <point x="1049" y="-29"/>
      <point x="1282" y="164"/>
      <point x="1282" y="487" type="curve" smooth="yes"/>
      <point x="1282" y="812"/>
      <point x="1069" y="1004"/>
      <point x="705" y="1004" type="curve" smooth="yes"/>
      <point x="641" y="1004"/>
      <point x="583" y="995"/>
      <point x="524" y="979" type="curve"/>
      <point x="524" y="1210" type="line"/>
      <point x="1174" y="1210" type="line"/>
      <point x="1174" y="1493" type="line"/>
      <point x="217" y="1493" type="line"/>
      <point x="217" y="653" type="line"/>
      <point x="361" y="713"/>
      <point x="485" y="741"/>
      <point x="596" y="741" type="curve" smooth="yes"/>
      <point x="783" y="741"/>
      <point x="897" y="644"/>
      <point x="897" y="487" type="curve" smooth="yes"/>
      <point x="897" y="331"/>
      <point x="783" y="233"/>
      <point x="596" y="233" type="curve" smooth="yes"/>
      <point x="467" y="233"/>
      <point x="321" y="280"/>
      <point x="158" y="373" type="curve"/>
      <point x="158" y="70" type="line"/>
      <point x="322" y="3"/>
      <point x="488" y="-29"/>
    </contour>
  </outline>
</glyph>
<glyph name="six" format="2">
  <advance width="1425"/>
  <unicode hex="0036"/>
  <anchor x="713" y="0" name="below"/>
  <anchor x="713" y="1520" name="above"/>
  <outline>
    <contour>
      <point x="741" y="737" type="qcurve" smooth="yes"/>
      <point x="640" y="737"/>
      <point x="539" y="606"/>
      <point x="539" y="475" type="qcurve" smooth="yes"/>
      <point x="539" y="344"/>
      <point x="640" y="213"/>
      <point x="741" y="213" type="qcurve" smooth="yes"/>
      <point x="843" y="213"/>
      <point x="944" y="344"/>
      <point x="944" y="475" type="qcurve" smooth="yes"/>
      <point x="944" y="606"/>
      <point x="843" y="737"/>
    </contour>
    <contour>
      <point x="1217" y="1454" type="qcurve"/>
      <point x="1217" y="1178" type="line"/>
      <point x="1122" y="1223"/>
      <point x="954" y="1266"/>
      <point x="874" y="1266" type="qcurve" smooth="yes"/>
      <point x="702" y="1266"/>
      <point x="510" y="1075"/>
      <point x="494" y="887" type="qcurve"/>
      <point x="560" y="936"/>
      <point x="714" y="985"/>
      <point x="805" y="985" type="qcurve" smooth="yes"/>
      <point x="1034" y="985"/>
      <point x="1315" y="717"/>
      <point x="1315" y="500" type="qcurve" smooth="yes"/>
      <point x="1315" y="260"/>
      <point x="1001" y="-29"/>
      <point x="737" y="-29" type="qcurve" smooth="yes"/>
      <point x="446" y="-29"/>
      <point x="127" y="364"/>
      <point x="127" y="725" type="qcurve" smooth="yes"/>
      <point x="127" y="1095"/>
      <point x="500" y="1518"/>
      <point x="825" y="1518" type="qcurve" smooth="yes"/>
      <point x="928" y="1518"/>
      <point x="1122" y="1486"/>
    </contour>
  </outline>
</glyph>
<glyph name="seven" format="2">
  <advance width="1425"/>
  <unicode hex="0037"/>
  <anchor x="713" y="0" name="below"/>
  <anchor x="713" y="1520" name="above"/>
  <outline>
    <contour>
      <point x="137" y="1493" type="line"/>
      <point x="1262" y="1493" type="line"/>
      <point x="1262" y="1276" type="line"/>
      <point x="680" y="0" type="line"/>
      <point x="305" y="0" type="line"/>
      <point x="856" y="1210" type="line"/>
      <point x="137" y="1210" type="line"/>
    </contour>
  </outline>
</glyph>
<glyph name="eight" format="2">
  <advance width="1425"/>
  <unicode hex="0038"/>
  <anchor x="713" y="0" name="below"/>
  <anchor x="713" y="1520" name="above"/>
  <outline>
    <contour>
      <point x="713" y="-29" type="curve" smooth="yes"/>
      <point x="1100" y="-29"/>
      <point x="1298" y="124"/>
      <point x="1298" y="420" type="curve" smooth="yes"/>
      <point x="1298" y="612"/>
      <point x="1194" y="739"/>
      <point x="991" y="795" type="curve"/>
      <point x="1172" y="850"/>
      <point x="1266" y="964"/>
      <point x="1266" y="1133" type="curve" smooth="yes"/>
      <point x="1266" y="1386"/>
      <point x="1074" y="1520"/>
      <point x="713" y="1520" type="curve" smooth="yes"/>
      <point x="349" y="1520"/>
      <point x="158" y="1385"/>
      <point x="158" y="1133" type="curve" smooth="yes"/>
      <point x="158" y="964"/>
      <point x="251" y="850"/>
      <point x="432" y="795" type="curve"/>
      <point x="229" y="739"/>
      <point x="125" y="612"/>
      <point x="125" y="420" type="curve" smooth="yes"/>
      <point x="125" y="124"/>
      <point x="325" y="-29"/>
    </contour>
    <contour>
      <point x="713" y="213" type="curve" smooth="yes"/>
      <point x="569" y="213"/>
      <point x="489" y="293"/>
      <point x="489" y="440" type="curve" smooth="yes"/>
      <point x="489" y="587"/>
      <point x="569" y="668"/>
      <point x="713" y="668" type="curve" smooth="yes"/>
      <point x="856" y="668"/>
      <point x="934" y="588"/>
      <point x="934" y="440" type="curve" smooth="yes"/>
      <point x="934" y="293"/>
      <point x="856" y="213"/>
    </contour>
    <contour>
      <point x="713" y="909" type="curve" smooth="yes"/>
      <point x="590" y="909"/>
      <point x="522" y="975"/>
      <point x="522" y="1094" type="curve" smooth="yes"/>
      <point x="522" y="1211"/>
      <point x="590" y="1278"/>
      <point x="713" y="1278" type="curve" smooth="yes"/>
      <point x="833" y="1278"/>
      <point x="901" y="1213"/>
      <point x="901" y="1094" type="curve" smooth="yes"/>
      <point x="901" y="975"/>
      <point x="833" y="909"/>
    </contour>
  </outline>
</glyph>
<glyph name="nine" format="2">
  <advance width="1425"/>
  <unicode hex="0039"/>
  <anchor x="713" y="0" name="below"/>
  <anchor x="713" y="1520" name="above"/>
  <outline>
    <contour>
      <point x="594" y="-29" type="curve" smooth="yes"/>
      <point x="1029" y="-29"/>
      <point x="1294" y="271"/>
      <point x="1294" y="764" type="curve" smooth="yes"/>
      <point x="1294" y="1244"/>
      <point x="1071" y="1518"/>
      <point x="682" y="1518" type="curve" smooth="yes"/>
      <point x="331" y="1518"/>
      <point x="106" y="1308"/>
      <point x="106" y="987" type="curve" smooth="yes"/>
      <point x="106" y="696"/>
      <point x="311" y="502"/>
      <point x="616" y="502" type="curve" smooth="yes"/>
      <point x="736" y="502"/>
      <point x="837" y="535"/>
      <point x="928" y="602" type="curve"/>
      <point x="905" y="351"/>
      <point x="776" y="223"/>
      <point x="547" y="223" type="curve" smooth="yes"/>
      <point x="438" y="223"/>
      <point x="328" y="252"/>
      <point x="205" y="309" type="curve"/>
      <point x="205" y="33" type="line"/>
      <point x="328" y="-8"/>
      <point x="454" y="-29"/>
    </contour>
    <contour>
      <point x="680" y="752" type="curve" smooth="yes"/>
      <point x="545" y="752"/>
      <point x="477" y="839"/>
      <point x="477" y="1014" type="curve" smooth="yes"/>
      <point x="477" y="1187"/>
      <point x="545" y="1276"/>
      <point x="680" y="1276" type="curve" smooth="yes"/>
      <point x="815" y="1276"/>
      <point x="883" y="1187"/>
      <point x="883" y="1014" type="curve" smooth="yes"/>
      <point x="883" y="839"/>
      <point x="815" y="752"/>
    </contour>
  </outline>
</glyph>
<glyph name="colon" format="2">
  <advance width="819"/>
  <unicode hex="003A"/>
  <outline>
    <contour>
      <point x="229" y="1120" type="line"/>
      <point x="590" y="1120" type="line"/>
      <point x="590" y="733" type="line"/>
      <point x="229" y="733" type="line"/>
    </contour>
    <contour>
      <point x="229" y="387" type="line"/>
      <point x="590" y="387" type="line"/>
      <point x="590" y="0" type="line"/>
      <point x="229" y="0" type="line"/>
    </contour>
  </outline>
</glyph>
<glyph name="semicolon" format="2">
  <advance width="819"/>
  <unicode hex="003B"/>
  <outline>
    <contour>
      <point x="229" y="387" type="line"/>
      <point x="590" y="387" type="line"/>
      <point x="590" y="82" type="line"/>
      <point x="342" y="-291" type="line"/>
      <point x="129" y="-291" type="line"/>
      <point x="229" y="82" type="line"/>
    </contour>
    <contour>
      <point x="229" y="1120" type="line"/>
      <point x="590" y="1120" type="line"/>
      <point x="590" y="733" type="line"/>
      <point x="229" y="733" type="line"/>
    </contour>
  </outline>
</glyph>
<glyph name="less" format="2">
  <advance width="1716"/>
  <unicode hex="003C"/>
  <outline>
    <contour>
      <point x="1499" y="61" type="line"/>
      <point x="1499" y="311" type="line"/>
      <point x="535" y="641" type="line"/>
      <point x="1499" y="973" type="line"/>
      <point x="1499" y="1223" type="line"/>
      <point x="217" y="760" type="line"/>
      <point x="217" y="524" type="line"/>
    </contour>
  </outline>
</glyph>
<glyph name="equal" format="2">
  <advance width="1716"/>
  <unicode hex="003D"/>
  <outline>
    <contour>
      <point x="217" y="295" type="line"/>
      <point x="1499" y="295" type="line"/>
      <point x="1499" y="532" type="line"/>
      <point x="217" y="532" type="line"/>
    </contour>
    <contour>
      <point x="217" y="752" type="line"/>
      <point x="1499" y="752" type="line"/>
      <point x="1499" y="987" type="line"/>
      <point x="217" y="987" type="line"/>
    </contour>
  </outline>
</glyph>
<glyph name="greater" format="2">
  <advance width="1716"/>
  <unicode hex="003E"/>
  <outline>
    <contour>
      <point x="217" y="61" type="line"/>
      <point x="1499" y="524" type="line"/>
      <point x="1499" y="760" type="line"/>
      <point x="217" y="1223" type="line"/>
      <point x="217" y="973" type="line"/>
      <point x="1182" y="641" type="line"/>
      <point x="217" y="311" type="line"/>
    </contour>
  </outline>
</glyph>
<glyph name="question" format="2">
  <advance width="1188"/>
  <unicode hex="003F"/>
  <outline>
    <contour>
      <point x="348" y="504" type="line"/>
      <point x="709" y="504" type="line"/>
      <point x="709" y="549" type="line" smooth="yes"/>
      <point x="709" y="609"/>
      <point x="728" y="648"/>
      <point x="819" y="731" type="curve" smooth="yes"/>
      <point x="883" y="788" type="line" smooth="yes"/>
      <point x="1008" y="907"/>
      <point x="1055" y="999"/>
      <point x="1055" y="1130" type="curve" smooth="yes"/>
      <point x="1055" y="1385"/>
      <point x="880" y="1520"/>
      <point x="555" y="1520" type="curve" smooth="yes"/>
      <point x="431" y="1520"/>
      <point x="302" y="1494"/>
      <point x="141" y="1438" type="curve"/>
      <point x="141" y="1124" type="line"/>
      <point x="277" y="1212"/>
      <point x="404" y="1257"/>
      <point x="512" y="1257" type="curve" smooth="yes"/>
      <point x="627" y="1257"/>
      <point x="694" y="1201"/>
      <point x="694" y="1108" type="curve" smooth="yes"/>
      <point x="694" y="1047"/>
      <point x="660" y="987"/>
      <point x="584" y="918" type="curve" smooth="yes"/>
      <point x="520" y="860" type="line" smooth="yes"/>
      <point x="379" y="729"/>
      <point x="348" y="662"/>
      <point x="348" y="553" type="curve" smooth="yes"/>
    </contour>
    <contour>
      <point x="348" y="0" type="line"/>
      <point x="709" y="0" type="line"/>
      <point x="709" y="356" type="line"/>
      <point x="348" y="356" type="line"/>
    </contour>
  </outline>
</glyph>
<glyph name="at" format="2">
  <advance width="2048"/>
  <unicode hex="0040"/>
  <outline>
    <contour>
      <point x="831" y="539" type="qcurve" smooth="yes"/>
      <point x="831" y="416"/>
      <point x="936" y="274"/>
      <point x="1026" y="274" type="qcurve" smooth="yes"/>
      <point x="1115" y="274"/>
      <point x="1221" y="417"/>
      <point x="1221" y="539" type="qcurve" smooth="yes"/>
      <point x="1221" y="660"/>
      <point x="1114" y="801"/>
      <point x="1024" y="801" type="qcurve" smooth="yes"/>
      <point x="936" y="801"/>
      <point x="831" y="660"/>
    </contour>
    <contour>
      <point x="1241" y="238" type="line"/>
      <point x="1211" y="167"/>
      <point x="1078" y="88"/>
      <point x="989" y="88" type="qcurve" smooth="yes"/>
      <point x="817" y="88"/>
      <point x="602" y="337"/>
      <point x="602" y="537" type="qcurve" smooth="yes"/>
      <point x="602" y="737"/>
      <point x="818" y="987"/>
      <point x="989" y="987" type="qcurve" smooth="yes"/>
      <point x="1078" y="987"/>
      <point x="1211" y="907"/>
      <point x="1241" y="836" type="qcurve"/>
      <point x="1241" y="967" type="line"/>
      <point x="1450" y="967" type="line"/>
      <point x="1450" y="274" type="line"/>
      <point x="1574" y="293"/>
      <point x="1716" y="494"/>
      <point x="1716" y="651" type="qcurve" smooth="yes"/>
      <point x="1716" y="751"/>
      <point x="1658" y="926"/>
      <point x="1599" y="999" type="qcurve"/>
      <point x="1504" y="1121"/>
      <point x="1219" y="1253"/>
      <point x="1053" y="1253" type="qcurve" smooth="yes"/>
      <point x="937" y="1253"/>
      <point x="725" y="1192"/>
      <point x="635" y="1133" type="qcurve" smooth="yes"/>
      <point x="487" y="1035"/>
      <point x="322" y="724"/>
      <point x="322" y="543" type="qcurve" smooth="yes"/>
      <point x="322" y="394"/>
      <point x="429" y="133"/>
      <point x="530" y="33" type="qcurve" smooth="yes"/>
      <point x="630" y="-65"/>
      <point x="889" y="-168"/>
      <point x="1036" y="-168" type="qcurve" smooth="yes"/>
      <point x="1162" y="-168"/>
      <point x="1414" y="-74"/>
      <point x="1503" y="6" type="qcurve"/>
      <point x="1610" y="-156" type="line"/>
      <point x="1485" y="-253"/>
      <point x="1190" y="-356"/>
      <point x="1038" y="-356" type="qcurve" smooth="yes"/>
      <point x="853" y="-356"/>
      <point x="525" y="-225"/>
      <point x="397" y="-100" type="qcurve" smooth="yes"/>
      <point x="269" y="25"/>
      <point x="135" y="354"/>
      <point x="135" y="543" type="qcurve" smooth="yes"/>
      <point x="135" y="725"/>
      <point x="271" y="1055"/>
      <point x="397" y="1180" type="qcurve" smooth="yes"/>
      <point x="523" y="1304"/>
      <point x="858" y="1440"/>
      <point x="1038" y="1440" type="qcurve" smooth="yes"/>
      <point x="1262" y="1440"/>
      <point x="1628" y="1269"/>
      <point x="1751" y="1108" type="qcurve" smooth="yes"/>
      <point x="1826" y="1010"/>
      <point x="1903" y="781"/>
      <point x="1903" y="655" type="qcurve" smooth="yes"/>
      <point x="1903" y="384"/>
      <point x="1577" y="84"/>
      <point x="1280" y="84" type="qcurve" smooth="yes"/>
      <point x="1241" y="84" type="line"/>
    </contour>
  </outline>
</glyph>
<glyph name="A" format="2">
  <advance width="1585"/>
  <unicode hex="0041"/>
  <anchor x="1259" y="0" name="ogonek"/>
  <anchor x="1382" y="0" name="cedilla"/>
  <anchor x="0" y="1520" name="half"/>
  <anchor x="790" y="0" name="below"/>
  <anchor x="790" y="1520" name="above"/>
  <outline>
    <contour>
      <point x="10" y="0" type="line"/>
      <point x="397" y="0" type="line"/>
      <point x="492" y="272" type="line"/>
      <point x="1094" y="272" type="line"/>
      <point x="1188" y="0" type="line"/>
      <point x="1575" y="0" type="line"/>
      <point x="1022" y="1493" type="line"/>
      <point x="563" y="1493" type="line"/>
    </contour>
    <contour>
      <point x="588" y="549" type="line"/>
      <point x="793" y="1143" type="line"/>
      <point x="997" y="549" type="line"/>
    </contour>
  </outline>
</glyph>
<glyph name="C" format="2">
  <advance width="1503"/>
  <unicode hex="0043"/>
  <anchor x="906" y="0" name="cedilla"/>
  <anchor x="909" y="0" name="below"/>
  <anchor x="0" y="1520" name="half"/>
  <anchor x="909" y="1520" name="above"/>
  <outline>
    <contour>
      <point x="911" y="-29" type="curve" smooth="yes"/>
      <point x="1078" y="-29"/>
      <point x="1231" y="9"/>
      <point x="1372" y="82" type="curve"/>
      <point x="1372" y="391" type="line"/>
      <point x="1229" y="294"/>
      <point x="1095" y="250"/>
      <point x="942" y="250" type="curve" smooth="yes"/>
      <point x="667" y="250"/>
      <point x="500" y="437"/>
      <point x="500" y="745" type="curve" smooth="yes"/>
      <point x="500" y="1054"/>
      <point x="667" y="1241"/>
      <point x="942" y="1241" type="curve" smooth="yes"/>
      <point x="1095" y="1241"/>
      <point x="1229" y="1197"/>
      <point x="1372" y="1100" type="curve"/>
      <point x="1372" y="1409" type="line"/>
      <point x="1231" y="1482"/>
      <point x="1078" y="1520"/>
      <point x="911" y="1520" type="curve" smooth="yes"/>
      <point x="414" y="1520"/>
      <point x="102" y="1222"/>
      <point x="102" y="745" type="curve" smooth="yes"/>
      <point x="102" y="269"/>
      <point x="414" y="-29"/>
    </contour>
  </outline>
</glyph>
<glyph name="D" format="2">
  <advance width="1700"/>
  <unicode hex="0044"/>
  <anchor x="524" y="0" name="cedilla"/>
  <anchor x="0" y="1520" name="half"/>
  <anchor x="777" y="0" name="below"/>
  <anchor x="777" y="1520" name="above"/>
  <outline>
    <contour>
      <point x="573" y="1202" type="line"/>
      <point x="573" y="291" type="line"/>
      <point x="711" y="291" type="line" smooth="yes"/>
      <point x="947" y="291"/>
      <point x="1196" y="525"/>
      <point x="1196" y="748" type="qcurve" smooth="yes"/>
      <point x="1196" y="970"/>
      <point x="948" y="1202"/>
      <point x="711" y="1202" type="qcurve" smooth="yes"/>
    </contour>
    <contour>
      <point x="188" y="1493" type="line"/>
      <point x="594" y="1493" type="line" smooth="yes"/>
      <point x="934" y="1493"/>
      <point x="1267" y="1396"/>
      <point x="1386" y="1280" type="qcurve" smooth="yes"/>
      <point x="1491" y="1179"/>
      <point x="1593" y="915"/>
      <point x="1593" y="748" type="qcurve" smooth="yes"/>
      <point x="1593" y="579"/>
      <point x="1491" y="314"/>
      <point x="1386" y="213" type="qcurve" smooth="yes"/>
      <point x="1266" y="97"/>
      <point x="930" y="0"/>
      <point x="594" y="0" type="qcurve" smooth="yes"/>
      <point x="188" y="0" type="line"/>
    </contour>
  </outline>
</glyph>
<glyph name="E" format="2">
  <advance width="1399"/>
  <unicode hex="0045"/>
  <anchor x="690" y="0" name="cedilla"/>
  <anchor x="1004" y="0" name="ogonek"/>
  <anchor x="0" y="1520" name="half"/>
  <anchor x="690" y="0" name="below"/>
  <anchor x="690" y="1520" name="above"/>
  <outline>
    <contour>
      <point x="188" y="1493" type="line"/>
      <point x="1227" y="1493" type="line"/>
      <point x="1227" y="1202" type="line"/>
      <point x="573" y="1202" type="line"/>
      <point x="573" y="924" type="line"/>
      <point x="1188" y="924" type="line"/>
      <point x="1188" y="633" type="line"/>
      <point x="573" y="633" type="line"/>
      <point x="573" y="291" type="line"/>
      <point x="1249" y="291" type="line"/>
      <point x="1249" y="0" type="line"/>
      <point x="188" y="0" type="line"/>
    </contour>
  </outline>
</glyph>
<glyph name="F" format="2">
  <advance width="1399"/>
  <unicode hex="0046"/>
  <anchor x="0" y="1520" name="half"/>
  <anchor x="690" y="1520" name="above"/>
  <anchor x="380" y="0" name="below"/>
  <outline>
    <contour>
      <point x="188" y="1493" type="line"/>
      <point x="1227" y="1493" type="line"/>
      <point x="1227" y="1202" type="line"/>
      <point x="573" y="1202" type="line"/>
      <point x="573" y="924" type="line"/>
      <point x="1188" y="924" type="line"/>
      <point x="1188" y="633" type="line"/>
      <point x="573" y="633" type="line"/>
      <point x="573" y="0" type="line"/>
      <point x="188" y="0" type="line"/>
    </contour>
  </outline>
</glyph>
<glyph name="G" format="2">
  <advance width="1681"/>
  <unicode hex="0047"/>
  <anchor x="0" y="1520" name="half"/>
  <anchor x="930" y="0" name="below"/>
  <anchor x="930" y="1520" name="above"/>
  <outline>
    <contour>
      <point x="1530" y="111" type="line"/>
      <point x="1386" y="41"/>
      <point x="1076" y="-29"/>
      <point x="911" y="-29" type="qcurve" smooth="yes"/>
      <point x="538" y="-29"/>
      <point x="102" y="388"/>
      <point x="102" y="745" type="qcurve" smooth="yes"/>
      <point x="102" y="1106"/>
      <point x="546" y="1520"/>
      <point x="932" y="1520" type="qcurve" smooth="yes"/>
      <point x="1081" y="1520"/>
      <point x="1354" y="1464"/>
      <point x="1475" y="1409" type="qcurve"/>
      <point x="1475" y="1100" type="line"/>
      <point x="1350" y="1171"/>
      <point x="1103" y="1241"/>
      <point x="979" y="1241" type="qcurve" smooth="yes"/>
      <point x="749" y="1241"/>
      <point x="500" y="984"/>
      <point x="500" y="745" type="qcurve" smooth="yes"/>
      <point x="500" y="508"/>
      <point x="740" y="250"/>
      <point x="961" y="250" type="qcurve" smooth="yes"/>
      <point x="1021" y="250"/>
      <point x="1124" y="265"/>
      <point x="1165" y="281" type="qcurve"/>
      <point x="1165" y="571" type="line"/>
      <point x="930" y="571" type="line"/>
      <point x="930" y="829" type="line"/>
      <point x="1530" y="829" type="line"/>
    </contour>
  </outline>
</glyph>
<glyph name="H" format="2">
  <advance width="1714"/>
  <unicode hex="0048"/>
  <anchor x="380" y="0" name="cedilla"/>
  <anchor x="0" y="1520" name="half"/>
  <anchor x="855" y="0" name="below"/>
  <anchor x="855" y="1520" name="above"/>
  <outline>
    <contour>
      <point x="188" y="1493" type="line"/>
      <point x="573" y="1493" type="line"/>
      <point x="573" y="924" type="line"/>
      <point x="1141" y="924" type="line"/>
      <point x="1141" y="1493" type="line"/>
      <point x="1526" y="1493" type="line"/>
      <point x="1526" y="0" type="line"/>
      <point x="1141" y="0" type="line"/>
      <point x="1141" y="633" type="line"/>
      <point x="573" y="633" type="line"/>
      <point x="573" y="0" type="line"/>
      <point x="188" y="0" type="line"/>
    </contour>
  </outline>
</glyph>
<glyph name="I" format="2">
  <advance width="762"/>
  <unicode hex="0049"/>
  <anchor x="503" y="0" name="ogonek"/>
  <anchor x="378" y="0" name="cedilla"/>
  <anchor x="0" y="1520" name="half"/>
  <anchor x="378" y="0" name="below"/>
  <anchor x="378" y="1520" name="above"/>
  <outline>
    <contour>
      <point x="188" y="1493" type="line"/>
      <point x="573" y="1493" type="line"/>
      <point x="573" y="0" type="line"/>
      <point x="188" y="0" type="line"/>
    </contour>
  </outline>
</glyph>
<glyph name="K" format="2">
  <advance width="1587"/>
  <unicode hex="004B"/>
  <anchor x="881" y="0" name="below"/>
  <anchor x="0" y="1520" name="half"/>
  <anchor x="881" y="1520" name="above"/>
  <outline>
    <contour>
      <point x="188" y="0" type="line"/>
      <point x="573" y="0" type="line"/>
      <point x="573" y="588" type="line"/>
      <point x="1167" y="0" type="line"/>
      <point x="1649" y="0" type="line"/>
      <point x="856" y="786" type="line"/>
      <point x="1575" y="1493" type="line"/>
      <point x="1128" y="1493" type="line"/>
      <point x="573" y="948" type="line"/>
      <point x="573" y="1493" type="line"/>
      <point x="188" y="1493" type="line"/>
    </contour>
  </outline>
</glyph>
<glyph name="L" format="2">
  <advance width="1305"/>
  <unicode hex="004C"/>
  <anchor x="0" y="1520" name="half"/>
  <anchor x="718" y="0" name="below"/>
  <anchor x="380" y="1520" name="above"/>
  <outline>
    <contour>
      <point x="188" y="1493" type="line"/>
      <point x="573" y="1493" type="line"/>
      <point x="573" y="291" type="line"/>
      <point x="1249" y="291" type="line"/>
      <point x="1249" y="0" type="line"/>
      <point x="188" y="0" type="line"/>
    </contour>
  </outline>
</glyph>
<glyph name="M" format="2">
  <advance width="2038"/>
  <unicode hex="004D"/>
  <anchor x="370" y="0" name="cedilla"/>
  <anchor x="0" y="1520" name="half"/>
  <anchor x="1018" y="0" name="below"/>
  <anchor x="1018" y="1520" name="above"/>
  <outline>
    <contour>
      <point x="188" y="1493" type="line"/>
      <point x="678" y="1493" type="line"/>
      <point x="1018" y="694" type="line"/>
      <point x="1360" y="1493" type="line"/>
      <point x="1849" y="1493" type="line"/>
      <point x="1849" y="0" type="line"/>
      <point x="1485" y="0" type="line"/>
      <point x="1485" y="1092" type="line"/>
      <point x="1141" y="287" type="line"/>
      <point x="897" y="287" type="line"/>
      <point x="553" y="1092" type="line"/>
      <point x="553" y="0" type="line"/>
      <point x="188" y="0" type="line"/>
    </contour>
  </outline>
</glyph>
<glyph name="N" format="2">
  <advance width="1714"/>
  <unicode hex="004E"/>
  <anchor x="370" y="0" name="cedilla"/>
  <anchor x="879" y="0" name="below"/>
  <anchor x="0" y="1520" name="half"/>
  <anchor x="879" y="1520" name="above"/>
  <outline>
    <contour>
      <point x="188" y="0" type="line"/>
      <point x="553" y="0" type="line"/>
      <point x="553" y="1024" type="line"/>
      <point x="1096" y="0" type="line"/>
      <point x="1526" y="0" type="line"/>
      <point x="1526" y="1493" type="line"/>
      <point x="1161" y="1493" type="line"/>
      <point x="1161" y="469" type="line"/>
      <point x="618" y="1493" type="line"/>
      <point x="188" y="1493" type="line"/>
    </contour>
  </outline>
</glyph>
<glyph name="O" format="2">
  <advance width="1741"/>
  <unicode hex="004F"/>
  <anchor x="870" y="0" name="cedilla"/>
  <anchor x="870" y="0" name="ogonek"/>
  <anchor x="0" y="1520" name="half"/>
  <anchor x="870" y="0" name="below"/>
  <anchor x="870" y="1520" name="above"/>
  <outline>
    <contour>
      <point x="870" y="-29" type="curve" smooth="yes"/>
      <point x="1350" y="-29"/>
      <point x="1638" y="262"/>
      <point x="1638" y="745" type="curve" smooth="yes"/>
      <point x="1638" y="1229"/>
      <point x="1350" y="1520"/>
      <point x="870" y="1520" type="curve" smooth="yes"/>
      <point x="391" y="1520"/>
      <point x="102" y="1229"/>
      <point x="102" y="745" type="curve" smooth="yes"/>
      <point x="102" y="262"/>
      <point x="391" y="-29"/>
    </contour>
    <contour>
      <point x="870" y="250" type="curve" smooth="yes"/>
      <point x="635" y="250"/>
      <point x="500" y="432"/>
      <point x="500" y="745" type="curve" smooth="yes"/>
      <point x="500" y="1060"/>
      <point x="635" y="1241"/>
      <point x="870" y="1241" type="curve" smooth="yes"/>
      <point x="1106" y="1241"/>
      <point x="1241" y="1060"/>
      <point x="1241" y="745" type="curve" smooth="yes"/>
      <point x="1241" y="432"/>
      <point x="1106" y="250"/>
    </contour>
  </outline>
</glyph>
<glyph name="P" format="2">
  <advance width="1501"/>
  <unicode hex="0050"/>
  <anchor x="802" y="1520" name="above"/>
  <anchor x="0" y="1520" name="half"/>
  <anchor x="380" y="0" name="below"/>
  <outline>
    <contour>
      <point x="188" y="0" type="line"/>
      <point x="573" y="0" type="line"/>
      <point x="573" y="518" type="line"/>
      <point x="827" y="518" type="line" smooth="yes"/>
      <point x="1207" y="518"/>
      <point x="1417" y="693"/>
      <point x="1417" y="1006" type="curve" smooth="yes"/>
      <point x="1417" y="1318"/>
      <point x="1207" y="1493"/>
      <point x="827" y="1493" type="curve" smooth="yes"/>
      <point x="188" y="1493" type="line"/>
    </contour>
    <contour>
      <point x="573" y="797" type="line"/>
      <point x="573" y="1214" type="line"/>
      <point x="786" y="1214" type="line" smooth="yes"/>
      <point x="935" y="1214"/>
      <point x="1020" y="1139"/>
      <point x="1020" y="1006" type="curve" smooth="yes"/>
      <point x="1020" y="873"/>
      <point x="935" y="797"/>
      <point x="786" y="797" type="curve" smooth="yes"/>
    </contour>
  </outline>
</glyph>
<glyph name="Q" format="2">
  <advance width="1741"/>
  <unicode hex="0051"/>
  <anchor x="0" y="1520" name="half"/>
  <anchor x="870" y="1520" name="above"/>
  <anchor x="870" y="0" name="below"/>
  <outline>
    <contour>
      <point x="911" y="-27" type="line"/>
      <point x="881" y="-27" type="line" smooth="yes"/>
      <point x="512" y="-27"/>
      <point x="102" y="381"/>
      <point x="102" y="745" type="qcurve" smooth="yes"/>
      <point x="102" y="1108"/>
      <point x="511" y="1520"/>
      <point x="870" y="1520" type="qcurve" smooth="yes"/>
      <point x="1233" y="1520"/>
      <point x="1638" y="1112"/>
      <point x="1638" y="745" type="qcurve" smooth="yes"/>
      <point x="1638" y="493"/>
      <point x="1423" y="129"/>
      <point x="1221" y="37" type="qcurve"/>
      <point x="1522" y="-299" type="line"/>
      <point x="1155" y="-299" type="line"/>
    </contour>
    <contour>
      <point x="870" y="1241" type="qcurve" smooth="yes"/>
      <point x="694" y="1241"/>
      <point x="500" y="981"/>
      <point x="500" y="745" type="qcurve" smooth="yes"/>
      <point x="500" y="505"/>
      <point x="690" y="250"/>
      <point x="870" y="250" type="qcurve" smooth="yes"/>
      <point x="1047" y="250"/>
      <point x="1241" y="510"/>
      <point x="1241" y="745" type="qcurve" smooth="yes"/>
      <point x="1241" y="981"/>
      <point x="1047" y="1241"/>
    </contour>
  </outline>
</glyph>
<glyph name="S" format="2">
  <advance width="1475"/>
  <unicode hex="0053"/>
  <anchor x="703" y="0" name="below"/>
  <anchor x="0" y="1520" name="half"/>
  <anchor x="703" y="1520" name="above"/>
  <outline>
    <contour>
      <point x="731" y="-29" type="curve" smooth="yes"/>
      <point x="1132" y="-29"/>
      <point x="1325" y="130"/>
      <point x="1325" y="459" type="curve" smooth="yes"/>
      <point x="1325" y="710"/>
      <point x="1198" y="834"/>
      <point x="866" y="901" type="curve" smooth="yes"/>
      <point x="702" y="934" type="line" smooth="yes"/>
      <point x="546" y="966"/>
      <point x="496" y="1005"/>
      <point x="496" y="1085" type="curve" smooth="yes"/>
      <point x="496" y="1192"/>
      <point x="582" y="1241"/>
      <point x="766" y="1241" type="curve" smooth="yes"/>
      <point x="905" y="1241"/>
      <point x="1063" y="1203"/>
      <point x="1227" y="1130" type="curve"/>
      <point x="1227" y="1446" type="line"/>
      <point x="1042" y="1495"/>
      <point x="869" y="1520"/>
      <point x="705" y="1520" type="curve" smooth="yes"/>
      <point x="345" y="1520"/>
      <point x="147" y="1354"/>
      <point x="147" y="1057" type="curve" smooth="yes"/>
      <point x="147" y="820"/>
      <point x="279" y="685"/>
      <point x="578" y="621" type="curve" smooth="yes"/>
      <point x="727" y="588" type="line" smooth="yes"/>
      <point x="908" y="548"/>
      <point x="954" y="505"/>
      <point x="954" y="412" type="curve" smooth="yes"/>
      <point x="954" y="308"/>
      <point x="862" y="250"/>
      <point x="694" y="250" type="curve" smooth="yes"/>
      <point x="529" y="250"/>
      <point x="351" y="302"/>
      <point x="160" y="403" type="curve"/>
      <point x="160" y="78" type="line"/>
      <point x="351" y="7"/>
      <point x="542" y="-29"/>
    </contour>
  </outline>
</glyph>
<glyph name="T" format="2">
  <advance width="1397"/>
  <unicode hex="0054"/>
  <anchor x="698" y="0" name="below"/>
  <anchor x="0" y="1520" name="half"/>
  <anchor x="698" y="1520" name="above"/>
  <outline>
    <contour>
      <point x="506" y="0" type="line"/>
      <point x="891" y="0" type="line"/>
      <point x="891" y="1202" type="line"/>
      <point x="1386" y="1202" type="line"/>
      <point x="1386" y="1493" type="line"/>
      <point x="10" y="1493" type="line"/>
      <point x="10" y="1202" type="line"/>
      <point x="506" y="1202" type="line"/>
    </contour>
  </outline>
</glyph>
<glyph name="V" format="2">
  <advance width="1585"/>
  <unicode hex="0056"/>
  <anchor x="793" y="1520" name="above"/>
  <anchor x="0" y="1520" name="half"/>
  <anchor x="793" y="0" name="below"/>
  <outline>
    <contour>
      <point x="563" y="0" type="line"/>
      <point x="1022" y="0" type="line"/>
      <point x="1575" y="1493" type="line"/>
      <point x="1188" y="1493" type="line"/>
      <point x="793" y="391" type="line"/>
      <point x="397" y="1493" type="line"/>
      <point x="10" y="1493" type="line"/>
    </contour>
  </outline>
</glyph>
<glyph name="W" format="2">
  <advance width="2259"/>
  <unicode hex="0057"/>
  <anchor x="1126" y="0" name="below"/>
  <anchor x="0" y="1520" name="half"/>
  <anchor x="1126" y="1520" name="above"/>
  <outline>
    <contour>
      <point x="416" y="0" type="line"/>
      <point x="860" y="0" type="line"/>
      <point x="1128" y="1135" type="line"/>
      <point x="1399" y="0" type="line"/>
      <point x="1843" y="0" type="line"/>
      <point x="2195" y="1493" type="line"/>
      <point x="1829" y="1493" type="line"/>
      <point x="1571" y="408" type="line"/>
      <point x="1315" y="1493" type="line"/>
      <point x="944" y="1493" type="line"/>
      <point x="688" y="408" type="line"/>
      <point x="430" y="1493" type="line"/>
      <point x="61" y="1493" type="line"/>
    </contour>
  </outline>
</glyph>
<glyph name="X" format="2">
  <advance width="1579"/>
  <unicode hex="0058"/>
  <anchor x="0" y="1520" name="half"/>
  <anchor x="788" y="1520" name="above"/>
  <anchor x="788" y="0" name="below"/>
  <outline>
    <contour>
      <point x="1020" y="762" type="line"/>
      <point x="1538" y="0" type="line"/>
      <point x="1137" y="0" type="line"/>
      <point x="788" y="510" type="line"/>
      <point x="442" y="0" type="line"/>
      <point x="39" y="0" type="line"/>
      <point x="557" y="762" type="line"/>
      <point x="59" y="1493" type="line"/>
      <point x="461" y="1493" type="line"/>
      <point x="788" y="1012" type="line"/>
      <point x="1114" y="1493" type="line"/>
      <point x="1518" y="1493" type="line"/>
    </contour>
  </outline>
</glyph>
<glyph name="Y" format="2">
  <advance width="1483"/>
  <unicode hex="0059"/>
  <anchor x="850" y="0" name="ogonek"/>
  <anchor x="741" y="0" name="below"/>
  <anchor x="0" y="1520" name="half"/>
  <anchor x="741" y="1520" name="above"/>
  <outline>
    <contour>
      <point x="549" y="0" type="line"/>
      <point x="934" y="0" type="line"/>
      <point x="934" y="629" type="line"/>
      <point x="1503" y="1493" type="line"/>
      <point x="1081" y="1493" type="line"/>
      <point x="741" y="961" type="line"/>
      <point x="401" y="1493" type="line"/>
      <point x="-20" y="1493" type="line"/>
      <point x="549" y="629" type="line"/>
    </contour>
  </outline>
</glyph>
<glyph name="Z" format="2">
  <advance width="1485"/>
  <unicode hex="005A"/>
  <anchor x="742" y="0" name="cedilla"/>
  <anchor x="742" y="1" name="ogonek"/>
  <anchor x="0" y="1520" name="half"/>
  <anchor x="742" y="0" name="below"/>
  <anchor x="742" y="1520" name="above"/>
  <outline>
    <contour>
      <point x="115" y="1493" type="line"/>
      <point x="1370" y="1493" type="line"/>
      <point x="1370" y="1260" type="line"/>
      <point x="569" y="291" type="line"/>
      <point x="1393" y="291" type="line"/>
      <point x="1393" y="0" type="line"/>
      <point x="92" y="0" type="line"/>
      <point x="92" y="233" type="line"/>
      <point x="893" y="1202" type="line"/>
      <point x="115" y="1202" type="line"/>
    </contour>
  </outline>
</glyph>
<glyph name="bracketleft" format="2">
  <advance width="936"/>
  <unicode hex="005B"/>
  <outline>
    <contour>
      <point x="176" y="1556" type="line"/>
      <point x="797" y="1556" type="line"/>
      <point x="797" y="1331" type="line"/>
      <point x="516" y="1331" type="line"/>
      <point x="516" y="-45" type="line"/>
      <point x="797" y="-45" type="line"/>
      <point x="797" y="-270" type="line"/>
      <point x="176" y="-270" type="line"/>
    </contour>
  </outline>
</glyph>
<glyph name="backslash" format="2">
  <advance width="748"/>
  <unicode hex="005C"/>
  <outline>
    <contour>
      <point x="526" y="-190" type="line"/>
      <point x="748" y="-190" type="line"/>
      <point x="221" y="1493" type="line"/>
      <point x="0" y="1493" type="line"/>
    </contour>
  </outline>
</glyph>
<glyph name="bracketright" format="2">
  <advance width="936"/>
  <unicode hex="005D"/>
  <outline>
    <contour>
      <point x="139" y="-270" type="line"/>
      <point x="760" y="-270" type="line"/>
      <point x="760" y="1556" type="line"/>
      <point x="139" y="1556" type="line"/>
      <point x="139" y="1331" type="line"/>
      <point x="420" y="1331" type="line"/>
      <point x="420" y="-45" type="line"/>
      <point x="139" y="-45" type="line"/>
    </contour>
  </outline>
</glyph>
<glyph name="grave" format="2">
  <advance width="1024"/>
  <unicode hex="0060"/>
  <outline>
    <contour>
      <point x="463" y="1262" type="line"/>
      <point x="659" y="1262" type="line"/>
      <point x="377" y="1638" type="line"/>
      <point x="94" y="1638" type="line"/>
    </contour>
  </outline>
</glyph>
<glyph name="a" format="2">
  <advance width="1382"/>
  <unicode hex="0061"/>
  <anchor x="936" y="0" name="ogonek"/>
  <anchor x="1040" y="0" name="cedilla"/>
  <anchor x="0" y="1520" name="half"/>
  <anchor x="698" y="0" name="below"/>
  <anchor x="698" y="1147" name="above"/>
  <outline>
    <contour>
      <point x="674" y="504" type="line" smooth="yes"/>
      <point x="562" y="504"/>
      <point x="449" y="428"/>
      <point x="449" y="354" type="qcurve" smooth="yes"/>
      <point x="449" y="286"/>
      <point x="540" y="209"/>
      <point x="621" y="209" type="qcurve" smooth="yes"/>
      <point x="722" y="209"/>
      <point x="860" y="354"/>
      <point x="860" y="463" type="qcurve" smooth="yes"/>
      <point x="860" y="504" type="line"/>
    </contour>
    <contour>
      <point x="1221" y="639" type="qcurve" smooth="yes"/>
      <point x="1221" y="0" type="line"/>
      <point x="860" y="0" type="line"/>
      <point x="860" y="166" type="line"/>
      <point x="788" y="64"/>
      <point x="608" y="-29"/>
      <point x="479" y="-29" type="qcurve" smooth="yes"/>
      <point x="305" y="-29"/>
      <point x="88" y="174"/>
      <point x="88" y="336" type="qcurve" smooth="yes"/>
      <point x="88" y="533"/>
      <point x="359" y="717"/>
      <point x="649" y="717" type="qcurve" smooth="yes"/>
      <point x="860" y="717" type="line"/>
      <point x="860" y="745" type="line" smooth="yes"/>
      <point x="860" y="830"/>
      <point x="726" y="909"/>
      <point x="584" y="909" type="qcurve" smooth="yes"/>
      <point x="469" y="909"/>
      <point x="271" y="863"/>
      <point x="186" y="817" type="qcurve"/>
      <point x="186" y="1090" type="line"/>
      <point x="301" y="1118"/>
      <point x="533" y="1147"/>
      <point x="649" y="1147" type="qcurve" smooth="yes"/>
      <point x="952" y="1147"/>
      <point x="1221" y="908"/>
    </contour>
  </outline>
</glyph>
<glyph name="c" format="2">
  <advance width="1214"/>
  <unicode hex="0063"/>
  <anchor x="733" y="0" name="below"/>
  <anchor x="0" y="1520" name="half"/>
  <anchor x="733" y="1147" name="above"/>
  <outline>
    <contour>
      <point x="733" y="-29" type="curve" smooth="yes"/>
      <point x="849" y="-29"/>
      <point x="965" y="-8"/>
      <point x="1077" y="33" type="curve"/>
      <point x="1077" y="326" type="line"/>
      <point x="992" y="261"/>
      <point x="890" y="227"/>
      <point x="778" y="227" type="curve" smooth="yes"/>
      <point x="578" y="227"/>
      <point x="461" y="350"/>
      <point x="461" y="559" type="curve" smooth="yes"/>
      <point x="461" y="768"/>
      <point x="578" y="891"/>
      <point x="778" y="891" type="curve" smooth="yes"/>
      <point x="883" y="891"/>
      <point x="980" y="860"/>
      <point x="1077" y="793" type="curve"/>
      <point x="1077" y="1085" type="line"/>
      <point x="964" y="1126"/>
      <point x="850" y="1147"/>
      <point x="733" y="1147" type="curve" smooth="yes"/>
      <point x="329" y="1147"/>
      <point x="88" y="928"/>
      <point x="88" y="559" type="curve" smooth="yes"/>
      <point x="88" y="190"/>
      <point x="329" y="-29"/>
    </contour>
  </outline>
</glyph>
<glyph name="e" format="2">
  <advance width="1389"/>
  <unicode hex="0065"/>
  <anchor x="729" y="0" name="cedilla"/>
  <anchor x="932" y="0" name="ogonek"/>
  <anchor x="0" y="1520" name="half"/>
  <anchor x="729" y="0" name="below"/>
  <anchor x="729" y="1147" name="above"/>
  <outline>
    <contour>
      <point x="729" y="-29" type="curve" smooth="yes"/>
      <point x="898" y="-29"/>
      <point x="1068" y="4"/>
      <point x="1237" y="68" type="curve"/>
      <point x="1237" y="344" type="line"/>
      <point x="1070" y="253"/>
      <point x="913" y="209"/>
      <point x="762" y="209" type="curve" smooth="yes"/>
      <point x="575" y="209"/>
      <point x="470" y="293"/>
      <point x="453" y="461" type="curve"/>
      <point x="1290" y="461" type="line"/>
      <point x="1290" y="563" type="line" smooth="yes"/>
      <point x="1290" y="918"/>
      <point x="1061" y="1147"/>
      <point x="709" y="1147" type="curve" smooth="yes"/>
      <point x="322" y="1147"/>
      <point x="88" y="924"/>
      <point x="88" y="559" type="curve" smooth="yes"/>
      <point x="88" y="187"/>
      <point x="324" y="-29"/>
    </contour>
    <contour>
      <point x="457" y="682" type="line"/>
      <point x="478" y="829"/>
      <point x="568" y="909"/>
      <point x="707" y="909" type="curve" smooth="yes"/>
      <point x="835" y="909"/>
      <point x="922" y="818"/>
      <point x="922" y="682" type="curve"/>
    </contour>
  </outline>
</glyph>
<glyph name="f" format="2">
  <advance width="891"/>
  <unicode hex="0066"/>
  <anchor x="394" y="0" name="below"/>
  <anchor x="0" y="1520" name="half"/>
  <anchor x="494" y="1520" name="above"/>
  <outline>
    <contour>
      <point x="217" y="0" type="line"/>
      <point x="575" y="0" type="line"/>
      <point x="575" y="864" type="line"/>
      <point x="881" y="864" type="line"/>
      <point x="881" y="1120" type="line"/>
      <point x="575" y="1120" type="line"/>
      <point x="575" y="1198" type="line" smooth="yes"/>
      <point x="575" y="1289"/>
      <point x="610" y="1321"/>
      <point x="711" y="1321" type="curve" smooth="yes"/>
      <point x="909" y="1321" type="line"/>
      <point x="909" y="1556" type="line"/>
      <point x="635" y="1556" type="line" smooth="yes"/>
      <point x="350" y="1556"/>
      <point x="217" y="1442"/>
      <point x="217" y="1198" type="curve" smooth="yes"/>
      <point x="217" y="1120" type="line"/>
      <point x="39" y="1120" type="line"/>
      <point x="39" y="864" type="line"/>
      <point x="217" y="864" type="line"/>
    </contour>
  </outline>
</glyph>
<glyph name="g" format="2">
  <advance width="1466"/>
  <unicode hex="0067"/>
  <anchor x="698" y="-430" name="below"/>
  <anchor x="0" y="1520" name="half"/>
  <anchor x="698" y="1147" name="above"/>
  <outline>
    <contour>
      <point x="629" y="-442" type="curve" smooth="yes"/>
      <point x="1061" y="-442"/>
      <point x="1294" y="-247"/>
      <point x="1294" y="113" type="curve" smooth="yes"/>
      <point x="1294" y="1120" type="line"/>
      <point x="934" y="1120" type="line"/>
      <point x="934" y="954" type="line"/>
      <point x="835" y="1086"/>
      <point x="721" y="1145"/>
      <point x="565" y="1145" type="curve" smooth="yes"/>
      <point x="292" y="1145"/>
      <point x="92" y="908"/>
      <point x="92" y="573" type="curve" smooth="yes"/>
      <point x="92" y="240"/>
      <point x="292" y="0"/>
      <point x="565" y="0" type="curve" smooth="yes"/>
      <point x="721" y="0"/>
      <point x="835" y="59"/>
      <point x="934" y="190" type="curve"/>
      <point x="934" y="113" type="line" smooth="yes"/>
      <point x="934" y="-106"/>
      <point x="829" y="-205"/>
      <point x="594" y="-205" type="curve" smooth="yes"/>
      <point x="473" y="-205"/>
      <point x="354" y="-170"/>
      <point x="229" y="-98" type="curve"/>
      <point x="229" y="-377" type="line"/>
      <point x="361" y="-421"/>
      <point x="489" y="-442"/>
    </contour>
    <contour>
      <point x="698" y="260" type="curve" smooth="yes"/>
      <point x="545" y="260"/>
      <point x="463" y="368"/>
      <point x="463" y="573" type="curve" smooth="yes"/>
      <point x="463" y="773"/>
      <point x="550" y="887"/>
      <point x="698" y="887" type="curve" smooth="yes"/>
      <point x="847" y="887"/>
      <point x="934" y="773"/>
      <point x="934" y="573" type="curve" smooth="yes"/>
      <point x="934" y="374"/>
      <point x="847" y="260"/>
    </contour>
  </outline>
</glyph>
<glyph name="i" format="2">
  <advance width="702"/>
  <unicode hex="0069"/>
  <anchor x="460" y="0" name="ogonek"/>
  <anchor x="350" y="0" name="cedilla"/>
  <anchor x="0" y="1520" name="half"/>
  <anchor x="350" y="0" name="below"/>
  <anchor x="350" y="1583" name="above"/>
  <outline>
    <contour>
      <point x="172" y="0" type="line"/>
      <point x="530" y="0" type="line"/>
      <point x="530" y="1120" type="line"/>
      <point x="172" y="1120" type="line"/>
    </contour>
    <contour>
      <point x="172" y="1264" type="line"/>
      <point x="530" y="1264" type="line"/>
      <point x="530" y="1556" type="line"/>
      <point x="172" y="1556" type="line"/>
    </contour>
  </outline>
</glyph>
<glyph name="j" format="2">
  <advance width="702"/>
  <unicode hex="006A"/>
  <anchor x="0" y="1520" name="half"/>
  <anchor x="351" y="-430" name="below"/>
  <anchor x="351" y="1583" name="above"/>
  <outline>
    <contour>
      <point x="172" y="1120" type="line"/>
      <point x="530" y="1120" type="line"/>
      <point x="530" y="20" type="line" smooth="yes"/>
      <point x="530" y="-205"/>
      <point x="314" y="-442"/>
      <point x="109" y="-442" type="qcurve" smooth="yes"/>
      <point x="-68" y="-442" type="line"/>
      <point x="-68" y="-207" type="line"/>
      <point x="-6" y="-207" type="line" smooth="yes"/>
      <point x="96" y="-207"/>
      <point x="172" y="-115"/>
      <point x="172" y="20" type="qcurve" smooth="yes"/>
    </contour>
    <contour>
      <point x="172" y="1556" type="line"/>
      <point x="530" y="1556" type="line"/>
      <point x="530" y="1264" type="line"/>
      <point x="172" y="1264" type="line"/>
    </contour>
  </outline>
</glyph>
<glyph name="l" format="2">
  <advance width="702"/>
  <unicode hex="006C"/>
  <anchor x="356" y="0" name="below"/>
  <anchor x="0" y="1520" name="half"/>
  <anchor x="356" y="1520" name="above"/>
  <outline>
    <contour>
      <point x="172" y="0" type="line"/>
      <point x="530" y="0" type="line"/>
      <point x="530" y="1556" type="line"/>
      <point x="172" y="1556" type="line"/>
    </contour>
  </outline>
</glyph>
<glyph name="m" format="2">
  <advance width="2134"/>
  <unicode hex="006D"/>
  <anchor x="350" y="0" name="cedilla"/>
  <anchor x="1071" y="0" name="below"/>
  <anchor x="0" y="1520" name="half"/>
  <anchor x="1071" y="1147" name="above"/>
  <outline>
    <contour>
      <point x="170" y="0" type="line"/>
      <point x="530" y="0" type="line"/>
      <point x="530" y="551" type="line" smooth="yes"/>
      <point x="530" y="760"/>
      <point x="608" y="877"/>
      <point x="745" y="877" type="curve" smooth="yes"/>
      <point x="800" y="877"/>
      <point x="838" y="859"/>
      <point x="859" y="824" type="curve" smooth="yes"/>
      <point x="880" y="788"/>
      <point x="891" y="708"/>
      <point x="891" y="584" type="curve" smooth="yes"/>
      <point x="891" y="0" type="line"/>
      <point x="1251" y="0" type="line"/>
      <point x="1251" y="550" type="line" smooth="yes"/>
      <point x="1254" y="762"/>
      <point x="1330" y="877"/>
      <point x="1466" y="877" type="curve" smooth="yes"/>
      <point x="1570" y="877"/>
      <point x="1614" y="810"/>
      <point x="1614" y="651" type="curve" smooth="yes"/>
      <point x="1614" y="616"/>
      <point x="1613" y="601"/>
      <point x="1612" y="584" type="curve"/>
      <point x="1612" y="0" type="line"/>
      <point x="1972" y="0" type="line"/>
      <point x="1972" y="682" type="line" smooth="yes"/>
      <point x="1972" y="985"/>
      <point x="1834" y="1147"/>
      <point x="1577" y="1147" type="curve" smooth="yes"/>
      <point x="1428" y="1147"/>
      <point x="1301" y="1073"/>
      <point x="1210" y="934" type="curve"/>
      <point x="1149" y="1069"/>
      <point x="1025" y="1147"/>
      <point x="870" y="1147" type="curve" smooth="yes"/>
      <point x="733" y="1147"/>
      <point x="618" y="1083"/>
      <point x="530" y="956" type="curve"/>
      <point x="530" y="1120" type="line"/>
      <point x="170" y="1120" type="line"/>
    </contour>
  </outline>
</glyph>
<glyph name="n" format="2">
  <advance width="1458"/>
  <unicode hex="006E"/>
  <anchor x="351" y="0" name="cedilla"/>
  <anchor x="681" y="0" name="below"/>
  <anchor x="0" y="1520" name="half"/>
  <anchor x="681" y="1147" name="above"/>
  <outline>
    <contour>
      <point x="172" y="0" type="line"/>
      <point x="530" y="0" type="line"/>
      <point x="530" y="551" type="line" smooth="yes"/>
      <point x="530" y="755"/>
      <point x="621" y="877"/>
      <point x="770" y="877" type="curve" smooth="yes"/>
      <point x="831" y="877"/>
      <point x="881" y="850"/>
      <point x="909" y="803" type="curve" smooth="yes"/>
      <point x="920" y="786"/>
      <point x="927" y="759"/>
      <point x="932" y="722" type="curve" smooth="yes"/>
      <point x="936" y="685"/>
      <point x="938" y="619"/>
      <point x="938" y="522" type="curve" smooth="yes"/>
      <point x="938" y="111" type="line"/>
      <point x="938" y="0" type="line"/>
      <point x="1298" y="0" type="line"/>
      <point x="1298" y="682" type="line" smooth="yes"/>
      <point x="1298" y="985"/>
      <point x="1162" y="1147"/>
      <point x="903" y="1147" type="curve" smooth="yes"/>
      <point x="756" y="1147"/>
      <point x="638" y="1087"/>
      <point x="530" y="956" type="curve"/>
      <point x="530" y="1120" type="line"/>
      <point x="172" y="1120" type="line"/>
    </contour>
  </outline>
</glyph>
<glyph name="o" format="2">
  <advance width="1407"/>
  <unicode hex="006F"/>
  <anchor x="706" y="0" name="cedilla"/>
  <anchor x="706" y="0" name="ogonek"/>
  <anchor x="0" y="1520" name="half"/>
  <anchor x="705" y="0" name="below"/>
  <anchor x="705" y="1147" name="above"/>
  <outline>
    <contour>
      <point x="705" y="-29" type="curve" smooth="yes"/>
      <point x="1090" y="-29"/>
      <point x="1319" y="191"/>
      <point x="1319" y="559" type="curve" smooth="yes"/>
      <point x="1319" y="927"/>
      <point x="1090" y="1147"/>
      <point x="705" y="1147" type="curve" smooth="yes"/>
      <point x="318" y="1147"/>
      <point x="88" y="927"/>
      <point x="88" y="559" type="curve" smooth="yes"/>
      <point x="88" y="191"/>
      <point x="318" y="-29"/>
    </contour>
    <contour>
      <point x="705" y="227" type="curve" smooth="yes"/>
      <point x="546" y="227"/>
      <point x="461" y="344"/>
      <point x="461" y="559" type="curve" smooth="yes"/>
      <point x="461" y="774"/>
      <point x="546" y="891"/>
      <point x="705" y="891" type="curve" smooth="yes"/>
      <point x="861" y="891"/>
      <point x="946" y="774"/>
      <point x="946" y="559" type="curve" smooth="yes"/>
      <point x="946" y="344"/>
      <point x="861" y="227"/>
    </contour>
  </outline>
</glyph>
<glyph name="p" format="2">
  <advance width="1466"/>
  <unicode hex="0070"/>
  <anchor x="729" y="-430" name="below"/>
  <anchor x="0" y="1520" name="half"/>
  <anchor x="729" y="1147" name="above"/>
  <outline>
    <contour>
      <point x="172" y="-426" type="line"/>
      <point x="530" y="-426" type="line"/>
      <point x="530" y="162" type="line"/>
      <point x="629" y="31"/>
      <point x="745" y="-29"/>
      <point x="901" y="-29" type="curve" smooth="yes"/>
      <point x="1177" y="-29"/>
      <point x="1374" y="214"/>
      <point x="1374" y="559" type="curve" smooth="yes"/>
      <point x="1374" y="904"/>
      <point x="1177" y="1147"/>
      <point x="901" y="1147" type="curve" smooth="yes"/>
      <point x="745" y="1147"/>
      <point x="629" y="1087"/>
      <point x="530" y="956" type="curve"/>
      <point x="530" y="1120" type="line"/>
      <point x="172" y="1120" type="line"/>
    </contour>
    <contour>
      <point x="768" y="231" type="curve" smooth="yes"/>
      <point x="615" y="231"/>
      <point x="530" y="347"/>
      <point x="530" y="559" type="curve" smooth="yes"/>
      <point x="530" y="771"/>
      <point x="615" y="887"/>
      <point x="768" y="887" type="curve" smooth="yes"/>
      <point x="921" y="887"/>
      <point x="1004" y="772"/>
      <point x="1004" y="559" type="curve" smooth="yes"/>
      <point x="1004" y="346"/>
      <point x="921" y="231"/>
    </contour>
  </outline>
</glyph>
<glyph name="q" format="2">
  <advance width="1466"/>
  <unicode hex="0071"/>
  <anchor x="729" y="-430" name="below"/>
  <anchor x="0" y="1520" name="half"/>
  <anchor x="729" y="1147" name="above"/>
  <outline>
    <contour>
      <point x="934" y="-426" type="line"/>
      <point x="1294" y="-426" type="line"/>
      <point x="1294" y="1120" type="line"/>
      <point x="934" y="1120" type="line"/>
      <point x="934" y="954" type="line"/>
      <point x="835" y="1086"/>
      <point x="721" y="1145"/>
      <point x="565" y="1145" type="curve" smooth="yes"/>
      <point x="289" y="1145"/>
      <point x="92" y="904"/>
      <point x="92" y="559" type="curve" smooth="yes"/>
      <point x="92" y="214"/>
      <point x="289" y="-29"/>
      <point x="565" y="-29" type="curve" smooth="yes"/>
      <point x="721" y="-29"/>
      <point x="835" y="30"/>
      <point x="934" y="162" type="curve"/>
    </contour>
    <contour>
      <point x="698" y="231" type="curve" smooth="yes"/>
      <point x="546" y="231"/>
      <point x="463" y="346"/>
      <point x="463" y="559" type="curve" smooth="yes"/>
      <point x="463" y="772"/>
      <point x="546" y="887"/>
      <point x="698" y="887" type="curve" smooth="yes"/>
      <point x="851" y="887"/>
      <point x="934" y="772"/>
      <point x="934" y="559" type="curve" smooth="yes"/>
      <point x="934" y="346"/>
      <point x="851" y="231"/>
    </contour>
  </outline>
</glyph>
<glyph name="r" format="2">
  <advance width="1010"/>
  <unicode hex="0072"/>
  <anchor x="0" y="1520" name="half"/>
  <anchor x="350" y="0" name="below"/>
  <anchor x="597" y="1147" name="above"/>
  <outline>
    <contour>
      <point x="1004" y="815" type="line"/>
      <point x="957" y="837"/>
      <point x="864" y="858"/>
      <point x="817" y="858" type="qcurve" smooth="yes"/>
      <point x="679" y="858"/>
      <point x="530" y="681"/>
      <point x="530" y="516" type="qcurve" smooth="yes"/>
      <point x="530" y="0" type="line"/>
      <point x="172" y="0" type="line"/>
      <point x="172" y="1120" type="line"/>
      <point x="530" y="1120" type="line"/>
      <point x="530" y="936" type="line"/>
      <point x="599" y="1046"/>
      <point x="778" y="1147"/>
      <point x="903" y="1147" type="qcurve" smooth="yes"/>
      <point x="921" y="1147"/>
      <point x="963" y="1144"/>
      <point x="1003" y="1139" type="qcurve"/>
    </contour>
  </outline>
</glyph>
<glyph name="s" format="2">
  <advance width="1219"/>
  <unicode hex="0073"/>
  <anchor x="602" y="0" name="below"/>
  <anchor x="0" y="1520" name="half"/>
  <anchor x="602" y="1147" name="above"/>
  <outline>
    <contour>
      <point x="596" y="-29" type="curve" smooth="yes"/>
      <point x="945" y="-29"/>
      <point x="1122" y="91"/>
      <point x="1122" y="330" type="curve" smooth="yes"/>
      <point x="1122" y="558"/>
      <point x="1024" y="649"/>
      <point x="657" y="696" type="curve" smooth="yes"/>
      <point x="594" y="705" type="line" smooth="yes"/>
      <point x="529" y="712"/>
      <point x="485" y="724"/>
      <point x="460" y="739" type="curve" smooth="yes"/>
      <point x="435" y="754"/>
      <point x="422" y="776"/>
      <point x="422" y="805" type="curve" smooth="yes"/>
      <point x="422" y="876"/>
      <point x="487" y="909"/>
      <point x="623" y="909" type="curve" smooth="yes"/>
      <point x="750" y="909"/>
      <point x="894" y="877"/>
      <point x="1047" y="813" type="curve"/>
      <point x="1047" y="1085" type="line"/>
      <point x="876" y="1128"/>
      <point x="734" y="1147"/>
      <point x="602" y="1147" type="curve" smooth="yes"/>
      <point x="266" y="1147"/>
      <point x="106" y="1034"/>
      <point x="106" y="797" type="curve" smooth="yes"/>
      <point x="106" y="577"/>
      <point x="218" y="480"/>
      <point x="537" y="440" type="curve" smooth="yes"/>
      <point x="600" y="432" type="line" smooth="yes"/>
      <point x="673" y="423"/>
      <point x="721" y="411"/>
      <point x="746" y="396" type="curve" smooth="yes"/>
      <point x="770" y="380"/>
      <point x="782" y="356"/>
      <point x="782" y="324" type="curve" smooth="yes"/>
      <point x="782" y="248"/>
      <point x="711" y="209"/>
      <point x="571" y="209" type="curve" smooth="yes"/>
      <point x="416" y="209"/>
      <point x="266" y="244"/>
      <point x="123" y="313" type="curve"/>
      <point x="123" y="41" type="line"/>
      <point x="290" y="-6"/>
      <point x="448" y="-29"/>
    </contour>
  </outline>
</glyph>
<glyph name="t" format="2">
  <advance width="979"/>
  <unicode hex="0074"/>
  <anchor x="0" y="1520" name="half"/>
  <anchor x="394" y="0" name="below"/>
  <anchor x="394" y="1520" name="above"/>
  <outline>
    <contour>
      <point x="563" y="1438" type="line"/>
      <point x="563" y="1120" type="line"/>
      <point x="932" y="1120" type="line"/>
      <point x="932" y="864" type="line"/>
      <point x="563" y="864" type="line"/>
      <point x="563" y="389" type="line" smooth="yes"/>
      <point x="563" y="311"/>
      <point x="625" y="256"/>
      <point x="717" y="256" type="qcurve" smooth="yes"/>
      <point x="901" y="256" type="line"/>
      <point x="901" y="0" type="line"/>
      <point x="594" y="0" type="line" smooth="yes"/>
      <point x="382" y="0"/>
      <point x="205" y="177"/>
      <point x="205" y="389" type="qcurve" smooth="yes"/>
      <point x="205" y="864" type="line"/>
      <point x="27" y="864" type="line"/>
      <point x="27" y="1120" type="line"/>
      <point x="205" y="1120" type="line"/>
      <point x="205" y="1438" type="line"/>
    </contour>
  </outline>
</glyph>
<glyph name="u" format="2">
  <advance width="1458"/>
  <unicode hex="0075"/>
  <anchor x="1220" y="0" name="ogonek"/>
  <anchor x="0" y="1520" name="half"/>
  <anchor x="724" y="0" name="cedilla"/>
  <anchor x="724" y="0" name="below"/>
  <anchor x="724" y="1147" name="above"/>
  <outline>
    <contour>
      <point x="160" y="436" type="qcurve" smooth="yes"/>
      <point x="160" y="1120" type="line"/>
      <point x="520" y="1120" type="line"/>
      <point x="520" y="1008" type="line" smooth="yes"/>
      <point x="520" y="917"/>
      <point x="518" y="642"/>
      <point x="518" y="596" type="qcurve" smooth="yes"/>
      <point x="518" y="461"/>
      <point x="532" y="342"/>
      <point x="549" y="315" type="qcurve" smooth="yes"/>
      <point x="571" y="280"/>
      <point x="642" y="242"/>
      <point x="688" y="242" type="qcurve" smooth="yes"/>
      <point x="800" y="242"/>
      <point x="928" y="414"/>
      <point x="928" y="567" type="qcurve" smooth="yes"/>
      <point x="928" y="1120" type="line"/>
      <point x="1286" y="1120" type="line"/>
      <point x="1286" y="0" type="line"/>
      <point x="928" y="0" type="line"/>
      <point x="928" y="162" type="line"/>
      <point x="847" y="64"/>
      <point x="666" y="-29"/>
      <point x="557" y="-29" type="qcurve" smooth="yes"/>
      <point x="363" y="-29"/>
      <point x="160" y="209"/>
    </contour>
  </outline>
</glyph>
<glyph name="v" format="2">
  <advance width="1335"/>
  <unicode hex="0076"/>
  <anchor x="668" y="0" name="below"/>
  <anchor x="0" y="1520" name="half"/>
  <anchor x="668" y="1147" name="above"/>
  <outline>
    <contour>
      <point x="471" y="0" type="line"/>
      <point x="864" y="0" type="line"/>
      <point x="1305" y="1120" type="line"/>
      <point x="946" y="1120" type="line"/>
      <point x="668" y="346" type="line"/>
      <point x="389" y="1120" type="line"/>
      <point x="31" y="1120" type="line"/>
    </contour>
  </outline>
</glyph>
<glyph name="w" format="2">
  <advance width="1892"/>
  <unicode hex="0077"/>
  <anchor x="946" y="0" name="below"/>
  <anchor x="0" y="1520" name="half"/>
  <anchor x="946" y="1147" name="above"/>
  <outline>
    <contour>
      <point x="367" y="0" type="line"/>
      <point x="758" y="0" type="line"/>
      <point x="946" y="770" type="line"/>
      <point x="1135" y="0" type="line"/>
      <point x="1526" y="0" type="line"/>
      <point x="1821" y="1120" type="line"/>
      <point x="1473" y="1120" type="line"/>
      <point x="1284" y="356" type="line"/>
      <point x="1096" y="1120" type="line"/>
      <point x="797" y="1120" type="line"/>
      <point x="608" y="348" type="line"/>
      <point x="420" y="1120" type="line"/>
      <point x="72" y="1120" type="line"/>
    </contour>
  </outline>
</glyph>
<glyph name="x" format="2">
  <advance width="1321"/>
  <unicode hex="0078"/>
  <anchor x="0" y="1520" name="half"/>
  <anchor x="659" y="0" name="below"/>
  <anchor x="659" y="1147" name="above"/>
  <outline>
    <contour>
      <point x="455" y="573" type="line"/>
      <point x="51" y="1120" type="line"/>
      <point x="430" y="1120" type="line"/>
      <point x="659" y="788" type="line"/>
      <point x="891" y="1120" type="line"/>
      <point x="1270" y="1120" type="line"/>
      <point x="866" y="575" type="line"/>
      <point x="1290" y="0" type="line"/>
      <point x="911" y="0" type="line"/>
      <point x="659" y="354" type="line"/>
      <point x="410" y="0" type="line"/>
      <point x="31" y="0" type="line"/>
    </contour>
  </outline>
</glyph>
<glyph name="y" format="2">
  <advance width="1335"/>
  <unicode hex="0079"/>
  <anchor x="342" y="-442" name="ogonek"/>
  <anchor x="0" y="1520" name="half"/>
  <anchor x="661" y="-430" name="below"/>
  <anchor x="661" y="1147" name="above"/>
  <outline>
    <contour>
      <point x="25" y="1120" type="line"/>
      <point x="383" y="1120" type="line"/>
      <point x="684" y="360" type="line"/>
      <point x="940" y="1120" type="line"/>
      <point x="1298" y="1120" type="line"/>
      <point x="827" y="-106" type="line"/>
      <point x="756" y="-293"/>
      <point x="567" y="-442"/>
      <point x="412" y="-442" type="qcurve" smooth="yes"/>
      <point x="205" y="-442" type="line"/>
      <point x="205" y="-207" type="line"/>
      <point x="317" y="-207" type="line" smooth="yes"/>
      <point x="408" y="-207"/>
      <point x="491" y="-149"/>
      <point x="514" y="-74" type="qcurve"/>
      <point x="524" y="-43" type="line"/>
    </contour>
  </outline>
</glyph>
<glyph name="z" format="2">
  <advance width="1192"/>
  <unicode hex="007A"/>
  <anchor x="596" y="0" name="cedilla"/>
  <anchor x="596" y="0" name="ogonek"/>
  <anchor x="0" y="1520" name="half"/>
  <anchor x="596" y="0" name="below"/>
  <anchor x="596" y="1147" name="above"/>
  <outline>
    <contour>
      <point x="92" y="0" type="line"/>
      <point x="1094" y="0" type="line"/>
      <point x="1094" y="256" type="line"/>
      <point x="504" y="256" type="line"/>
      <point x="1094" y="870" type="line"/>
      <point x="1094" y="1120" type="line"/>
      <point x="117" y="1120" type="line"/>
      <point x="117" y="864" type="line"/>
      <point x="682" y="864" type="line"/>
      <point x="92" y="250" type="line"/>
    </contour>
  </outline>
</glyph>
<glyph name="braceleft" format="2">
  <advance width="1458"/>
  <unicode hex="007B"/>
  <outline>
    <contour>
      <point x="1202" y="-109" type="line"/>
      <point x="1202" y="-334" type="line"/>
      <point x="985" y="-334" type="line" smooth="yes"/>
      <point x="767" y="-334"/>
      <point x="567" y="-158"/>
      <point x="567" y="35" type="qcurve" smooth="yes"/>
      <point x="567" y="227" type="line" smooth="yes"/>
      <point x="567" y="377"/>
      <point x="459" y="494"/>
      <point x="317" y="494" type="qcurve" smooth="yes"/>
      <point x="256" y="494" type="line"/>
      <point x="256" y="717" type="line"/>
      <point x="317" y="717" type="line" smooth="yes"/>
      <point x="459" y="717"/>
      <point x="567" y="833"/>
      <point x="567" y="983" type="qcurve" smooth="yes"/>
      <point x="567" y="1188" type="line" smooth="yes"/>
      <point x="567" y="1381"/>
      <point x="767" y="1556"/>
      <point x="985" y="1556" type="qcurve" smooth="yes"/>
      <point x="1202" y="1556" type="line"/>
      <point x="1202" y="1331" type="line"/>
      <point x="1133" y="1331" type="line" smooth="yes"/>
      <point x="992" y="1331"/>
      <point x="907" y="1244"/>
      <point x="907" y="1102" type="qcurve" smooth="yes"/>
      <point x="907" y="936" type="line" smooth="yes"/>
      <point x="907" y="779"/>
      <point x="817" y="637"/>
      <point x="707" y="612" type="qcurve"/>
      <point x="818" y="585"/>
      <point x="907" y="443"/>
      <point x="907" y="287" type="qcurve" smooth="yes"/>
      <point x="907" y="121" type="line" smooth="yes"/>
      <point x="907" y="-22"/>
      <point x="992" y="-109"/>
      <point x="1133" y="-109" type="qcurve" smooth="yes"/>
    </contour>
  </outline>
</glyph>
<glyph name="bar" format="2">
  <advance width="748"/>
  <unicode hex="007C"/>
  <outline>
    <contour>
      <point x="260" y="-483" type="line"/>
      <point x="487" y="-483" type="line"/>
      <point x="487" y="1565" type="line"/>
      <point x="260" y="1565" type="line"/>
    </contour>
  </outline>
</glyph>
<glyph name="braceright" format="2">
  <advance width="1458"/>
  <unicode hex="007D"/>
  <outline>
    <contour>
      <point x="256" y="-334" type="line"/>
      <point x="473" y="-334" type="line" smooth="yes"/>
      <point x="764" y="-334"/>
      <point x="891" y="-222"/>
      <point x="891" y="35" type="curve" smooth="yes"/>
      <point x="891" y="227" type="line" smooth="yes"/>
      <point x="891" y="427"/>
      <point x="952" y="494"/>
      <point x="1141" y="494" type="curve" smooth="yes"/>
      <point x="1202" y="494" type="line"/>
      <point x="1202" y="717" type="line"/>
      <point x="1141" y="717" type="line" smooth="yes"/>
      <point x="952" y="717"/>
      <point x="891" y="783"/>
      <point x="891" y="983" type="curve" smooth="yes"/>
      <point x="891" y="1188" type="line" smooth="yes"/>
      <point x="891" y="1445"/>
      <point x="764" y="1556"/>
      <point x="473" y="1556" type="curve" smooth="yes"/>
      <point x="256" y="1556" type="line"/>
      <point x="256" y="1331" type="line"/>
      <point x="326" y="1331" type="line" smooth="yes"/>
      <point x="513" y="1331"/>
      <point x="551" y="1291"/>
      <point x="551" y="1102" type="curve" smooth="yes"/>
      <point x="551" y="936" type="line" smooth="yes"/>
      <point x="551" y="727"/>
      <point x="604" y="645"/>
      <point x="752" y="612" type="curve"/>
      <point x="604" y="576"/>
      <point x="551" y="495"/>
      <point x="551" y="287" type="curve" smooth="yes"/>
      <point x="551" y="121" type="line" smooth="yes"/>
      <point x="551" y="-70"/>
      <point x="513" y="-109"/>
      <point x="326" y="-109" type="curve" smooth="yes"/>
      <point x="256" y="-109" type="line"/>
    </contour>
  </outline>
</glyph>
<glyph name="asciitilde" format="2">
  <advance width="1716"/>
  <unicode hex="007E"/>
  <outline>
    <contour>
      <point x="217" y="434" type="line"/>
      <point x="348" y="545"/>
      <point x="458" y="594"/>
      <point x="575" y="594" type="curve" smooth="yes"/>
      <point x="638" y="594"/>
      <point x="721" y="574"/>
      <point x="824" y="533" type="curve" smooth="yes"/>
      <point x="834" y="529"/>
      <point x="841" y="526"/>
      <point x="846" y="524" type="curve"/>
      <point x="851" y="522"/>
      <point x="859" y="519"/>
      <point x="868" y="515" type="curve" smooth="yes"/>
      <point x="963" y="476"/>
      <point x="1047" y="457"/>
      <point x="1118" y="457" type="curve" smooth="yes"/>
      <point x="1246" y="457"/>
      <point x="1358" y="499"/>
      <point x="1499" y="606" type="curve"/>
      <point x="1499" y="850" type="line"/>
      <point x="1362" y="737"/>
      <point x="1256" y="690"/>
      <point x="1141" y="690" type="curve" smooth="yes"/>
      <point x="1078" y="690"/>
      <point x="995" y="710"/>
      <point x="892" y="751" type="curve" smooth="yes"/>
      <point x="882" y="755"/>
      <point x="875" y="758"/>
      <point x="870" y="760" type="curve" smooth="yes"/>
      <point x="865" y="762"/>
      <point x="858" y="765"/>
      <point x="848" y="769" type="curve" smooth="yes"/>
      <point x="753" y="808"/>
      <point x="669" y="827"/>
      <point x="598" y="827" type="curve" smooth="yes"/>
      <point x="470" y="827"/>
      <point x="360" y="785"/>
      <point x="217" y="678" type="curve"/>
    </contour>
  </outline>
</glyph>
<glyph name="exclamdown" format="2">
  <advance width="934"/>
  <unicode hex="00A1"/>
  <outline>
    <contour>
      <point x="287" y="-373" type="line"/>
      <point x="287" y="200" type="line"/>
      <point x="338" y="618" type="line"/>
      <point x="596" y="618" type="line"/>
      <point x="647" y="200" type="line"/>
      <point x="647" y="-373" type="line"/>
    </contour>
    <contour>
      <point x="287" y="764" type="line"/>
      <point x="287" y="1120" type="line"/>
      <point x="647" y="1120" type="line"/>
      <point x="647" y="764" type="line"/>
    </contour>
  </outline>
</glyph>
<glyph name="cent" format="2">
  <advance width="1425"/>
  <unicode hex="00A2"/>
  <outline>
    <contour>
      <point x="702" y="-313" type="line"/>
      <point x="864" y="-313" type="line"/>
      <point x="864" y="-29" type="line"/>
      <point x="874" y="-29" type="line" smooth="yes"/>
      <point x="951" y="-29"/>
      <point x="1050" y="-7"/>
      <point x="1161" y="33" type="curve"/>
      <point x="1161" y="326" type="line"/>
      <point x="1085" y="263"/>
      <point x="983" y="229"/>
      <point x="864" y="228" type="curve"/>
      <point x="864" y="891" type="line"/>
      <point x="879" y="891" type="line" smooth="yes"/>
      <point x="966" y="891"/>
      <point x="1062" y="857"/>
      <point x="1161" y="793" type="curve"/>
      <point x="1161" y="1085" type="line"/>
      <point x="1057" y="1122"/>
      <point x="960" y="1141"/>
      <point x="865" y="1145" type="curve"/>
      <point x="864" y="1432" type="line"/>
      <point x="702" y="1432" type="line"/>
      <point x="702" y="1145" type="line"/>
      <point x="358" y="1098"/>
      <point x="174" y="900"/>
      <point x="174" y="575" type="curve" smooth="yes"/>
      <point x="174" y="231"/>
      <point x="353" y="28"/>
      <point x="702" y="-25" type="curve"/>
    </contour>
    <contour>
      <point x="702" y="260" type="line"/>
      <point x="598" y="316"/>
      <point x="547" y="414"/>
      <point x="547" y="559" type="curve" smooth="yes"/>
      <point x="547" y="703"/>
      <point x="598" y="799"/>
      <point x="702" y="858" type="curve"/>
    </contour>
  </outline>
</glyph>
<glyph name="sterling" format="2">
  <advance width="1425"/>
  <unicode hex="00A3"/>
  <outline>
    <contour>
      <point x="125" y="0" type="line"/>
      <point x="1255" y="0" type="line"/>
      <point x="1255" y="266" type="line"/>
      <point x="717" y="266" type="line"/>
      <point x="717" y="592" type="line"/>
      <point x="1090" y="592" type="line"/>
      <point x="1090" y="831" type="line"/>
      <point x="717" y="831" type="line"/>
      <point x="717" y="1001" type="line" smooth="yes"/>
      <point x="717" y="1176"/>
      <point x="791" y="1257"/>
      <point x="948" y="1257" type="curve" smooth="yes"/>
      <point x="1051" y="1257"/>
      <point x="1150" y="1232"/>
      <point x="1243" y="1180" type="curve"/>
      <point x="1243" y="1466" type="line"/>
      <point x="1124" y="1502"/>
      <point x="1004" y="1520"/>
      <point x="881" y="1520" type="curve" smooth="yes"/>
      <point x="514" y="1520"/>
      <point x="352" y="1362"/>
      <point x="352" y="1001" type="curve" smooth="yes"/>
      <point x="352" y="831" type="line"/>
      <point x="158" y="831" type="line"/>
      <point x="158" y="592" type="line"/>
      <point x="352" y="592" type="line"/>
      <point x="352" y="266" type="line"/>
      <point x="125" y="266" type="line"/>
    </contour>
  </outline>
</glyph>
<glyph name="currency" format="2">
  <advance width="1303"/>
  <unicode hex="00A4"/>
  <outline>
    <contour>
      <point x="434" y="268" type="qcurve"/>
      <point x="227" y="61" type="line"/>
      <point x="74" y="215" type="line"/>
      <point x="281" y="422" type="line"/>
      <point x="253" y="471"/>
      <point x="225" y="578"/>
      <point x="225" y="641" type="qcurve" smooth="yes"/>
      <point x="225" y="704"/>
      <point x="255" y="812"/>
      <point x="285" y="858" type="qcurve"/>
      <point x="76" y="1063" type="line"/>
      <point x="229" y="1217" type="line"/>
      <point x="436" y="1010" type="line"/>
      <point x="484" y="1040"/>
      <point x="592" y="1069"/>
      <point x="653" y="1069" type="qcurve" smooth="yes"/>
      <point x="707" y="1069"/>
      <point x="815" y="1042"/>
      <point x="872" y="1014" type="qcurve"/>
      <point x="1079" y="1221" type="line"/>
      <point x="1231" y="1067" type="line"/>
      <point x="1024" y="860" type="line"/>
      <point x="1053" y="805"/>
      <point x="1081" y="695"/>
      <point x="1081" y="641" type="qcurve" smooth="yes"/>
      <point x="1081" y="578"/>
      <point x="1052" y="473"/>
      <point x="1022" y="426" type="qcurve"/>
      <point x="1229" y="219" type="line"/>
      <point x="1075" y="66" type="line"/>
      <point x="868" y="272" type="line"/>
      <point x="822" y="242"/>
      <point x="716" y="213"/>
      <point x="653" y="213" type="qcurve" smooth="yes"/>
      <point x="595" y="213"/>
      <point x="487" y="240"/>
    </contour>
    <contour>
      <point x="653" y="422" type="qcurve" smooth="yes"/>
      <point x="744" y="422"/>
      <point x="872" y="549"/>
      <point x="872" y="641" type="qcurve" smooth="yes"/>
      <point x="872" y="733"/>
      <point x="745" y="860"/>
      <point x="653" y="860" type="qcurve" smooth="yes"/>
      <point x="562" y="860"/>
      <point x="434" y="733"/>
      <point x="434" y="641" type="qcurve" smooth="yes"/>
      <point x="434" y="548"/>
      <point x="560" y="422"/>
    </contour>
  </outline>
</glyph>
<glyph name="yen" format="2">
  <advance width="1425"/>
  <unicode hex="00A5"/>
  <outline>
    <contour>
      <point x="522" y="0" type="line"/>
      <point x="903" y="0" type="line"/>
      <point x="903" y="416" type="line"/>
      <point x="1358" y="416" type="line"/>
      <point x="1358" y="610" type="line"/>
      <point x="903" y="610" type="line"/>
      <point x="903" y="676" type="line"/>
      <point x="952" y="762" type="line"/>
      <point x="1358" y="762" type="line"/>
      <point x="1358" y="954" type="line"/>
      <point x="1065" y="954" type="line"/>
      <point x="1401" y="1493" type="line"/>
      <point x="1001" y="1493" type="line"/>
      <point x="713" y="1032" type="line"/>
      <point x="424" y="1493" type="line"/>
      <point x="25" y="1493" type="line"/>
      <point x="360" y="954" type="line"/>
      <point x="68" y="954" type="line"/>
      <point x="68" y="762" type="line"/>
      <point x="473" y="762" type="line"/>
      <point x="522" y="676" type="line"/>
      <point x="522" y="610" type="line"/>
      <point x="68" y="610" type="line"/>
      <point x="68" y="416" type="line"/>
      <point x="522" y="416" type="line"/>
    </contour>
  </outline>
</glyph>
<glyph name="section" format="2">
  <advance width="1024"/>
  <unicode hex="00A7"/>
  <outline>
    <contour>
      <point x="483" y="-195" type="curve" smooth="yes"/>
      <point x="767" y="-195"/>
      <point x="938" y="-76"/>
      <point x="938" y="117" type="curve" smooth="yes"/>
      <point x="938" y="214"/>
      <point x="889" y="289"/>
      <point x="786" y="344" type="curve"/>
      <point x="942" y="408"/>
      <point x="1016" y="512"/>
      <point x="1016" y="668" type="curve" smooth="yes"/>
      <point x="1016" y="835"/>
      <point x="927" y="936"/>
      <point x="647" y="1055" type="curve" smooth="yes"/>
      <point x="638" y="1058"/>
      <point x="625" y="1064"/>
      <point x="608" y="1071" type="curve" smooth="yes"/>
      <point x="483" y="1124"/>
      <point x="420" y="1172"/>
      <point x="420" y="1217" type="curve" smooth="yes"/>
      <point x="420" y="1280"/>
      <point x="471" y="1313"/>
      <point x="571" y="1313" type="curve" smooth="yes"/>
      <point x="647" y="1313"/>
      <point x="753" y="1287"/>
      <point x="885" y="1235" type="curve"/>
      <point x="885" y="1462" type="line"/>
      <point x="761" y="1501"/>
      <point x="640" y="1520"/>
      <point x="528" y="1520" type="curve" smooth="yes"/>
      <point x="260" y="1520"/>
      <point x="98" y="1406"/>
      <point x="98" y="1214" type="curve" smooth="yes"/>
      <point x="98" y="1114"/>
      <point x="138" y="1045"/>
      <point x="238" y="977" type="curve"/>
      <point x="87" y="909"/>
      <point x="14" y="807"/>
      <point x="14" y="668" type="curve" smooth="yes"/>
      <point x="14" y="495"/>
      <point x="106" y="388"/>
      <point x="377" y="272" type="curve" smooth="yes"/>
      <point x="390" y="267"/>
      <point x="408" y="259"/>
      <point x="432" y="250" type="curve" smooth="yes"/>
      <point x="552" y="201"/>
      <point x="612" y="153"/>
      <point x="612" y="106" type="curve" smooth="yes"/>
      <point x="612" y="53"/>
      <point x="556" y="16"/>
      <point x="469" y="16" type="curve" smooth="yes"/>
      <point x="393" y="16"/>
      <point x="268" y="45"/>
      <point x="115" y="100" type="curve"/>
      <point x="115" y="-137" type="line"/>
      <point x="251" y="-176"/>
      <point x="370" y="-195"/>
    </contour>
    <contour>
      <point x="604" y="471" type="curve"/>
      <point x="483" y="515"/>
      <point x="402" y="553"/>
      <point x="361" y="586" type="curve" smooth="yes"/>
      <point x="320" y="619"/>
      <point x="299" y="657"/>
      <point x="299" y="702" type="curve" smooth="yes"/>
      <point x="299" y="769"/>
      <point x="343" y="819"/>
      <point x="434" y="856" type="curve"/>
      <point x="545" y="817"/>
      <point x="624" y="780"/>
      <point x="670" y="745" type="curve" smooth="yes"/>
      <point x="716" y="710"/>
      <point x="739" y="670"/>
      <point x="739" y="625" type="curve" smooth="yes"/>
      <point x="739" y="556"/>
      <point x="691" y="502"/>
    </contour>
  </outline>
</glyph>
<glyph name="dieresis" format="2">
  <advance width="1024"/>
  <unicode hex="00A8"/>
  <outline>
    <contour>
      <point x="592" y="1339" type="line"/>
      <point x="827" y="1339" type="line"/>
      <point x="827" y="1585" type="line"/>
      <point x="592" y="1585" type="line"/>
    </contour>
    <contour>
      <point x="197" y="1339" type="line"/>
      <point x="432" y="1339" type="line"/>
      <point x="432" y="1585" type="line"/>
      <point x="197" y="1585" type="line"/>
    </contour>
  </outline>
</glyph>
<glyph name="copyright" format="2">
  <advance width="2048"/>
  <unicode hex="00A9"/>
  <outline>
    <contour>
      <point x="1323" y="1126" type="qcurve"/>
      <point x="1323" y="911" type="line"/>
      <point x="1266" y="948"/>
      <point x="1155" y="983"/>
      <point x="1098" y="983" type="qcurve" smooth="yes"/>
      <point x="985" y="983"/>
      <point x="858" y="855"/>
      <point x="858" y="741" type="qcurve" smooth="yes"/>
      <point x="858" y="626"/>
      <point x="984" y="500"/>
      <point x="1098" y="500" type="qcurve" smooth="yes"/>
      <point x="1162" y="500"/>
      <point x="1277" y="536"/>
      <point x="1323" y="571" type="qcurve"/>
      <point x="1323" y="358" type="line"/>
      <point x="1258" y="336"/>
      <point x="1127" y="313"/>
      <point x="1065" y="313" type="qcurve" smooth="yes"/>
      <point x="854" y="313"/>
      <point x="600" y="547"/>
      <point x="600" y="741" type="qcurve" smooth="yes"/>
      <point x="600" y="936"/>
      <point x="854" y="1169"/>
      <point x="1065" y="1169" type="qcurve" smooth="yes"/>
      <point x="1134" y="1169"/>
      <point x="1262" y="1148"/>
    </contour>
    <contour>
      <point x="1024" y="1331" type="qcurve" smooth="yes"/>
      <point x="903" y="1331"/>
      <point x="695" y="1244"/>
      <point x="608" y="1157" type="qcurve" smooth="yes"/>
      <point x="521" y="1070"/>
      <point x="434" y="863"/>
      <point x="434" y="741" type="qcurve" smooth="yes"/>
      <point x="434" y="620"/>
      <point x="521" y="413"/>
      <point x="608" y="326" type="qcurve" smooth="yes"/>
      <point x="694" y="240"/>
      <point x="903" y="154"/>
      <point x="1024" y="154" type="qcurve" smooth="yes"/>
      <point x="1147" y="154"/>
      <point x="1353" y="239"/>
      <point x="1440" y="326" type="qcurve" smooth="yes"/>
      <point x="1527" y="413"/>
      <point x="1614" y="620"/>
      <point x="1614" y="741" type="qcurve" smooth="yes"/>
      <point x="1614" y="863"/>
      <point x="1527" y="1070"/>
      <point x="1440" y="1157" type="qcurve" smooth="yes"/>
      <point x="1352" y="1245"/>
      <point x="1145" y="1331"/>
    </contour>
    <contour>
      <point x="1024" y="1485" type="qcurve" smooth="yes"/>
      <point x="1176" y="1485"/>
      <point x="1439" y="1375"/>
      <point x="1548" y="1266" type="qcurve" smooth="yes"/>
      <point x="1657" y="1157"/>
      <point x="1765" y="895"/>
      <point x="1765" y="741" type="qcurve" smooth="yes"/>
      <point x="1765" y="589"/>
      <point x="1657" y="328"/>
      <point x="1548" y="219" type="qcurve" smooth="yes"/>
      <point x="1439" y="110"/>
      <point x="1176" y="0"/>
      <point x="1024" y="0" type="qcurve" smooth="yes"/>
      <point x="872" y="0"/>
      <point x="609" y="110"/>
      <point x="500" y="219" type="qcurve" smooth="yes"/>
      <point x="391" y="328"/>
      <point x="283" y="589"/>
      <point x="283" y="741" type="qcurve" smooth="yes"/>
      <point x="283" y="895"/>
      <point x="391" y="1157"/>
      <point x="500" y="1266" type="qcurve" smooth="yes"/>
      <point x="609" y="1375"/>
      <point x="872" y="1485"/>
    </contour>
  </outline>
</glyph>
<glyph name="ordfeminine" format="2">
  <advance width="1155"/>
  <unicode hex="00AA"/>
  <outline>
    <contour>
      <point x="467" y="696" type="curve" smooth="yes"/>
      <point x="592" y="696"/>
      <point x="683" y="743"/>
      <point x="756" y="844" type="curve"/>
      <point x="756" y="717" type="line"/>
      <point x="1001" y="717" type="line"/>
      <point x="1001" y="1165" type="line" smooth="yes"/>
      <point x="1001" y="1405"/>
      <point x="860" y="1520"/>
      <point x="561" y="1520" type="curve" smooth="yes"/>
      <point x="461" y="1520"/>
      <point x="348" y="1501"/>
      <point x="225" y="1464" type="curve"/>
      <point x="225" y="1284" type="line"/>
      <point x="330" y="1331"/>
      <point x="441" y="1354"/>
      <point x="557" y="1354" type="curve" smooth="yes"/>
      <point x="670" y="1354"/>
      <point x="731" y="1314"/>
      <point x="731" y="1239" type="curve" smooth="yes"/>
      <point x="731" y="1219" type="line"/>
      <point x="594" y="1219" type="line" smooth="yes"/>
      <point x="293" y="1219"/>
      <point x="158" y="1134"/>
      <point x="158" y="946" type="curve" smooth="yes"/>
      <point x="158" y="791"/>
      <point x="274" y="696"/>
    </contour>
    <contour>
      <point x="176" y="373" type="line"/>
      <point x="989" y="373" type="line"/>
      <point x="989" y="573" type="line"/>
      <point x="176" y="573" type="line"/>
    </contour>
    <contour>
      <point x="530" y="858" type="curve" smooth="yes"/>
      <point x="453" y="858"/>
      <point x="406" y="899"/>
      <point x="406" y="967" type="curve" smooth="yes"/>
      <point x="406" y="1008"/>
      <point x="423" y="1038"/>
      <point x="458" y="1055" type="curve" smooth="yes"/>
      <point x="493" y="1072"/>
      <point x="554" y="1081"/>
      <point x="643" y="1081" type="curve" smooth="yes"/>
      <point x="733" y="1081" type="line"/>
      <point x="733" y="1059" type="line" smooth="yes"/>
      <point x="733" y="943"/>
      <point x="649" y="858"/>
    </contour>
  </outline>
</glyph>
<glyph name="guillemotleft" format="2">
  <advance width="1323"/>
  <unicode hex="00AB"/>
  <outline>
    <contour>
      <point x="1130" y="137" type="line"/>
      <point x="1130" y="379" type="line"/>
      <point x="838" y="600" type="line"/>
      <point x="1130" y="821" type="line"/>
      <point x="1130" y="1063" type="line"/>
      <point x="637" y="692" type="line"/>
      <point x="637" y="506" type="line"/>
    </contour>
    <contour>
      <point x="651" y="137" type="line"/>
      <point x="651" y="379" type="line"/>
      <point x="358" y="600" type="line"/>
      <point x="651" y="821" type="line"/>
      <point x="651" y="1063" type="line"/>
      <point x="158" y="692" type="line"/>
      <point x="158" y="506" type="line"/>
    </contour>
  </outline>
</glyph>
<glyph name="sfthyphen" format="2">
  <advance width="850"/>
  <unicode hex="00AD"/>
  <outline>
    <contour>
      <point x="111" y="444" type="line"/>
      <point x="739" y="444" type="line"/>
      <point x="739" y="735" type="line"/>
      <point x="111" y="735" type="line"/>
    </contour>
  </outline>
</glyph>
<glyph name="registered" format="2">
  <advance width="2048"/>
  <unicode hex="00AE"/>
  <outline>
    <contour>
      <point x="1024" y="0" type="curve" smooth="yes"/>
      <point x="1227" y="0"/>
      <point x="1403" y="74"/>
      <point x="1548" y="219" type="curve" smooth="yes"/>
      <point x="1693" y="364"/>
      <point x="1765" y="538"/>
      <point x="1765" y="741" type="curve" smooth="yes"/>
      <point x="1765" y="946"/>
      <point x="1693" y="1121"/>
      <point x="1548" y="1266" type="curve" smooth="yes"/>
      <point x="1403" y="1411"/>
      <point x="1227" y="1485"/>
      <point x="1024" y="1485" type="curve" smooth="yes"/>
      <point x="821" y="1485"/>
      <point x="645" y="1411"/>
      <point x="500" y="1266" type="curve" smooth="yes"/>
      <point x="355" y="1121"/>
      <point x="283" y="946"/>
      <point x="283" y="741" type="curve" smooth="yes"/>
      <point x="283" y="538"/>
      <point x="355" y="364"/>
      <point x="500" y="219" type="curve" smooth="yes"/>
      <point x="645" y="74"/>
      <point x="821" y="0"/>
    </contour>
    <contour>
      <point x="1024" y="154" type="curve" smooth="yes"/>
      <point x="863" y="154"/>
      <point x="723" y="211"/>
      <point x="608" y="326" type="curve" smooth="yes"/>
      <point x="492" y="442"/>
      <point x="434" y="580"/>
      <point x="434" y="741" type="curve" smooth="yes"/>
      <point x="434" y="904"/>
      <point x="492" y="1041"/>
      <point x="608" y="1157" type="curve" smooth="yes"/>
      <point x="724" y="1273"/>
      <point x="863" y="1331"/>
      <point x="1024" y="1331" type="curve" smooth="yes"/>
      <point x="1185" y="1331"/>
      <point x="1323" y="1274"/>
      <point x="1440" y="1157" type="curve" smooth="yes"/>
      <point x="1556" y="1041"/>
      <point x="1614" y="904"/>
      <point x="1614" y="741" type="curve" smooth="yes"/>
      <point x="1614" y="580"/>
      <point x="1556" y="442"/>
      <point x="1440" y="326" type="curve" smooth="yes"/>
      <point x="1324" y="210"/>
      <point x="1188" y="154"/>
    </contour>
    <contour>
      <point x="719" y="338" type="line"/>
      <point x="932" y="338" type="line"/>
      <point x="932" y="694" type="line"/>
      <point x="944" y="694" type="line" smooth="yes"/>
      <point x="963" y="694"/>
      <point x="983" y="683"/>
      <point x="1002" y="662" type="curve" smooth="yes"/>
      <point x="1021" y="640"/>
      <point x="1044" y="603"/>
      <point x="1069" y="551" type="curve" smooth="yes"/>
      <point x="1176" y="338" type="line"/>
      <point x="1405" y="338" type="line"/>
      <point x="1294" y="559" type="line" smooth="yes"/>
      <point x="1255" y="636"/>
      <point x="1208" y="690"/>
      <point x="1153" y="719" type="curve"/>
      <point x="1281" y="742"/>
      <point x="1354" y="819"/>
      <point x="1354" y="934" type="curve" smooth="yes"/>
      <point x="1354" y="1095"/>
      <point x="1239" y="1174"/>
      <point x="1004" y="1174" type="curve" smooth="yes"/>
      <point x="719" y="1174" type="line"/>
    </contour>
    <contour>
      <point x="932" y="829" type="line"/>
      <point x="932" y="1036" type="line"/>
      <point x="967" y="1036" type="line" smooth="yes"/>
      <point x="1074" y="1036"/>
      <point x="1124" y="1003"/>
      <point x="1124" y="934" type="curve" smooth="yes"/>
      <point x="1124" y="865"/>
      <point x="1071" y="829"/>
      <point x="967" y="829" type="curve" smooth="yes"/>
    </contour>
  </outline>
</glyph>
<glyph name="degree" format="2">
  <advance width="1024"/>
  <unicode hex="00B0"/>
  <outline>
    <contour>
      <point x="510" y="868" type="curve" smooth="yes"/>
      <point x="601" y="868"/>
      <point x="686" y="903"/>
      <point x="750" y="967" type="curve" smooth="yes"/>
      <point x="810" y="1027"/>
      <point x="844" y="1111"/>
      <point x="844" y="1200" type="curve" smooth="yes"/>
      <point x="844" y="1291"/>
      <point x="811" y="1372"/>
      <point x="748" y="1436" type="curve" smooth="yes"/>
      <point x="684" y="1499"/>
      <point x="600" y="1534"/>
      <point x="512" y="1534" type="curve" smooth="yes"/>
      <point x="324" y="1534"/>
      <point x="178" y="1388"/>
      <point x="178" y="1200" type="curve" smooth="yes"/>
      <point x="178" y="1012"/>
      <point x="322" y="868"/>
    </contour>
    <contour>
      <point x="512" y="1030" type="curve" smooth="yes"/>
      <point x="415" y="1030"/>
      <point x="340" y="1104"/>
      <point x="340" y="1200" type="curve" smooth="yes"/>
      <point x="340" y="1296"/>
      <point x="416" y="1372"/>
      <point x="512" y="1372" type="curve" smooth="yes"/>
      <point x="607" y="1372"/>
      <point x="684" y="1296"/>
      <point x="684" y="1200" type="curve" smooth="yes"/>
      <point x="684" y="1105"/>
      <point x="608" y="1030"/>
    </contour>
  </outline>
</glyph>
<glyph name="plusminus" format="2">
  <advance width="1716"/>
  <unicode hex="00B1"/>
  <outline>
    <contour>
      <point x="977" y="1284" type="line"/>
      <point x="977" y="930" type="line"/>
      <point x="1499" y="930" type="line"/>
      <point x="1499" y="694" type="line"/>
      <point x="977" y="694" type="line"/>
      <point x="977" y="340" type="line"/>
      <point x="739" y="340" type="line"/>
      <point x="739" y="694" type="line"/>
      <point x="217" y="694" type="line"/>
      <point x="217" y="930" type="line"/>
      <point x="739" y="930" type="line"/>
      <point x="739" y="1284" type="line"/>
    </contour>
    <contour>
      <point x="217" y="238" type="line"/>
      <point x="1499" y="238" type="line"/>
      <point x="1499" y="0" type="line"/>
      <point x="217" y="0" type="line"/>
    </contour>
  </outline>
</glyph>
<glyph name="twosuperior" format="2">
  <advance width="897"/>
  <unicode hex="00B2"/>
  <outline>
    <contour>
      <point x="109" y="668" type="line"/>
      <point x="782" y="668" type="line"/>
      <point x="782" y="836" type="line"/>
      <point x="412" y="836" type="line"/>
      <point x="606" y="1001" type="line" smooth="yes"/>
      <point x="741" y="1116"/>
      <point x="778" y="1184"/>
      <point x="778" y="1280" type="curve" smooth="yes"/>
      <point x="778" y="1428"/>
      <point x="651" y="1520"/>
      <point x="440" y="1520" type="curve" smooth="yes"/>
      <point x="340" y="1520"/>
      <point x="231" y="1502"/>
      <point x="115" y="1466" type="curve"/>
      <point x="115" y="1280" type="line"/>
      <point x="227" y="1343"/>
      <point x="320" y="1372"/>
      <point x="403" y="1372" type="curve" smooth="yes"/>
      <point x="482" y="1372"/>
      <point x="535" y="1327"/>
      <point x="535" y="1260" type="curve" smooth="yes"/>
      <point x="535" y="1207"/>
      <point x="503" y="1158"/>
      <point x="422" y="1087" type="curve" smooth="yes"/>
      <point x="109" y="821" type="line"/>
    </contour>
  </outline>
</glyph>
<glyph name="threesuperior" format="2">
  <advance width="897"/>
  <unicode hex="00B3"/>
  <outline>
    <contour>
      <point x="592" y="1120" type="qcurve"/>
      <point x="684" y="1102"/>
      <point x="786" y="992"/>
      <point x="786" y="911" type="qcurve" smooth="yes"/>
      <point x="786" y="782"/>
      <point x="588" y="653"/>
      <point x="387" y="653" type="qcurve" smooth="yes"/>
      <point x="306" y="653"/>
      <point x="158" y="676"/>
      <point x="90" y="698" type="qcurve"/>
      <point x="90" y="872" type="line"/>
      <point x="156" y="836"/>
      <point x="284" y="799"/>
      <point x="344" y="799" type="qcurve" smooth="yes"/>
      <point x="439" y="799"/>
      <point x="543" y="863"/>
      <point x="543" y="922" type="qcurve" smooth="yes"/>
      <point x="543" y="986"/>
      <point x="436" y="1047"/>
      <point x="322" y="1047" type="qcurve" smooth="yes"/>
      <point x="248" y="1047" type="line"/>
      <point x="248" y="1184" type="line"/>
      <point x="332" y="1184" type="line" smooth="yes"/>
      <point x="430" y="1184"/>
      <point x="520" y="1231"/>
      <point x="520" y="1282" type="qcurve" smooth="yes"/>
      <point x="520" y="1327"/>
      <point x="442" y="1372"/>
      <point x="362" y="1372" type="qcurve" smooth="yes"/>
      <point x="310" y="1372"/>
      <point x="187" y="1346"/>
      <point x="117" y="1319" type="qcurve"/>
      <point x="117" y="1485" type="line"/>
      <point x="182" y="1502"/>
      <point x="333" y="1520"/>
      <point x="420" y="1520" type="qcurve" smooth="yes"/>
      <point x="587" y="1520"/>
      <point x="764" y="1408"/>
      <point x="764" y="1303" type="qcurve" smooth="yes"/>
      <point x="764" y="1234"/>
      <point x="674" y="1138"/>
    </contour>
  </outline>
</glyph>
<glyph name="acute" format="2">
  <advance width="1024"/>
  <unicode hex="00B4"/>
  <outline>
    <contour>
      <point x="647" y="1638" type="line"/>
      <point x="930" y="1638" type="line"/>
      <point x="561" y="1262" type="line"/>
      <point x="365" y="1262" type="line"/>
    </contour>
  </outline>
</glyph>
<glyph name="mu" format="2">
  <advance width="1507"/>
  <unicode hex="00B5"/>
  <outline>
    <contour>
      <point x="174" y="-428" type="line"/>
      <point x="535" y="-428" type="line"/>
      <point x="535" y="66" type="line"/>
      <point x="575" y="2"/>
      <point x="644" y="-29"/>
      <point x="743" y="-29" type="curve" smooth="yes"/>
      <point x="862" y="-29"/>
      <point x="951" y="24"/>
      <point x="1014" y="129" type="curve"/>
      <point x="1061" y="18"/>
      <point x="1132" y="-29"/>
      <point x="1251" y="-29" type="curve" smooth="yes"/>
      <point x="1311" y="-29"/>
      <point x="1371" y="-15"/>
      <point x="1442" y="16" type="curve"/>
      <point x="1442" y="266" type="line"/>
      <point x="1417" y="250"/>
      <point x="1396" y="244"/>
      <point x="1372" y="244" type="curve" smooth="yes"/>
      <point x="1320" y="244"/>
      <point x="1300" y="276"/>
      <point x="1300" y="371" type="curve" smooth="yes"/>
      <point x="1300" y="1120" type="line"/>
      <point x="940" y="1120" type="line"/>
      <point x="940" y="469" type="line" smooth="yes"/>
      <point x="940" y="314"/>
      <point x="874" y="240"/>
      <point x="737" y="240" type="curve" smooth="yes"/>
      <point x="601" y="240"/>
      <point x="535" y="314"/>
      <point x="535" y="469" type="curve" smooth="yes"/>
      <point x="535" y="1120" type="line"/>
      <point x="174" y="1120" type="line"/>
    </contour>
  </outline>
</glyph>
<glyph name="paragraph" format="2">
  <advance width="1303"/>
  <unicode hex="00B6"/>
  <outline>
    <contour>
      <point x="555" y="-197" type="line"/>
      <point x="745" y="-197" type="line"/>
      <point x="745" y="1346" type="line"/>
      <point x="934" y="1346" type="line"/>
      <point x="934" y="-197" type="line"/>
      <point x="1124" y="-197" type="line"/>
      <point x="1124" y="1493" type="line"/>
      <point x="604" y="1493" type="line" smooth="yes"/>
      <point x="317" y="1493"/>
      <point x="129" y="1324"/>
      <point x="129" y="1071" type="curve" smooth="yes"/>
      <point x="129" y="834"/>
      <point x="283" y="682"/>
      <point x="555" y="649" type="curve"/>
    </contour>
  </outline>
</glyph>
<glyph name="periodcentered" format="2">
  <advance width="778"/>
  <unicode hex="00B7"/>
  <outline>
    <contour>
      <point x="209" y="905" type="line"/>
      <point x="569" y="905" type="line"/>
      <point x="569" y="518" type="line"/>
      <point x="209" y="518" type="line"/>
    </contour>
  </outline>
</glyph>
<glyph name="cedilla" format="2">
  <advance width="1024"/>
  <unicode hex="00B8"/>
  <outline>
    <contour>
      <point x="465" y="-401" type="curve" smooth="yes"/>
      <point x="634" y="-401"/>
      <point x="715" y="-342"/>
      <point x="715" y="-215" type="curve" smooth="yes"/>
      <point x="715" y="-152"/>
      <point x="679" y="-83"/>
      <point x="602" y="0" type="curve"/>
      <point x="463" y="0" type="line"/>
      <point x="523" y="-80"/>
      <point x="551" y="-133"/>
      <point x="551" y="-168" type="curve" smooth="yes"/>
      <point x="551" y="-221"/>
      <point x="505" y="-254"/>
      <point x="428" y="-254" type="curve" smooth="yes"/>
      <point x="384" y="-254"/>
      <point x="329" y="-244"/>
      <point x="262" y="-223" type="curve"/>
      <point x="263" y="-375" type="line"/>
      <point x="332" y="-392"/>
      <point x="401" y="-401"/>
    </contour>
  </outline>
</glyph>
<glyph name="onesuperior" format="2">
  <advance width="897"/>
  <unicode hex="00B9"/>
  <outline>
    <contour>
      <point x="141" y="668" type="line"/>
      <point x="782" y="668" type="line"/>
      <point x="782" y="825" type="line"/>
      <point x="578" y="825" type="line"/>
      <point x="578" y="1503" type="line"/>
      <point x="352" y="1503" type="line"/>
      <point x="123" y="1454" type="line"/>
      <point x="123" y="1294" type="line"/>
      <point x="348" y="1346" type="line"/>
      <point x="348" y="825" type="line"/>
      <point x="141" y="825" type="line"/>
    </contour>
  </outline>
</glyph>
<glyph name="ordmasculine" format="2">
  <advance width="1155"/>
  <unicode hex="00BA"/>
  <outline>
    <contour>
      <point x="578" y="1520" type="qcurve" smooth="yes"/>
      <point x="791" y="1520"/>
      <point x="1038" y="1298"/>
      <point x="1038" y="1108" type="qcurve" smooth="yes"/>
      <point x="1038" y="918"/>
      <point x="792" y="698"/>
      <point x="578" y="698" type="qcurve" smooth="yes"/>
      <point x="364" y="698"/>
      <point x="117" y="918"/>
      <point x="117" y="1108" type="qcurve" smooth="yes"/>
      <point x="117" y="1298"/>
      <point x="364" y="1520"/>
    </contour>
    <contour>
      <point x="166" y="573" type="line"/>
      <point x="989" y="573" type="line"/>
      <point x="989" y="373" type="line"/>
      <point x="166" y="373" type="line"/>
    </contour>
    <contour>
      <point x="578" y="1350" type="qcurve" smooth="yes"/>
      <point x="494" y="1350"/>
      <point x="403" y="1224"/>
      <point x="403" y="1108" type="qcurve" smooth="yes"/>
      <point x="403" y="992"/>
      <point x="494" y="868"/>
      <point x="578" y="868" type="qcurve" smooth="yes"/>
      <point x="661" y="868"/>
      <point x="752" y="992"/>
      <point x="752" y="1108" type="qcurve" smooth="yes"/>
      <point x="752" y="1224"/>
      <point x="661" y="1350"/>
    </contour>
  </outline>
</glyph>
<glyph name="guillemotright" format="2">
  <advance width="1323"/>
  <unicode hex="00BB"/>
  <outline>
    <contour>
      <point x="672" y="1063" type="line"/>
      <point x="1165" y="692" type="line"/>
      <point x="1165" y="506" type="line"/>
      <point x="672" y="137" type="line"/>
      <point x="672" y="379" type="line"/>
      <point x="965" y="600" type="line"/>
      <point x="672" y="821" type="line"/>
    </contour>
    <contour>
      <point x="193" y="1063" type="line"/>
      <point x="684" y="692" type="line"/>
      <point x="684" y="506" type="line"/>
      <point x="193" y="137" type="line"/>
      <point x="193" y="379" type="line"/>
      <point x="485" y="600" type="line"/>
      <point x="193" y="821" type="line"/>
    </contour>
  </outline>
</glyph>
<glyph name="questiondown" format="2">
  <advance width="1188"/>
  <unicode hex="00BF"/>
  <outline>
    <contour>
      <point x="641" y="-402" type="curve" smooth="yes"/>
      <point x="764" y="-402"/>
      <point x="896" y="-376"/>
      <point x="1055" y="-320" type="curve"/>
      <point x="1055" y="-6" type="line"/>
      <point x="920" y="-94"/>
      <point x="792" y="-140"/>
      <point x="684" y="-140" type="curve" smooth="yes"/>
      <point x="569" y="-140"/>
      <point x="502" y="-83"/>
      <point x="502" y="10" type="curve" smooth="yes"/>
      <point x="502" y="73"/>
      <point x="535" y="132"/>
      <point x="610" y="200" type="curve" smooth="yes"/>
      <point x="674" y="258" type="line" smooth="yes"/>
      <point x="819" y="391"/>
      <point x="848" y="457"/>
      <point x="848" y="565" type="curve" smooth="yes"/>
      <point x="848" y="614" type="line"/>
      <point x="487" y="614" type="line"/>
      <point x="487" y="569" type="line" smooth="yes"/>
      <point x="487" y="509"/>
      <point x="468" y="468"/>
      <point x="377" y="387" type="curve" smooth="yes"/>
      <point x="313" y="329" type="line" smooth="yes"/>
      <point x="188" y="212"/>
      <point x="141" y="119"/>
      <point x="141" y="-13" type="curve" smooth="yes"/>
      <point x="141" y="-266"/>
      <point x="316" y="-402"/>
    </contour>
    <contour>
      <point x="487" y="764" type="line"/>
      <point x="848" y="764" type="line"/>
      <point x="848" y="1120" type="line"/>
      <point x="487" y="1120" type="line"/>
    </contour>
  </outline>
</glyph>
<glyph name="Aring" format="2">
  <advance width="1585"/>
  <unicode hex="00C5"/>
  <outline>
    <contour>
      <point x="1032" y="1464" type="qcurve"/>
      <point x="1575" y="0" type="line"/>
      <point x="1188" y="0" type="line"/>
      <point x="1094" y="272" type="line"/>
      <point x="492" y="272" type="line"/>
      <point x="397" y="0" type="line"/>
      <point x="10" y="0" type="line"/>
      <point x="553" y="1464" type="line"/>
      <point x="530" y="1498"/>
      <point x="508" y="1573"/>
      <point x="508" y="1616" type="qcurve" smooth="yes"/>
      <point x="508" y="1733"/>
      <point x="675" y="1901"/>
      <point x="793" y="1901" type="qcurve" smooth="yes"/>
      <point x="909" y="1901"/>
      <point x="1077" y="1733"/>
      <point x="1077" y="1616" type="qcurve" smooth="yes"/>
      <point x="1077" y="1569"/>
      <point x="1055" y="1493"/>
    </contour>
    <contour>
      <point x="662" y="1616" type="qcurve" smooth="yes"/>
      <point x="662" y="1562"/>
      <point x="739" y="1485"/>
      <point x="793" y="1485" type="qcurve" smooth="yes"/>
      <point x="847" y="1485"/>
      <point x="924" y="1562"/>
      <point x="924" y="1616" type="qcurve" smooth="yes"/>
      <point x="924" y="1670"/>
      <point x="846" y="1747"/>
      <point x="793" y="1747" type="qcurve" smooth="yes"/>
      <point x="739" y="1747"/>
      <point x="662" y="1670"/>
    </contour>
    <contour>
      <point x="588" y="549" type="line"/>
      <point x="997" y="549" type="line"/>
      <point x="793" y="1143" type="line"/>
    </contour>
  </outline>
</glyph>
<glyph name="AE" format="2">
  <advance width="2222"/>
  <unicode hex="00C6"/>
  <outline>
    <contour>
      <point x="891" y="1237" type="line"/>
      <point x="635" y="627" type="line"/>
      <point x="1012" y="627" type="line"/>
      <point x="1012" y="1237" type="line"/>
    </contour>
    <contour>
      <point x="625" y="1493" type="line"/>
      <point x="2050" y="1493" type="line"/>
      <point x="2050" y="1202" type="line"/>
      <point x="1397" y="1202" type="line"/>
      <point x="1397" y="924" type="line"/>
      <point x="2011" y="924" type="line"/>
      <point x="2011" y="633" type="line"/>
      <point x="1397" y="633" type="line"/>
      <point x="1397" y="291" type="line"/>
      <point x="2073" y="291" type="line"/>
      <point x="2073" y="0" type="line"/>
      <point x="1012" y="0" type="line"/>
      <point x="1012" y="350" type="line"/>
      <point x="518" y="350" type="line"/>
      <point x="371" y="0" type="line"/>
      <point x="0" y="0" type="line"/>
    </contour>
  </outline>
</glyph>
<glyph name="Eth" format="2">
  <advance width="1716"/>
  <unicode hex="00D0"/>
  <outline>
    <contour>
      <point x="592" y="1202" type="line"/>
      <point x="592" y="881" type="line"/>
      <point x="827" y="881" type="line"/>
      <point x="827" y="621" type="line"/>
      <point x="592" y="621" type="line"/>
      <point x="592" y="291" type="line"/>
      <point x="729" y="291" type="line" smooth="yes"/>
      <point x="965" y="291"/>
      <point x="1214" y="525"/>
      <point x="1214" y="748" type="qcurve" smooth="yes"/>
      <point x="1214" y="970"/>
      <point x="966" y="1202"/>
      <point x="729" y="1202" type="qcurve" smooth="yes"/>
    </contour>
    <contour>
      <point x="207" y="1493" type="line"/>
      <point x="612" y="1493" type="line" smooth="yes"/>
      <point x="953" y="1493"/>
      <point x="1285" y="1396"/>
      <point x="1405" y="1280" type="qcurve" smooth="yes"/>
      <point x="1509" y="1179"/>
      <point x="1612" y="915"/>
      <point x="1612" y="748" type="qcurve" smooth="yes"/>
      <point x="1612" y="579"/>
      <point x="1509" y="314"/>
      <point x="1405" y="213" type="qcurve" smooth="yes"/>
      <point x="1284" y="97"/>
      <point x="948" y="0"/>
      <point x="612" y="0" type="qcurve" smooth="yes"/>
      <point x="207" y="0" type="line"/>
      <point x="207" y="621" type="line"/>
      <point x="33" y="621" type="line"/>
      <point x="33" y="881" type="line"/>
      <point x="207" y="881" type="line"/>
    </contour>
  </outline>
</glyph>
<glyph name="multiply" format="2">
  <advance width="1716"/>
  <unicode hex="00D7"/>
  <outline>
    <contour>
      <point x="1460" y="1075" type="line"/>
      <point x="1026" y="641" type="line"/>
      <point x="1460" y="209" type="line"/>
      <point x="1292" y="41" type="line"/>
      <point x="858" y="473" type="line"/>
      <point x="424" y="41" type="line"/>
      <point x="256" y="209" type="line"/>
      <point x="690" y="641" type="line"/>
      <point x="256" y="1075" type="line"/>
      <point x="424" y="1243" type="line"/>
      <point x="858" y="809" type="line"/>
      <point x="1292" y="1243" type="line"/>
    </contour>
  </outline>
</glyph>
<glyph name="Oslash" format="2">
  <advance width="1741"/>
  <unicode hex="00D8"/>
  <anchor x="870" y="0" name="cedilla"/>
  <anchor x="870" y="0" name="below"/>
  <anchor x="0" y="1520" name="half"/>
  <anchor x="870" y="1520" name="above"/>
  <anchor x="870" y="0" name="ogonek"/>
  <outline>
    <contour>
      <point x="158" y="-74" type="line"/>
      <point x="360" y="129" type="line"/>
      <point x="496" y="24"/>
      <point x="666" y="-29"/>
      <point x="870" y="-29" type="curve" smooth="yes"/>
      <point x="1350" y="-29"/>
      <point x="1638" y="262"/>
      <point x="1638" y="745" type="curve" smooth="yes"/>
      <point x="1638" y="950"/>
      <point x="1588" y="1121"/>
      <point x="1485" y="1253" type="curve"/>
      <point x="1686" y="1452" type="line"/>
      <point x="1573" y="1567" type="line"/>
      <point x="1374" y="1368" type="line"/>
      <point x="1238" y="1471"/>
      <point x="1075" y="1520"/>
      <point x="870" y="1520" type="curve" smooth="yes"/>
      <point x="391" y="1520"/>
      <point x="102" y="1229"/>
      <point x="102" y="745" type="curve" smooth="yes"/>
      <point x="102" y="544"/>
      <point x="151" y="377"/>
      <point x="250" y="244" type="curve"/>
      <point x="45" y="39" type="line"/>
    </contour>
    <contour>
      <point x="870" y="250" type="curve" smooth="yes"/>
      <point x="759" y="250"/>
      <point x="673" y="288"/>
      <point x="604" y="371" type="curve"/>
      <point x="1210" y="979" type="line"/>
      <point x="1231" y="914"/>
      <point x="1241" y="836"/>
      <point x="1241" y="745" type="curve" smooth="yes"/>
      <point x="1241" y="432"/>
      <point x="1106" y="250"/>
    </contour>
    <contour>
      <point x="528" y="522" type="line"/>
      <point x="509" y="583"/>
      <point x="500" y="660"/>
      <point x="500" y="745" type="curve" smooth="yes"/>
      <point x="500" y="1060"/>
      <point x="635" y="1241"/>
      <point x="870" y="1241" type="curve" smooth="yes"/>
      <point x="979" y="1241"/>
      <point x="1065" y="1203"/>
      <point x="1133" y="1126" type="curve"/>
    </contour>
  </outline>
</glyph>
<glyph name="Thorn" format="2">
  <advance width="1511"/>
  <unicode hex="00DE"/>
  <outline>
    <contour>
      <point x="188" y="0" type="line"/>
      <point x="573" y="0" type="line"/>
      <point x="573" y="258" type="line"/>
      <point x="827" y="258" type="line" smooth="yes"/>
      <point x="1207" y="258"/>
      <point x="1417" y="433"/>
      <point x="1417" y="745" type="curve" smooth="yes"/>
      <point x="1417" y="1058"/>
      <point x="1207" y="1233"/>
      <point x="827" y="1233" type="curve" smooth="yes"/>
      <point x="573" y="1233" type="line"/>
      <point x="573" y="1493" type="line"/>
      <point x="188" y="1493" type="line"/>
    </contour>
    <contour>
      <point x="573" y="537" type="line"/>
      <point x="573" y="956" type="line"/>
      <point x="786" y="956" type="line" smooth="yes"/>
      <point x="935" y="956"/>
      <point x="1020" y="880"/>
      <point x="1020" y="745" type="curve" smooth="yes"/>
      <point x="1020" y="613"/>
      <point x="935" y="537"/>
      <point x="786" y="537" type="curve" smooth="yes"/>
    </contour>
  </outline>
</glyph>
<glyph name="germandbls" format="2">
  <advance width="1473"/>
  <unicode hex="00DF"/>
  <outline>
    <contour>
      <point x="924" y="-29" type="curve" smooth="yes"/>
      <point x="1232" y="-29"/>
      <point x="1384" y="96"/>
      <point x="1384" y="348" type="curve" smooth="yes"/>
      <point x="1384" y="504"/>
      <point x="1316" y="613"/>
      <point x="1161" y="698" type="curve" smooth="yes"/>
      <point x="1092" y="735" type="line" smooth="yes"/>
      <point x="1030" y="770"/>
      <point x="991" y="797"/>
      <point x="975" y="816" type="curve" smooth="yes"/>
      <point x="958" y="835"/>
      <point x="950" y="856"/>
      <point x="950" y="881" type="curve" smooth="yes"/>
      <point x="950" y="980"/>
      <point x="1044" y="1030"/>
      <point x="1245" y="1043" type="curve"/>
      <point x="1245" y="1114" type="line" smooth="yes"/>
      <point x="1245" y="1405"/>
      <point x="1064" y="1556"/>
      <point x="715" y="1556" type="curve" smooth="yes"/>
      <point x="351" y="1556"/>
      <point x="172" y="1410"/>
      <point x="172" y="1114" type="curve" smooth="yes"/>
      <point x="172" y="0" type="line"/>
      <point x="530" y="0" type="line"/>
      <point x="530" y="1100" type="line" smooth="yes"/>
      <point x="530" y="1245"/>
      <point x="598" y="1319"/>
      <point x="733" y="1319" type="curve" smooth="yes"/>
      <point x="854" y="1319"/>
      <point x="920" y="1258"/>
      <point x="921" y="1145" type="curve"/>
      <point x="728" y="1078"/>
      <point x="637" y="976"/>
      <point x="637" y="821" type="curve" smooth="yes"/>
      <point x="637" y="701"/>
      <point x="692" y="612"/>
      <point x="809" y="547" type="curve" smooth="yes"/>
      <point x="879" y="508" type="line" smooth="yes"/>
      <point x="944" y="471"/>
      <point x="986" y="442"/>
      <point x="1005" y="419" type="curve" smooth="yes"/>
      <point x="1023" y="396"/>
      <point x="1032" y="369"/>
      <point x="1032" y="338" type="curve" smooth="yes"/>
      <point x="1032" y="262"/>
      <point x="968" y="209"/>
      <point x="872" y="209" type="curve" smooth="yes"/>
      <point x="800" y="209"/>
      <point x="722" y="228"/>
      <point x="647" y="264" type="curve"/>
      <point x="647" y="20" type="line"/>
      <point x="746" y="-12"/>
      <point x="837" y="-29"/>
    </contour>
  </outline>
</glyph>
<glyph name="ae" format="2">
  <advance width="2146"/>
  <unicode hex="00E6"/>
  <anchor x="1063" y="0" name="below"/>
  <anchor x="1063" y="1147" name="above"/>
  <outline>
    <contour>
      <point x="508" y="-29" type="curve" smooth="yes"/>
      <point x="693" y="-29"/>
      <point x="836" y="35"/>
      <point x="971" y="178" type="curve"/>
      <point x="1067" y="45"/>
      <point x="1248" y="-29"/>
      <point x="1487" y="-29" type="curve" smooth="yes"/>
      <point x="1655" y="-29"/>
      <point x="1826" y="4"/>
      <point x="1995" y="68" type="curve"/>
      <point x="1995" y="344" type="line"/>
      <point x="1828" y="253"/>
      <point x="1671" y="209"/>
      <point x="1520" y="209" type="curve" smooth="yes"/>
      <point x="1332" y="209"/>
      <point x="1229" y="293"/>
      <point x="1210" y="461" type="curve"/>
      <point x="2048" y="461" type="line"/>
      <point x="2048" y="563" type="line" smooth="yes"/>
      <point x="2048" y="918"/>
      <point x="1819" y="1147"/>
      <point x="1466" y="1147" type="curve" smooth="yes"/>
      <point x="1303" y="1147"/>
      <point x="1166" y="1094"/>
      <point x="1063" y="991" type="curve"/>
      <point x="968" y="1096"/>
      <point x="825" y="1147"/>
      <point x="625" y="1147" type="curve" smooth="yes"/>
      <point x="496" y="1147"/>
      <point x="345" y="1127"/>
      <point x="186" y="1090" type="curve"/>
      <point x="186" y="817" type="line"/>
      <point x="299" y="878"/>
      <point x="431" y="909"/>
      <point x="584" y="909" type="curve" smooth="yes"/>
      <point x="773" y="909"/>
      <point x="860" y="858"/>
      <point x="860" y="745" type="curve" smooth="yes"/>
      <point x="860" y="717" type="line"/>
      <point x="649" y="717" type="line" smooth="yes"/>
      <point x="262" y="717"/>
      <point x="88" y="599"/>
      <point x="88" y="336" type="curve" smooth="yes"/>
      <point x="88" y="112"/>
      <point x="249" y="-29"/>
    </contour>
    <contour>
      <point x="621" y="209" type="curve" smooth="yes"/>
      <point x="513" y="209"/>
      <point x="449" y="263"/>
      <point x="449" y="354" type="curve" smooth="yes"/>
      <point x="449" y="453"/>
      <point x="525" y="504"/>
      <point x="674" y="504" type="curve" smooth="yes"/>
      <point x="860" y="504" type="line"/>
      <point x="860" y="463" type="line" smooth="yes"/>
      <point x="860" y="318"/>
      <point x="756" y="209"/>
    </contour>
    <contour>
      <point x="1217" y="682" type="line"/>
      <point x="1238" y="829"/>
      <point x="1327" y="909"/>
      <point x="1464" y="909" type="curve" smooth="yes"/>
      <point x="1592" y="909"/>
      <point x="1679" y="818"/>
      <point x="1679" y="682" type="curve"/>
    </contour>
  </outline>
</glyph>
<glyph name="eth" format="2">
  <advance width="1407"/>
  <unicode hex="00F0"/>
  <anchor x="705" y="1520" name="above"/>
  <anchor x="705" y="0" name="below"/>
  <outline>
    <contour>
      <point x="705" y="-29" type="curve" smooth="yes"/>
      <point x="1090" y="-29"/>
      <point x="1319" y="191"/>
      <point x="1319" y="559" type="curve" smooth="yes"/>
      <point x="1319" y="756"/>
      <point x="1252" y="919"/>
      <point x="1096" y="1100" type="curve" smooth="yes"/>
      <point x="891" y="1329" type="line"/>
      <point x="1206" y="1425" type="line"/>
      <point x="1171" y="1554" type="line"/>
      <point x="795" y="1440" type="line"/>
      <point x="684" y="1556" type="line"/>
      <point x="332" y="1556" type="line"/>
      <point x="520" y="1354" type="line"/>
      <point x="213" y="1257" type="line"/>
      <point x="250" y="1128" type="line"/>
      <point x="623" y="1247" type="line"/>
      <point x="813" y="1028" type="line"/>
      <point x="765" y="1047"/>
      <point x="714" y="1055"/>
      <point x="653" y="1055" type="curve" smooth="yes"/>
      <point x="301" y="1055"/>
      <point x="88" y="867"/>
      <point x="88" y="559" type="curve" smooth="yes"/>
      <point x="88" y="191"/>
      <point x="318" y="-29"/>
    </contour>
    <contour>
      <point x="705" y="227" type="curve" smooth="yes"/>
      <point x="553" y="227"/>
      <point x="461" y="346"/>
      <point x="461" y="543" type="curve" smooth="yes"/>
      <point x="461" y="704"/>
      <point x="549" y="797"/>
      <point x="705" y="797" type="curve" smooth="yes"/>
      <point x="774" y="797"/>
      <point x="847" y="779"/>
      <point x="920" y="743" type="curve"/>
      <point x="937" y="680"/>
      <point x="946" y="619"/>
      <point x="946" y="559" type="curve" smooth="yes"/>
      <point x="946" y="344"/>
      <point x="861" y="227"/>
    </contour>
  </outline>
</glyph>
<glyph name="divide" format="2">
  <advance width="1716"/>
  <unicode hex="00F7"/>
  <outline>
    <contour>
      <point x="705" y="395" type="line"/>
      <point x="1012" y="395" type="line"/>
      <point x="1012" y="86" type="line"/>
      <point x="705" y="86" type="line"/>
    </contour>
    <contour>
      <point x="705" y="1198" type="line"/>
      <point x="1012" y="1198" type="line"/>
      <point x="1012" y="889" type="line"/>
      <point x="705" y="889" type="line"/>
    </contour>
    <contour>
      <point x="217" y="760" type="line"/>
      <point x="1499" y="760" type="line"/>
      <point x="1499" y="524" type="line"/>
      <point x="217" y="524" type="line"/>
    </contour>
  </outline>
</glyph>
<glyph name="oslash" format="2">
  <advance width="1407"/>
  <unicode hex="00F8"/>
  <anchor x="706" y="0" name="cedilla"/>
  <anchor x="705" y="1147" name="above"/>
  <anchor x="705" y="0" name="below"/>
  <anchor x="0" y="1520" name="half"/>
  <anchor x="706" y="0" name="ogonek"/>
  <outline>
    <contour>
      <point x="856" y="836" type="line"/>
      <point x="827" y="864"/>
      <point x="752" y="891"/>
      <point x="705" y="891" type="qcurve" smooth="yes"/>
      <point x="586" y="891"/>
      <point x="461" y="720"/>
      <point x="461" y="559" type="qcurve" smooth="yes"/>
      <point x="461" y="518"/>
      <point x="468" y="453"/>
      <point x="475" y="426" type="qcurve"/>
    </contour>
    <contour>
      <point x="547" y="287" type="line"/>
      <point x="578" y="257"/>
      <point x="657" y="227"/>
      <point x="705" y="227" type="qcurve" smooth="yes"/>
      <point x="822" y="227"/>
      <point x="946" y="398"/>
      <point x="946" y="559" type="qcurve" smooth="yes"/>
      <point x="946" y="602"/>
      <point x="939" y="669"/>
      <point x="932" y="698" type="qcurve"/>
    </contour>
    <contour>
      <point x="223" y="158" type="line"/>
      <point x="156" y="236"/>
      <point x="88" y="436"/>
      <point x="88" y="559" type="qcurve" smooth="yes"/>
      <point x="88" y="835"/>
      <point x="415" y="1147"/>
      <point x="705" y="1147" type="qcurve" smooth="yes"/>
      <point x="811" y="1147"/>
      <point x="990" y="1103"/>
      <point x="1065" y="1059" type="qcurve"/>
      <point x="1212" y="1217" type="line"/>
      <point x="1321" y="1116" type="line"/>
      <point x="1180" y="967" type="line"/>
      <point x="1250" y="887"/>
      <point x="1319" y="685"/>
      <point x="1319" y="559" type="qcurve" smooth="yes"/>
      <point x="1319" y="283"/>
      <point x="994" y="-29"/>
      <point x="705" y="-29" type="qcurve" smooth="yes"/>
      <point x="597" y="-29"/>
      <point x="415" y="16"/>
      <point x="338" y="61" type="qcurve"/>
      <point x="190" y="-94" type="line"/>
      <point x="78" y="0" type="line"/>
    </contour>
  </outline>
</glyph>
<glyph name="dcroat" format="2">
  <advance width="1466"/>
  <unicode hex="0111"/>
  <outline>
    <contour>
      <point x="565" y="-29" type="curve" smooth="yes"/>
      <point x="721" y="-29"/>
      <point x="835" y="30"/>
      <point x="934" y="162" type="curve"/>
      <point x="934" y="0" type="line"/>
      <point x="1294" y="0" type="line"/>
      <point x="1294" y="1237" type="line"/>
      <point x="1448" y="1237" type="line"/>
      <point x="1448" y="1442" type="line"/>
      <point x="1294" y="1442" type="line"/>
      <point x="1294" y="1556" type="line"/>
      <point x="934" y="1556" type="line"/>
      <point x="934" y="1442" type="line"/>
      <point x="608" y="1442" type="line"/>
      <point x="608" y="1237" type="line"/>
      <point x="934" y="1237" type="line"/>
      <point x="934" y="956" type="line"/>
      <point x="835" y="1087"/>
      <point x="720" y="1147"/>
      <point x="565" y="1147" type="curve" smooth="yes"/>
      <point x="289" y="1147"/>
      <point x="92" y="904"/>
      <point x="92" y="559" type="curve" smooth="yes"/>
      <point x="92" y="214"/>
      <point x="289" y="-29"/>
    </contour>
    <contour>
      <point x="698" y="231" type="curve" smooth="yes"/>
      <point x="546" y="231"/>
      <point x="463" y="346"/>
      <point x="463" y="559" type="curve" smooth="yes"/>
      <point x="463" y="772"/>
      <point x="546" y="887"/>
      <point x="698" y="887" type="curve" smooth="yes"/>
      <point x="851" y="887"/>
      <point x="934" y="772"/>
      <point x="934" y="559" type="curve" smooth="yes"/>
      <point x="934" y="346"/>
      <point x="851" y="231"/>
    </contour>
  </outline>
</glyph>
<glyph name="Hbar" format="2">
  <advance width="1994"/>
  <unicode hex="0126"/>
  <anchor x="995" y="1520" name="above"/>
  <anchor x="995" y="0" name="below"/>
  <outline>
    <contour>
      <point x="328" y="1493" type="line"/>
      <point x="713" y="1493" type="line"/>
      <point x="713" y="1306" type="line"/>
      <point x="1281" y="1306" type="line"/>
      <point x="1281" y="1493" type="line"/>
      <point x="1666" y="1493" type="line"/>
      <point x="1666" y="1306" type="line"/>
      <point x="1806" y="1306" type="line"/>
      <point x="1806" y="1112" type="line"/>
      <point x="1666" y="1112" type="line"/>
      <point x="1666" y="0" type="line"/>
      <point x="1281" y="0" type="line"/>
      <point x="1281" y="633" type="line"/>
      <point x="713" y="633" type="line"/>
      <point x="713" y="0" type="line"/>
      <point x="328" y="0" type="line"/>
      <point x="328" y="1112" type="line"/>
      <point x="188" y="1112" type="line"/>
      <point x="188" y="1306" type="line"/>
      <point x="328" y="1306" type="line"/>
    </contour>
    <contour>
      <point x="713" y="1112" type="line"/>
      <point x="713" y="924" type="line"/>
      <point x="1281" y="924" type="line"/>
      <point x="1281" y="1112" type="line"/>
    </contour>
  </outline>
</glyph>
<glyph name="hbar" format="2">
  <advance width="1618"/>
  <unicode hex="0127"/>
  <anchor x="510" y="1520" name="above"/>
  <outline>
    <contour>
      <point x="326" y="0" type="line"/>
      <point x="684" y="0" type="line"/>
      <point x="684" y="551" type="line" smooth="yes"/>
      <point x="684" y="755"/>
      <point x="775" y="877"/>
      <point x="924" y="877" type="curve" smooth="yes"/>
      <point x="985" y="877"/>
      <point x="1035" y="850"/>
      <point x="1063" y="803" type="curve" smooth="yes"/>
      <point x="1074" y="786"/>
      <point x="1081" y="759"/>
      <point x="1086" y="722" type="curve" smooth="yes"/>
      <point x="1090" y="685"/>
      <point x="1092" y="618"/>
      <point x="1092" y="520" type="curve" smooth="yes"/>
      <point x="1092" y="111" type="line"/>
      <point x="1092" y="0" type="line"/>
      <point x="1452" y="0" type="line"/>
      <point x="1452" y="682" type="line" smooth="yes"/>
      <point x="1452" y="985"/>
      <point x="1316" y="1147"/>
      <point x="1057" y="1147" type="curve" smooth="yes"/>
      <point x="910" y="1147"/>
      <point x="792" y="1087"/>
      <point x="684" y="956" type="curve"/>
      <point x="684" y="1255" type="line"/>
      <point x="1047" y="1255" type="line"/>
      <point x="1047" y="1449" type="line"/>
      <point x="684" y="1449" type="line"/>
      <point x="684" y="1556" type="line"/>
      <point x="326" y="1556" type="line"/>
      <point x="326" y="1449" type="line"/>
      <point x="166" y="1449" type="line"/>
      <point x="166" y="1255" type="line"/>
      <point x="326" y="1255" type="line"/>
    </contour>
  </outline>
</glyph>
<glyph name="kgreenlandic" format="2">
  <advance width="1362"/>
  <unicode hex="0138"/>
  <anchor x="698" y="0" name="below"/>
  <anchor x="698" y="1147" name="above"/>
  <outline>
    <contour>
      <point x="172" y="0" type="line"/>
      <point x="530" y="0" type="line"/>
      <point x="530" y="467" type="line"/>
      <point x="967" y="0" type="line"/>
      <point x="1401" y="0" type="line"/>
      <point x="811" y="606" type="line"/>
      <point x="1358" y="1120" type="line"/>
      <point x="942" y="1120" type="line"/>
      <point x="530" y="709" type="line"/>
      <point x="530" y="1120" type="line"/>
      <point x="172" y="1120" type="line"/>
    </contour>
  </outline>
</glyph>
<glyph name="Lslash" format="2">
  <advance width="1315"/>
  <unicode hex="0141"/>
  <outline>
    <contour>
      <point x="199" y="1493" type="line"/>
      <point x="584" y="1493" type="line"/>
      <point x="584" y="1077" type="line"/>
      <point x="838" y="1262" type="line"/>
      <point x="981" y="1069" type="line"/>
      <point x="584" y="797" type="line"/>
      <point x="584" y="291" type="line"/>
      <point x="1260" y="291" type="line"/>
      <point x="1260" y="0" type="line"/>
      <point x="199" y="0" type="line"/>
      <point x="199" y="524" type="line"/>
      <point x="51" y="418" type="line"/>
      <point x="-92" y="608" type="line"/>
      <point x="199" y="805" type="line"/>
    </contour>
  </outline>
</glyph>
<glyph name="lslash" format="2">
  <advance width="760"/>
  <unicode hex="0142"/>
  <outline>
    <contour>
      <point x="199" y="1556" type="line"/>
      <point x="559" y="1556" type="line"/>
      <point x="559" y="1055" type="line"/>
      <point x="688" y="1143" type="line"/>
      <point x="799" y="989" type="line"/>
      <point x="559" y="825" type="line"/>
      <point x="559" y="0" type="line"/>
      <point x="199" y="0" type="line"/>
      <point x="199" y="641" type="line"/>
      <point x="74" y="555" type="line"/>
      <point x="-37" y="709" type="line"/>
      <point x="199" y="872" type="line"/>
    </contour>
  </outline>
</glyph>
<glyph name="Eng" format="2">
  <advance width="1714"/>
  <unicode hex="014A"/>
  <outline>
    <contour>
      <point x="1496" y="145" type="line" smooth="yes"/>
      <point x="1496" y="-152"/>
      <point x="1364" y="-272" type="qcurve" smooth="yes"/>
      <point x="1213" y="-410"/>
      <point x="906" y="-410" type="qcurve" smooth="yes"/>
      <point x="828" y="-410" type="line"/>
      <point x="828" y="-119" type="line"/>
      <point x="888" y="-119" type="line" smooth="yes"/>
      <point x="1008" y="-119"/>
      <point x="1135" y="19"/>
      <point x="1135" y="145" type="qcurve" smooth="yes"/>
      <point x="1135" y="691" type="line" smooth="yes"/>
      <point x="1135" y="1001"/>
      <point x="1086" y="1070" type="qcurve" smooth="yes"/>
      <point x="1020" y="1162"/>
      <point x="875" y="1162" type="qcurve" smooth="yes"/>
      <point x="718" y="1162"/>
      <point x="540" y="932"/>
      <point x="540" y="730" type="qcurve" smooth="yes"/>
      <point x="540" y="0" type="line"/>
      <point x="172" y="0" type="line"/>
      <point x="172" y="1493" type="line"/>
      <point x="544" y="1493" type="line"/>
      <point x="544" y="1266" type="line"/>
      <point x="655" y="1401"/>
      <point x="887" y="1520"/>
      <point x="1032" y="1520" type="qcurve" smooth="yes"/>
      <point x="1259" y="1520"/>
      <point x="1496" y="1204"/>
      <point x="1496" y="903" type="qcurve" smooth="yes"/>
    </contour>
  </outline>
</glyph>
<glyph name="eng" format="2">
  <advance width="1458"/>
  <unicode hex="014B"/>
  <outline>
    <contour>
      <point x="594" y="-442" type="line"/>
      <point x="875" y="-442" type="line" smooth="yes"/>
      <point x="1012" y="-442"/>
      <point x="1116" y="-403"/>
      <point x="1188" y="-324" type="curve" smooth="yes"/>
      <point x="1261" y="-243"/>
      <point x="1298" y="-129"/>
      <point x="1298" y="20" type="curve" smooth="yes"/>
      <point x="1298" y="682" type="line" smooth="yes"/>
      <point x="1298" y="833"/>
      <point x="1265" y="949"/>
      <point x="1198" y="1028" type="curve" smooth="yes"/>
      <point x="1131" y="1107"/>
      <point x="1032" y="1147"/>
      <point x="903" y="1147" type="curve" smooth="yes"/>
      <point x="830" y="1147"/>
      <point x="763" y="1131"/>
      <point x="702" y="1100" type="curve" smooth="yes"/>
      <point x="641" y="1069"/>
      <point x="584" y="1021"/>
      <point x="530" y="956" type="curve"/>
      <point x="530" y="1120" type="line"/>
      <point x="172" y="1120" type="line"/>
      <point x="172" y="0" type="line"/>
      <point x="530" y="0" type="line"/>
      <point x="530" y="551" type="line" smooth="yes"/>
      <point x="530" y="653"/>
      <point x="551" y="733"/>
      <point x="594" y="790" type="curve" smooth="yes"/>
      <point x="637" y="848"/>
      <point x="695" y="877"/>
      <point x="770" y="877" type="curve" smooth="yes"/>
      <point x="801" y="877"/>
      <point x="828" y="871"/>
      <point x="852" y="858" type="curve" smooth="yes"/>
      <point x="876" y="845"/>
      <point x="895" y="826"/>
      <point x="909" y="803" type="curve" smooth="yes"/>
      <point x="920" y="786"/>
      <point x="927" y="759"/>
      <point x="932" y="722" type="curve" smooth="yes"/>
      <point x="936" y="685"/>
      <point x="938" y="619"/>
      <point x="938" y="522" type="curve" smooth="yes"/>
      <point x="938" y="20" type="line" smooth="yes"/>
      <point x="938" y="-160"/>
      <point x="896" y="-207"/>
      <point x="760" y="-207" type="curve" smooth="yes"/>
      <point x="594" y="-207" type="line"/>
    </contour>
  </outline>
</glyph>
<glyph name="OE" format="2">
  <advance width="2390"/>
  <unicode hex="0152"/>
  <outline>
    <contour>
      <point x="1180" y="1202" type="line"/>
      <point x="1075" y="1202" type="line" smooth="yes"/>
      <point x="786" y="1202"/>
      <point x="500" y="976"/>
      <point x="500" y="748" type="qcurve" smooth="yes"/>
      <point x="500" y="519"/>
      <point x="787" y="291"/>
      <point x="1075" y="291" type="qcurve" smooth="yes"/>
      <point x="1180" y="291" type="line"/>
    </contour>
    <contour>
      <point x="1090" y="1493" type="qcurve" smooth="yes"/>
      <point x="2218" y="1493" type="line"/>
      <point x="2218" y="1202" type="line"/>
      <point x="1565" y="1202" type="line"/>
      <point x="1565" y="924" type="line"/>
      <point x="2179" y="924" type="line"/>
      <point x="2179" y="633" type="line"/>
      <point x="1565" y="633" type="line"/>
      <point x="1565" y="291" type="line"/>
      <point x="2241" y="291" type="line"/>
      <point x="2241" y="0" type="line"/>
      <point x="1090" y="0" type="line" smooth="yes"/>
      <point x="1077" y="0"/>
      <point x="1030" y="-2"/>
      <point x="1018" y="-2" type="qcurve" smooth="yes"/>
      <point x="576" y="-2"/>
      <point x="102" y="387"/>
      <point x="102" y="748" type="qcurve" smooth="yes"/>
      <point x="102" y="1108"/>
      <point x="576" y="1495"/>
      <point x="1018" y="1495" type="qcurve" smooth="yes"/>
      <point x="1029" y="1495"/>
      <point x="1077" y="1493"/>
    </contour>
  </outline>
</glyph>
<glyph name="oe" format="2">
  <advance width="2241"/>
  <unicode hex="0153"/>
  <anchor x="1130" y="1147" name="above"/>
  <anchor x="1130" y="0" name="below"/>
  <outline>
    <contour>
      <point x="705" y="-29" type="curve" smooth="yes"/>
      <point x="878" y="-29"/>
      <point x="1021" y="27"/>
      <point x="1130" y="139" type="curve"/>
      <point x="1226" y="23"/>
      <point x="1361" y="-29"/>
      <point x="1581" y="-29" type="curve" smooth="yes"/>
      <point x="1749" y="-29"/>
      <point x="1921" y="4"/>
      <point x="2089" y="68" type="curve"/>
      <point x="2089" y="344" type="line"/>
      <point x="1922" y="253"/>
      <point x="1765" y="209"/>
      <point x="1614" y="209" type="curve" smooth="yes"/>
      <point x="1427" y="209"/>
      <point x="1322" y="293"/>
      <point x="1305" y="461" type="curve"/>
      <point x="2142" y="461" type="line"/>
      <point x="2142" y="563" type="line" smooth="yes"/>
      <point x="2142" y="923"/>
      <point x="1913" y="1147"/>
      <point x="1542" y="1147" type="curve" smooth="yes"/>
      <point x="1362" y="1147"/>
      <point x="1235" y="1095"/>
      <point x="1126" y="979" type="curve"/>
      <point x="1018" y="1094"/>
      <point x="884" y="1147"/>
      <point x="705" y="1147" type="curve" smooth="yes"/>
      <point x="318" y="1147"/>
      <point x="88" y="927"/>
      <point x="88" y="559" type="curve" smooth="yes"/>
      <point x="88" y="191"/>
      <point x="318" y="-29"/>
    </contour>
    <contour>
      <point x="705" y="227" type="curve" smooth="yes"/>
      <point x="546" y="227"/>
      <point x="461" y="344"/>
      <point x="461" y="559" type="curve" smooth="yes"/>
      <point x="461" y="774"/>
      <point x="546" y="891"/>
      <point x="705" y="891" type="curve" smooth="yes"/>
      <point x="861" y="891"/>
      <point x="946" y="774"/>
      <point x="946" y="559" type="curve" smooth="yes"/>
      <point x="946" y="344"/>
      <point x="861" y="227"/>
    </contour>
    <contour>
      <point x="1309" y="682" type="line"/>
      <point x="1330" y="829"/>
      <point x="1420" y="909"/>
      <point x="1559" y="909" type="curve" smooth="yes"/>
      <point x="1687" y="909"/>
      <point x="1774" y="818"/>
      <point x="1774" y="682" type="curve"/>
    </contour>
  </outline>
</glyph>
<glyph name="Tbar" format="2">
  <advance width="1397"/>
  <unicode hex="0166"/>
  <anchor x="698" y="1520" name="above"/>
  <anchor x="698" y="0" name="below"/>
  <anchor x="0" y="1520" name="half"/>
  <outline>
    <contour>
      <point x="506" y="0" type="line"/>
      <point x="891" y="0" type="line"/>
      <point x="891" y="505" type="line"/>
      <point x="1138" y="505" type="line"/>
      <point x="1138" y="765" type="line"/>
      <point x="891" y="765" type="line"/>
      <point x="891" y="1202" type="line"/>
      <point x="1386" y="1202" type="line"/>
      <point x="1386" y="1493" type="line"/>
      <point x="10" y="1493" type="line"/>
      <point x="10" y="1202" type="line"/>
      <point x="506" y="1202" type="line"/>
      <point x="506" y="765" type="line"/>
      <point x="259" y="765" type="line"/>
      <point x="259" y="505" type="line"/>
      <point x="506" y="505" type="line"/>
    </contour>
  </outline>
</glyph>
<glyph name="tbar" format="2">
  <advance width="979"/>
  <unicode hex="0167"/>
  <anchor x="394" y="1520" name="above"/>
  <anchor x="394" y="0" name="below"/>
  <anchor x="0" y="1520" name="half"/>
  <outline>
    <contour>
      <point x="594" y="0" type="curve" smooth="yes"/>
      <point x="901" y="0" type="line"/>
      <point x="901" y="256" type="line"/>
      <point x="717" y="256" type="line" smooth="yes"/>
      <point x="656" y="256"/>
      <point x="615" y="265"/>
      <point x="594" y="284" type="curve" smooth="yes"/>
      <point x="573" y="302"/>
      <point x="563" y="337"/>
      <point x="563" y="389" type="curve" smooth="yes"/>
      <point x="563" y="466" type="line"/>
      <point x="932" y="466" type="line"/>
      <point x="932" y="722" type="line"/>
      <point x="563" y="722" type="line"/>
      <point x="563" y="864" type="line"/>
      <point x="932" y="864" type="line"/>
      <point x="932" y="1120" type="line"/>
      <point x="563" y="1120" type="line"/>
      <point x="563" y="1438" type="line"/>
      <point x="205" y="1438" type="line"/>
      <point x="205" y="1120" type="line"/>
      <point x="27" y="1120" type="line"/>
      <point x="27" y="864" type="line"/>
      <point x="205" y="864" type="line"/>
      <point x="205" y="722" type="line"/>
      <point x="27" y="722" type="line"/>
      <point x="27" y="466" type="line"/>
      <point x="205" y="466" type="line"/>
      <point x="205" y="389" type="line" smooth="yes"/>
      <point x="205" y="248"/>
      <point x="235" y="147"/>
      <point x="294" y="88" type="curve" smooth="yes"/>
      <point x="353" y="29"/>
      <point x="453" y="0"/>
    </contour>
  </outline>
</glyph>
<glyph name="longs" format="2">
  <advance width="891"/>
  <unicode hex="017F"/>
  <anchor x="494" y="1520" name="above"/>
  <anchor x="394" y="0" name="below"/>
  <anchor x="0" y="1520" name="half"/>
  <outline>
    <contour>
      <point x="575" y="0" type="line"/>
      <point x="217" y="0" type="line"/>
      <point x="217" y="864" type="line"/>
      <point x="39" y="864" type="line"/>
      <point x="39" y="1120" type="line"/>
      <point x="217" y="1120" type="line"/>
      <point x="217" y="1198" type="line" smooth="yes"/>
      <point x="217" y="1381"/>
      <point x="421" y="1556"/>
      <point x="635" y="1556" type="qcurve" smooth="yes"/>
      <point x="909" y="1556" type="line"/>
      <point x="909" y="1321" type="line"/>
      <point x="711" y="1321" type="line" smooth="yes"/>
      <point x="635" y="1321"/>
      <point x="605" y="1293.5" type="qcurve" smooth="yes"/>
      <point x="575" y="1265.29"/>
      <point x="575" y="1198" type="qcurve" smooth="yes"/>
    </contour>
  </outline>
</glyph>
<glyph name="uni0181" format="2">
  <advance width="1661"/>
  <unicode hex="0181"/>
  <anchor x="877" y="1520" name="above"/>
  <outline>
    <contour>
      <point x="886" y="915" type="line" smooth="yes"/>
      <point x="977" y="915"/>
      <point x="1071" y="995"/>
      <point x="1071" y="1073" type="qcurve" smooth="yes"/>
      <point x="1071" y="1150"/>
      <point x="977" y="1231"/>
      <point x="886" y="1231" type="qcurve" smooth="yes"/>
      <point x="673" y="1231" type="line"/>
      <point x="673" y="915" type="line"/>
    </contour>
    <contour>
      <point x="899" y="262" type="line" smooth="yes"/>
      <point x="1015" y="262"/>
      <point x="1132" y="360"/>
      <point x="1132" y="459" type="qcurve" smooth="yes"/>
      <point x="1132" y="556"/>
      <point x="1016" y="653"/>
      <point x="899" y="653" type="qcurve" smooth="yes"/>
      <point x="673" y="653" type="line"/>
      <point x="673" y="262" type="line"/>
    </contour>
    <contour>
      <point x="1257" y="799" type="qcurve"/>
      <point x="1381" y="763"/>
      <point x="1517" y="569"/>
      <point x="1517" y="428" type="qcurve" smooth="yes"/>
      <point x="1517" y="212"/>
      <point x="1225" y="0"/>
      <point x="927" y="0" type="qcurve" smooth="yes"/>
      <point x="288" y="0" type="line"/>
      <point x="288" y="1231" type="line"/>
      <point x="209" y="1231" type="line" smooth="yes"/>
      <point x="167" y="1231"/>
      <point x="135" y="1203" type="qcurve" smooth="yes"/>
      <point x="116" y="1186.48"/>
      <point x="116" y="1126" type="qcurve" smooth="yes"/>
      <point x="116" y="1079" type="line"/>
      <point x="-140" y="1079" type="line"/>
      <point x="-140" y="1156" type="line" smooth="yes"/>
      <point x="-140" y="1326.89"/>
      <point x="-41" y="1412" type="qcurve" smooth="yes"/>
      <point x="53.2246" y="1493"/>
      <point x="288" y="1493" type="qcurve" smooth="yes"/>
      <point x="866" y="1493" type="line" smooth="yes"/>
      <point x="1177" y="1493"/>
      <point x="1456" y="1305"/>
      <point x="1456" y="1098" type="qcurve" smooth="yes"/>
      <point x="1456" y="989"/>
      <point x="1354" y="836"/>
    </contour>
  </outline>
</glyph>
<glyph name="uni0184" format="2">
  <advance width="1561"/>
  <unicode hex="0184"/>
  <outline>
    <contour>
      <point x="880" y="262" type="line" smooth="yes"/>
      <point x="1001" y="262"/>
      <point x="1055" y="307" type="qcurve" smooth="yes"/>
      <point x="1113" y="356"/>
      <point x="1113" y="449" type="qcurve" smooth="yes"/>
      <point x="1113" y="540"/>
      <point x="1055" y="588" type="qcurve" smooth="yes"/>
      <point x="1002" y="633"/>
      <point x="880" y="633" type="qcurve" smooth="yes"/>
      <point x="654" y="633" type="line"/>
      <point x="654" y="262" type="line"/>
    </contour>
    <contour>
      <point x="908" y="0" type="qcurve" smooth="yes"/>
      <point x="269" y="0" type="line"/>
      <point x="269" y="924" type="line"/>
      <point x="81" y="1104" type="line"/>
      <point x="654" y="1493" type="line"/>
      <point x="654" y="924" type="line"/>
      <point x="908" y="924" type="line" smooth="yes"/>
      <point x="1191" y="924"/>
      <point x="1352" y="807" type="qcurve" smooth="yes"/>
      <point x="1498" y="701"/>
      <point x="1498" y="461" type="qcurve" smooth="yes"/>
      <point x="1498" y="223"/>
      <point x="1352" y="117" type="qcurve" smooth="yes"/>
      <point x="1191" y="0"/>
    </contour>
  </outline>
</glyph>
<glyph name="uni0185" format="2">
  <advance width="1466"/>
  <unicode hex="0185"/>
  <outline>
    <contour>
      <point x="953" y="-29" type="curve" smooth="yes"/>
      <point x="1091" y="-29"/>
      <point x="1204" y="26"/>
      <point x="1293" y="136" type="curve" smooth="yes"/>
      <point x="1382" y="245"/>
      <point x="1426" y="386"/>
      <point x="1426" y="559" type="curve" smooth="yes"/>
      <point x="1426" y="732"/>
      <point x="1382" y="873"/>
      <point x="1293" y="982" type="curve" smooth="yes"/>
      <point x="1204" y="1092"/>
      <point x="1091" y="1147"/>
      <point x="953" y="1147" type="curve" smooth="yes"/>
      <point x="875" y="1147"/>
      <point x="806" y="1131"/>
      <point x="746" y="1100" type="curve" smooth="yes"/>
      <point x="686" y="1069"/>
      <point x="631" y="1021"/>
      <point x="582" y="956" type="curve"/>
      <point x="582" y="1556" type="line"/>
      <point x="52" y="1104" type="line"/>
      <point x="224" y="924" type="line"/>
      <point x="224" y="0" type="line"/>
      <point x="582" y="0" type="line"/>
      <point x="582" y="162" type="line"/>
      <point x="631" y="97"/>
      <point x="686" y="49"/>
      <point x="746" y="18" type="curve" smooth="yes"/>
      <point x="806" y="-13"/>
      <point x="875" y="-29"/>
    </contour>
    <contour>
      <point x="820" y="231" type="curve" smooth="yes"/>
      <point x="743" y="231"/>
      <point x="685" y="259"/>
      <point x="644" y="316" type="curve" smooth="yes"/>
      <point x="603" y="372"/>
      <point x="582" y="453"/>
      <point x="582" y="559" type="curve" smooth="yes"/>
      <point x="582" y="665"/>
      <point x="603" y="746"/>
      <point x="644" y="802" type="curve" smooth="yes"/>
      <point x="685" y="859"/>
      <point x="743" y="887"/>
      <point x="820" y="887" type="curve" smooth="yes"/>
      <point x="897" y="887"/>
      <point x="955" y="859"/>
      <point x="996" y="803" type="curve" smooth="yes"/>
      <point x="1036" y="747"/>
      <point x="1056" y="666"/>
      <point x="1056" y="559" type="curve" smooth="yes"/>
      <point x="1056" y="452"/>
      <point x="1036" y="371"/>
      <point x="996" y="315" type="curve" smooth="yes"/>
      <point x="955" y="259"/>
      <point x="897" y="231"/>
    </contour>
  </outline>
</glyph>
<glyph name="uni0186" format="2">
  <advance width="1503"/>
  <unicode hex="0186"/>
  <anchor x="0" y="1520" name="half"/>
  <anchor x="605" y="0" name="cedilla"/>
  <anchor x="605" y="0" name="below"/>
  <anchor x="605" y="1520" name="above"/>
  <outline>
    <contour>
      <point x="102" y="1409" type="line"/>
      <point x="208" y="1464"/>
      <point x="438" y="1520"/>
      <point x="563" y="1520" type="qcurve" smooth="yes"/>
      <point x="936" y="1520"/>
      <point x="1372" y="1103"/>
      <point x="1372" y="745" type="qcurve" smooth="yes"/>
      <point x="1372" y="388"/>
      <point x="936" y="-29"/>
      <point x="563" y="-29" type="qcurve" smooth="yes"/>
      <point x="438" y="-29"/>
      <point x="208" y="27"/>
      <point x="102" y="82" type="qcurve"/>
      <point x="102" y="391" type="line"/>
      <point x="209" y="318"/>
      <point x="417" y="250"/>
      <point x="532" y="250" type="qcurve" smooth="yes"/>
      <point x="738" y="250"/>
      <point x="974" y="514"/>
      <point x="974" y="745" type="qcurve" smooth="yes"/>
      <point x="974" y="977"/>
      <point x="738" y="1241"/>
      <point x="532" y="1241" type="qcurve" smooth="yes"/>
      <point x="417" y="1241"/>
      <point x="209" y="1173"/>
      <point x="102" y="1100" type="qcurve"/>
    </contour>
  </outline>
</glyph>
<glyph name="uni0187" format="2">
  <advance width="1503"/>
  <unicode hex="0187"/>
  <anchor x="909" y="1520" name="above"/>
  <outline>
    <contour>
      <point x="911" y="-29" type="curve" smooth="yes"/>
      <point x="1078" y="-29"/>
      <point x="1231" y="9"/>
      <point x="1372" y="82" type="curve"/>
      <point x="1372" y="391" type="line"/>
      <point x="1229" y="294"/>
      <point x="1095" y="250"/>
      <point x="942" y="250" type="curve" smooth="yes"/>
      <point x="667" y="250"/>
      <point x="500" y="437"/>
      <point x="500" y="745" type="curve" smooth="yes"/>
      <point x="500" y="1054"/>
      <point x="667" y="1241"/>
      <point x="942" y="1241" type="curve" smooth="yes"/>
      <point x="1095" y="1241"/>
      <point x="1229" y="1197"/>
      <point x="1372" y="1100" type="curve"/>
      <point x="1372" y="1337" type="line" smooth="yes"/>
      <point x="1372" y="1510"/>
      <point x="1455" y="1601"/>
      <point x="1615" y="1601" type="curve" smooth="yes"/>
      <point x="1675" y="1601" type="line"/>
      <point x="1675" y="1892" type="line"/>
      <point x="1597" y="1892" type="line" smooth="yes"/>
      <point x="1392" y="1892"/>
      <point x="1240" y="1846"/>
      <point x="1139" y="1754" type="curve" smooth="yes"/>
      <point x="1073" y="1694"/>
      <point x="1029" y="1615"/>
      <point x="1006" y="1516" type="curve"/>
      <point x="975" y="1519"/>
      <point x="943" y="1520"/>
      <point x="911" y="1520" type="curve" smooth="yes"/>
      <point x="414" y="1520"/>
      <point x="102" y="1222"/>
      <point x="102" y="745" type="curve" smooth="yes"/>
      <point x="102" y="269"/>
      <point x="414" y="-29"/>
    </contour>
  </outline>
</glyph>
<glyph name="uni0188" format="2">
  <advance width="1214"/>
  <unicode hex="0188"/>
  <anchor x="733" y="0" name="below"/>
  <anchor x="733" y="1147" name="above"/>
  <outline>
    <contour>
      <point x="733" y="-29" type="curve" smooth="yes"/>
      <point x="849" y="-29"/>
      <point x="965" y="-8"/>
      <point x="1077" y="33" type="curve"/>
      <point x="1077" y="326" type="line"/>
      <point x="992" y="261"/>
      <point x="890" y="227"/>
      <point x="778" y="227" type="curve" smooth="yes"/>
      <point x="578" y="227"/>
      <point x="461" y="350"/>
      <point x="461" y="559" type="curve" smooth="yes"/>
      <point x="461" y="768"/>
      <point x="578" y="891"/>
      <point x="778" y="891" type="curve" smooth="yes"/>
      <point x="883" y="891"/>
      <point x="980" y="860"/>
      <point x="1077" y="793" type="curve"/>
      <point x="1077" y="1021" type="line" smooth="yes"/>
      <point x="1077" y="1201"/>
      <point x="1119" y="1248"/>
      <point x="1255" y="1248" type="curve" smooth="yes"/>
      <point x="1317" y="1248" type="line"/>
      <point x="1317" y="1483" type="line"/>
      <point x="1140" y="1483" type="line" smooth="yes"/>
      <point x="1003" y="1483"/>
      <point x="899" y="1444"/>
      <point x="827" y="1365" type="curve" smooth="yes"/>
      <point x="776" y="1309"/>
      <point x="742" y="1236"/>
      <point x="727" y="1147" type="curve"/>
      <point x="300" y="1147"/>
      <point x="88" y="928"/>
      <point x="88" y="559" type="curve" smooth="yes"/>
      <point x="88" y="190"/>
      <point x="329" y="-29"/>
    </contour>
  </outline>
</glyph>
<glyph name="uni018A" format="2">
  <advance width="1800"/>
  <unicode hex="018A"/>
  <anchor x="777" y="1520" name="above"/>
  <anchor x="777" y="0" name="below"/>
  <outline>
    <contour>
      <point x="288" y="0" type="line"/>
      <point x="694" y="0" type="line" smooth="yes"/>
      <point x="1142" y="0"/>
      <point x="1326" y="58"/>
      <point x="1486" y="213" type="curve" smooth="yes"/>
      <point x="1626" y="348"/>
      <point x="1693" y="523"/>
      <point x="1693" y="748" type="curve" smooth="yes"/>
      <point x="1693" y="971"/>
      <point x="1626" y="1145"/>
      <point x="1486" y="1280" type="curve" smooth="yes"/>
      <point x="1327" y="1435"/>
      <point x="1147" y="1493"/>
      <point x="694" y="1493" type="curve" smooth="yes"/>
      <point x="288" y="1493" type="line" smooth="yes"/>
      <point x="131" y="1493"/>
      <point x="22" y="1466"/>
      <point x="-41" y="1412" type="curve" smooth="yes"/>
      <point x="-107" y="1355"/>
      <point x="-140" y="1270"/>
      <point x="-140" y="1156" type="curve" smooth="yes"/>
      <point x="-140" y="1079" type="line"/>
      <point x="116" y="1079" type="line"/>
      <point x="116" y="1126" type="line" smooth="yes"/>
      <point x="116" y="1166"/>
      <point x="122" y="1192"/>
      <point x="135" y="1203" type="curve" smooth="yes"/>
      <point x="156" y="1222"/>
      <point x="181" y="1231"/>
      <point x="209" y="1231" type="curve" smooth="yes"/>
      <point x="288" y="1231" type="line"/>
    </contour>
    <contour>
      <point x="673" y="291" type="line"/>
      <point x="673" y="1202" type="line"/>
      <point x="811" y="1202" type="line" smooth="yes"/>
      <point x="1127" y="1202"/>
      <point x="1296" y="1044"/>
      <point x="1296" y="748" type="curve" smooth="yes"/>
      <point x="1296" y="451"/>
      <point x="1126" y="291"/>
      <point x="811" y="291" type="curve" smooth="yes"/>
    </contour>
  </outline>
</glyph>
<glyph name="uni018B" format="2">
  <advance width="1550"/>
  <unicode hex="018B"/>
  <outline>
    <contour>
      <point x="731.16" y="0" type="line" smooth="yes"/>
      <point x="459" y="0"/>
      <point x="144" y="206.67"/>
      <point x="144" y="465.63" type="qcurve" smooth="yes"/>
      <point x="144" y="719.82"/>
      <point x="461.521" y="924"/>
      <point x="731.16" y="924" type="qcurve" smooth="yes"/>
      <point x="985.16" y="924" type="line"/>
      <point x="985.16" y="1202" type="line"/>
      <point x="239.16" y="1202" type="line"/>
      <point x="239.16" y="1493" type="line"/>
      <point x="1370.16" y="1493" type="line"/>
      <point x="1370.16" y="0" type="line"/>
    </contour>
    <contour>
      <point x="526.16" y="449" type="qcurve" smooth="yes"/>
      <point x="526.16" y="345"/>
      <point x="651.16" y="262"/>
      <point x="759.16" y="262" type="qcurve" smooth="yes"/>
      <point x="985.16" y="262" type="line"/>
      <point x="985.16" y="633" type="line"/>
      <point x="759.16" y="633" type="line" smooth="yes"/>
      <point x="652.16" y="633"/>
      <point x="526.16" y="551"/>
    </contour>
  </outline>
</glyph>
<glyph name="uni018C" format="2">
  <advance width="1466"/>
  <unicode hex="018C"/>
  <outline>
    <contour>
      <point x="265" y="1265" type="line"/>
      <point x="265" y="1556" type="line"/>
      <point x="1294" y="1556" type="line"/>
      <point x="1294" y="0" type="line"/>
      <point x="934" y="0" type="line"/>
      <point x="934" y="162" type="line"/>
      <point x="860" y="63"/>
      <point x="682" y="-29"/>
      <point x="565" y="-29" type="qcurve" smooth="yes"/>
      <point x="358" y="-29"/>
      <point x="92" y="300"/>
      <point x="92" y="559" type="qcurve" smooth="yes"/>
      <point x="92" y="818"/>
      <point x="358" y="1147"/>
      <point x="565" y="1147" type="qcurve" smooth="yes"/>
      <point x="681" y="1147"/>
      <point x="860" y="1054"/>
      <point x="934" y="956" type="qcurve"/>
      <point x="934" y="1265" type="line"/>
    </contour>
    <contour>
      <point x="698" y="231" type="qcurve" smooth="yes"/>
      <point x="813" y="231"/>
      <point x="934" y="399"/>
      <point x="934" y="559" type="qcurve" smooth="yes"/>
      <point x="934" y="719"/>
      <point x="813" y="887"/>
      <point x="698" y="887" type="qcurve" smooth="yes"/>
      <point x="584" y="887"/>
      <point x="463" y="719"/>
      <point x="463" y="559" type="qcurve" smooth="yes"/>
      <point x="463" y="399"/>
      <point x="584" y="231"/>
    </contour>
  </outline>
</glyph>
<glyph name="uni018D" format="2">
  <advance width="1408"/>
  <unicode hex="018D"/>
  <anchor x="703" y="1147" name="above"/>
  <outline>
    <contour>
      <point x="252" y="-146" type="line"/>
      <point x="374" y="-216"/>
      <point x="694" y="-216" type="qcurve" smooth="yes"/>
      <point x="864" y="-216"/>
      <point x="864" y="-118" type="qcurve" smooth="yes"/>
      <point x="864" y="-25"/>
      <point x="631" y="10" type="qcurve" smooth="yes"/>
      <point x="398" y="45"/>
      <point x="258" y="157" type="qcurve" smooth="yes"/>
      <point x="88" y="292"/>
      <point x="88" y="563" type="qcurve" smooth="yes"/>
      <point x="88" y="834"/>
      <point x="416" y="1147"/>
      <point x="703" y="1147" type="qcurve" smooth="yes"/>
      <point x="990" y="1147"/>
      <point x="1320" y="834"/>
      <point x="1320" y="559" type="qcurve" smooth="yes"/>
      <point x="1320" y="351"/>
      <point x="1156" y="190" type="qcurve" smooth="yes"/>
      <point x="1104" y="140"/>
      <point x="1040" y="108" type="qcurve"/>
      <point x="1188" y="29"/>
      <point x="1188" y="-130" type="qcurve" smooth="yes"/>
      <point x="1188" y="-454"/>
      <point x="660" y="-454" type="qcurve" smooth="yes"/>
      <point x="396" y="-454"/>
      <point x="252" y="-384" type="qcurve"/>
    </contour>
    <contour>
      <point x="788" y="238" type="qcurve"/>
      <point x="842" y="260"/>
      <point x="884" y="316" type="qcurve" smooth="yes"/>
      <point x="950" y="403"/>
      <point x="950" y="560" type="qcurve" smooth="yes"/>
      <point x="950" y="717"/>
      <point x="818" y="893"/>
      <point x="705" y="893" type="qcurve" smooth="yes"/>
      <point x="592" y="893"/>
      <point x="460" y="714"/>
      <point x="460" y="564" type="qcurve" smooth="yes"/>
      <point x="460" y="415"/>
      <point x="602" y="264"/>
      <point x="700" y="253" type="qcurve" smooth="yes"/>
      <point x="746" y="248"/>
    </contour>
  </outline>
</glyph>
<glyph name="uni018E" format="2">
  <advance width="1399"/>
  <unicode hex="018E"/>
  <anchor x="690" y="1520" name="above"/>
  <outline>
    <contour>
      <point x="1249" y="1493" type="line"/>
      <point x="1249" y="0" type="line"/>
      <point x="188" y="0" type="line"/>
      <point x="188" y="291" type="line"/>
      <point x="864" y="291" type="line"/>
      <point x="864" y="633" type="line"/>
      <point x="249" y="633" type="line"/>
      <point x="249" y="924" type="line"/>
      <point x="864" y="924" type="line"/>
      <point x="864" y="1202" type="line"/>
      <point x="210" y="1202" type="line"/>
      <point x="210" y="1493" type="line"/>
    </contour>
  </outline>
</glyph>
<glyph name="uni018F" format="2">
  <advance width="1739"/>
  <unicode hex="018F"/>
  <anchor x="0" y="1520" name="half"/>
  <anchor x="870" y="0" name="cedilla"/>
  <anchor x="870" y="1520" name="above"/>
  <anchor x="870" y="0" name="below"/>
  <outline>
    <contour>
      <point x="1236.81" y="829" type="line" smooth="yes"/>
      <point x="1236.81" y="986.421"/>
      <point x="1114.66" y="1112.5" type="qcurve" smooth="yes"/>
      <point x="990.156" y="1241"/>
      <point x="760.156" y="1241" type="qcurve" smooth="yes"/>
      <point x="636.156" y="1241"/>
      <point x="389.156" y="1171"/>
      <point x="264.156" y="1100" type="qcurve"/>
      <point x="264.156" y="1409" type="line"/>
      <point x="385.156" y="1464"/>
      <point x="658.156" y="1520"/>
      <point x="807.156" y="1520" type="qcurve" smooth="yes"/>
      <point x="1193.16" y="1520"/>
      <point x="1637.16" y="1106"/>
      <point x="1637.16" y="745" type="qcurve" smooth="yes"/>
      <point x="1637.16" y="383"/>
      <point x="1229.16" y="-29"/>
      <point x="869.156" y="-29" type="qcurve" smooth="yes"/>
      <point x="521.973" y="-29"/>
      <point x="305.656" y="177" type="qcurve" smooth="yes"/>
      <point x="104.04" y="369"/>
      <point x="104.04" y="829" type="qcurve"/>
    </contour>
    <contour>
      <point x="1224.07" y="571" type="qcurve"/>
      <point x="515.245" y="571" type="line"/>
      <point x="538.661" y="457.056"/>
      <point x="596.156" y="380" type="qcurve" smooth="yes"/>
      <point x="693.156" y="250"/>
      <point x="869.156" y="250" type="qcurve" smooth="yes"/>
      <point x="1046.16" y="250"/>
      <point x="1143.16" y="380" type="qcurve" smooth="yes"/>
      <point x="1200.65" y="457.055"/>
    </contour>
  </outline>
</glyph>
<glyph name="uni0190" format="2">
  <advance width="1425"/>
  <unicode hex="0190"/>
  <anchor x="790" y="0" name="cedilla"/>
  <anchor x="790" y="0" name="below"/>
  <anchor x="0" y="1520" name="half"/>
  <anchor x="790" y="1520" name="above"/>
  <outline>
    <contour>
      <point x="803" y="-29" type="curve" smooth="yes"/>
      <point x="956" y="-29"/>
      <point x="1111" y="-4"/>
      <point x="1262" y="45" type="curve"/>
      <point x="1262" y="342" type="line"/>
      <point x="1118" y="270"/>
      <point x="975" y="233"/>
      <point x="838" y="233" type="curve" smooth="yes"/>
      <point x="634" y="233"/>
      <point x="522" y="306"/>
      <point x="522" y="438" type="curve" smooth="yes"/>
      <point x="522" y="574"/>
      <point x="635" y="645"/>
      <point x="852" y="645" type="curve" smooth="yes"/>
      <point x="1006" y="645" type="line"/>
      <point x="1006" y="893" type="line"/>
      <point x="844" y="893" type="line" smooth="yes"/>
      <point x="651" y="893"/>
      <point x="557" y="953"/>
      <point x="557" y="1077" type="curve" smooth="yes"/>
      <point x="557" y="1192"/>
      <point x="653" y="1257"/>
      <point x="821" y="1257" type="curve" smooth="yes"/>
      <point x="945" y="1257"/>
      <point x="1073" y="1229"/>
      <point x="1198" y="1174" type="curve"/>
      <point x="1198" y="1456" type="line"/>
      <point x="1046" y="1499"/>
      <point x="896" y="1520"/>
      <point x="752" y="1520" type="curve" smooth="yes"/>
      <point x="364" y="1520"/>
      <point x="172" y="1393"/>
      <point x="172" y="1137" type="curve" smooth="yes"/>
      <point x="172" y="962"/>
      <point x="265" y="850"/>
      <point x="445" y="805" type="curve"/>
      <point x="244" y="753"/>
      <point x="137" y="623"/>
      <point x="137" y="424" type="curve" smooth="yes"/>
      <point x="137" y="128"/>
      <point x="368" y="-29"/>
    </contour>
  </outline>
</glyph>
<glyph name="uni0191" format="2">
  <advance width="1399"/>
  <unicode hex="0191"/>
  <outline>
    <contour>
      <point x="188" y="1493" type="line"/>
      <point x="1227" y="1493" type="line"/>
      <point x="1227" y="1202" type="line"/>
      <point x="573" y="1202" type="line"/>
      <point x="573" y="924" type="line"/>
      <point x="1188" y="924" type="line"/>
      <point x="1188" y="633" type="line"/>
      <point x="573" y="633" type="line"/>
      <point x="573" y="145" type="line" smooth="yes"/>
      <point x="573" y="-134"/>
      <point x="270" y="-410"/>
      <point x="-37" y="-410" type="qcurve" smooth="yes"/>
      <point x="-115" y="-410" type="line"/>
      <point x="-115" y="-119" type="line"/>
      <point x="-55" y="-119" type="line" smooth="yes"/>
      <point x="65" y="-119"/>
      <point x="188" y="15"/>
      <point x="188" y="145" type="qcurve" smooth="yes"/>
    </contour>
  </outline>
</glyph>
<glyph name="florin" format="2">
  <advance width="891"/>
  <unicode hex="0192"/>
  <anchor x="394" y="1520" name="above"/>
  <outline>
    <contour>
      <point x="-117" y="-426" type="line"/>
      <point x="157" y="-426" type="line" smooth="yes"/>
      <point x="432" y="-426"/>
      <point x="575" y="-319"/>
      <point x="575" y="-68" type="curve" smooth="yes"/>
      <point x="575" y="864" type="line"/>
      <point x="881" y="864" type="line"/>
      <point x="881" y="1120" type="line"/>
      <point x="575" y="1120" type="line"/>
      <point x="575" y="1198" type="line" smooth="yes"/>
      <point x="575" y="1287"/>
      <point x="610" y="1321"/>
      <point x="711" y="1321" type="curve" smooth="yes"/>
      <point x="909" y="1321" type="line"/>
      <point x="909" y="1556" type="line"/>
      <point x="635" y="1556" type="line" smooth="yes"/>
      <point x="360" y="1556"/>
      <point x="217" y="1449"/>
      <point x="217" y="1198" type="curve" smooth="yes"/>
      <point x="217" y="1120" type="line"/>
      <point x="39" y="1120" type="line"/>
      <point x="39" y="864" type="line"/>
      <point x="217" y="864" type="line"/>
      <point x="217" y="-68" type="line" smooth="yes"/>
      <point x="217" y="-157"/>
      <point x="182" y="-191"/>
      <point x="81" y="-191" type="curve" smooth="yes"/>
      <point x="-117" y="-191" type="line"/>
    </contour>
  </outline>
</glyph>
<glyph name="uni0193" format="2">
  <advance width="1681"/>
  <unicode hex="0193"/>
  <anchor x="930" y="1520" name="above"/>
  <outline>
    <contour>
      <point x="911" y="-29" type="curve" smooth="yes"/>
      <point x="1131" y="-29"/>
      <point x="1338" y="18"/>
      <point x="1530" y="111" type="curve"/>
      <point x="1530" y="829" type="line"/>
      <point x="930" y="829" type="line"/>
      <point x="930" y="571" type="line"/>
      <point x="1165" y="571" type="line"/>
      <point x="1165" y="281" type="line"/>
      <point x="1110" y="260"/>
      <point x="1041" y="250"/>
      <point x="961" y="250" type="curve" smooth="yes"/>
      <point x="666" y="250"/>
      <point x="500" y="429"/>
      <point x="500" y="745" type="curve" smooth="yes"/>
      <point x="500" y="1064"/>
      <point x="672" y="1241"/>
      <point x="979" y="1241" type="curve" smooth="yes"/>
      <point x="1144" y="1241"/>
      <point x="1308" y="1195"/>
      <point x="1475" y="1100" type="curve"/>
      <point x="1475" y="1337" type="line" smooth="yes"/>
      <point x="1475" y="1510"/>
      <point x="1558" y="1601"/>
      <point x="1718" y="1601" type="curve" smooth="yes"/>
      <point x="1778" y="1601" type="line"/>
      <point x="1778" y="1892" type="line"/>
      <point x="1700" y="1892" type="line" smooth="yes"/>
      <point x="1495" y="1892"/>
      <point x="1343" y="1846"/>
      <point x="1242" y="1754" type="curve" smooth="yes"/>
      <point x="1175" y="1693"/>
      <point x="1130" y="1612"/>
      <point x="1107" y="1510" type="curve"/>
      <point x="1050" y="1517"/>
      <point x="992" y="1520"/>
      <point x="932" y="1520" type="curve" smooth="yes"/>
      <point x="417" y="1520"/>
      <point x="102" y="1226"/>
      <point x="102" y="745" type="curve" smooth="yes"/>
      <point x="102" y="269"/>
      <point x="414" y="-29"/>
    </contour>
  </outline>
</glyph>
<glyph name="uni0194" format="2">
  <advance width="1624"/>
  <unicode hex="0194"/>
  <outline>
    <contour>
      <point x="824" y="-432" type="curve" smooth="yes"/>
      <point x="1141" y="-432"/>
      <point x="1276" y="-336"/>
      <point x="1276" y="-120" type="curve" smooth="yes"/>
      <point x="1276" y="-29"/>
      <point x="1242" y="79"/>
      <point x="1192" y="178" type="curve" smooth="yes"/>
      <point x="1142" y="277"/>
      <point x="1075" y="393"/>
      <point x="1008" y="500" type="curve"/>
      <point x="1624" y="1496" type="line"/>
      <point x="1232" y="1496" type="line"/>
      <point x="808" y="820" type="line"/>
      <point x="397" y="1493" type="line"/>
      <point x="5" y="1493" type="line"/>
      <point x="616" y="488" type="line"/>
      <point x="503" y="316"/>
      <point x="352" y="83"/>
      <point x="352" y="-128" type="curve" smooth="yes"/>
      <point x="352" y="-347"/>
      <point x="484" y="-432"/>
    </contour>
    <contour>
      <point x="812" y="-200" type="curve" smooth="yes"/>
      <point x="745" y="-200"/>
      <point x="688" y="-163"/>
      <point x="688" y="-100" type="curve" smooth="yes"/>
      <point x="688" y="-75"/>
      <point x="694" y="-46"/>
      <point x="707" y="-15" type="curve" smooth="yes"/>
      <point x="727" y="37"/>
      <point x="778" y="117"/>
      <point x="812" y="176" type="curve"/>
      <point x="833" y="139"/>
      <point x="853" y="106"/>
      <point x="872" y="77" type="curve" smooth="yes"/>
      <point x="908" y="17"/>
      <point x="936" y="-49"/>
      <point x="936" y="-100" type="curve" smooth="yes"/>
      <point x="936" y="-163"/>
      <point x="879" y="-200"/>
    </contour>
  </outline>
</glyph>
<glyph name="uni0195" format="2">
  <advance width="2140"/>
  <unicode hex="0195"/>
  <outline>
    <contour>
      <point x="938" y="462" type="qcurve" smooth="yes"/>
      <point x="938" y="520" type="line" smooth="yes"/>
      <point x="938" y="667"/>
      <point x="925" y="777"/>
      <point x="909" y="803" type="qcurve" smooth="yes"/>
      <point x="888" y="838"/>
      <point x="816" y="877"/>
      <point x="770" y="877" type="qcurve" smooth="yes"/>
      <point x="658" y="877"/>
      <point x="530" y="704"/>
      <point x="530" y="551" type="qcurve" smooth="yes"/>
      <point x="530" y="0" type="line"/>
      <point x="172" y="0" type="line"/>
      <point x="172" y="1556" type="line"/>
      <point x="530" y="1556" type="line"/>
      <point x="530" y="956" type="line"/>
      <point x="611" y="1054"/>
      <point x="793" y="1147"/>
      <point x="903" y="1147" type="qcurve" smooth="yes"/>
      <point x="1097" y="1147"/>
      <point x="1298" y="909"/>
      <point x="1298" y="682" type="qcurve" smooth="yes"/>
      <point x="1298" y="462" type="line" smooth="yes"/>
      <point x="1298" y="314.318"/>
      <point x="1324.5" y="262.5" type="qcurve" smooth="yes"/>
      <point x="1339.59" y="233"/>
      <point x="1395" y="233" type="qcurve" smooth="yes"/>
      <point x="1416" y="233" type="line" smooth="yes"/>
      <point x="1534" y="233"/>
      <point x="1616" y="330" type="qcurve" smooth="yes"/>
      <point x="1691" y="418"/>
      <point x="1691" y="560" type="qcurve" smooth="yes"/>
      <point x="1691" y="668"/>
      <point x="1634" y="782" type="qcurve" smooth="yes"/>
      <point x="1592" y="866"/>
      <point x="1508" y="938" type="qcurve"/>
      <point x="1508" y="1120" type="line" smooth="yes"/>
      <point x="1719" y="1120"/>
      <point x="1837" y="1027" type="qcurve" smooth="yes"/>
      <point x="1919.16" y="962.25"/>
      <point x="1989" y="835" type="qcurve" smooth="yes"/>
      <point x="2048" y="727"/>
      <point x="2048" y="569" type="qcurve" smooth="yes"/>
      <point x="2048" y="315"/>
      <point x="1895" y="158" type="qcurve" smooth="yes"/>
      <point x="1741" y="0"/>
      <point x="1498" y="0" type="qcurve" smooth="yes"/>
      <point x="1361" y="0" type="line" smooth="yes"/>
      <point x="1157.22" y="0"/>
      <point x="1048" y="118" type="qcurve" smooth="yes"/>
      <point x="938" y="238"/>
    </contour>
  </outline>
</glyph>
<glyph name="uni0196" format="2">
  <advance width="892"/>
  <unicode hex="0196"/>
  <anchor x="378" y="1520" name="above"/>
  <outline>
    <contour>
      <point x="798" y="0" type="curve" smooth="yes"/>
      <point x="876" y="0" type="line"/>
      <point x="876" y="291" type="line"/>
      <point x="816" y="291" type="line" smooth="yes"/>
      <point x="656" y="291"/>
      <point x="573" y="382"/>
      <point x="573" y="555" type="curve" smooth="yes"/>
      <point x="573" y="1493" type="line"/>
      <point x="188" y="1493" type="line"/>
      <point x="188" y="555" type="line" smooth="yes"/>
      <point x="188" y="183"/>
      <point x="389" y="0"/>
    </contour>
  </outline>
</glyph>
<glyph name="uni0197" format="2">
  <advance width="797"/>
  <unicode hex="0197"/>
  <anchor x="394" y="0" name="below"/>
  <anchor x="394" y="0" name="cedilla"/>
  <anchor x="0" y="1520" name="half"/>
  <anchor x="519" y="0" name="ogonek"/>
  <anchor x="394" y="1520" name="above"/>
  <outline>
    <contour>
      <point x="201" y="0" type="line"/>
      <point x="586" y="0" type="line"/>
      <point x="586" y="621" type="line"/>
      <point x="787" y="621" type="line"/>
      <point x="787" y="881" type="line"/>
      <point x="586" y="881" type="line"/>
      <point x="586" y="1493" type="line"/>
      <point x="201" y="1493" type="line"/>
      <point x="201" y="881" type="line"/>
      <point x="10" y="881" type="line"/>
      <point x="10" y="621" type="line"/>
      <point x="201" y="621" type="line"/>
    </contour>
  </outline>
</glyph>
<glyph name="uni0198" format="2">
  <advance width="1587"/>
  <unicode hex="0198"/>
  <anchor x="881" y="0" name="below"/>
  <anchor x="670" y="1520" name="above"/>
  <outline>
    <contour>
      <point x="1228" y="1155.5" type="qcurve" smooth="yes"/>
      <point x="856" y="786" type="line"/>
      <point x="1649" y="0" type="line"/>
      <point x="1167" y="0" type="line"/>
      <point x="573" y="588" type="line"/>
      <point x="573" y="0" type="line"/>
      <point x="188" y="0" type="line"/>
      <point x="188" y="1493" type="line"/>
      <point x="573" y="1493" type="line"/>
      <point x="573" y="948" type="line"/>
      <point x="1057" y="1427" type="line" smooth="yes"/>
      <point x="1150.97" y="1520"/>
      <point x="1282" y="1520" type="qcurve" smooth="yes"/>
      <point x="1417.07" y="1520"/>
      <point x="1508" y="1427" type="qcurve" smooth="yes"/>
      <point x="1600" y="1332.86"/>
      <point x="1600" y="1203" type="qcurve" smooth="yes"/>
      <point x="1600" y="987" type="line"/>
      <point x="1360" y="987" type="line"/>
      <point x="1360" y="1100.5" type="line" smooth="yes"/>
      <point x="1360" y="1130.41"/>
      <point x="1343" y="1148.46" type="qcurve" smooth="yes"/>
      <point x="1315.64" y="1177.5"/>
      <point x="1291.32" y="1177.5" type="qcurve" smooth="yes"/>
      <point x="1250.15" y="1177.5"/>
    </contour>
  </outline>
</glyph>
<glyph name="uni0199" format="2">
  <advance width="1362"/>
  <unicode hex="0199"/>
  <anchor x="356" y="1520" name="above"/>
  <outline>
    <contour>
      <point x="172" y="0" type="line"/>
      <point x="530" y="0" type="line"/>
      <point x="530" y="467" type="line"/>
      <point x="967" y="0" type="line"/>
      <point x="1401" y="0" type="line"/>
      <point x="811" y="606" type="line"/>
      <point x="1358" y="1120" type="line"/>
      <point x="942" y="1120" type="line"/>
      <point x="530" y="709" type="line"/>
      <point x="530" y="1094" type="line" smooth="yes"/>
      <point x="530" y="1274"/>
      <point x="577" y="1321"/>
      <point x="710" y="1321" type="curve" smooth="yes"/>
      <point x="876" y="1321" type="line"/>
      <point x="876" y="1556" type="line"/>
      <point x="595" y="1556" type="line" smooth="yes"/>
      <point x="458" y="1556"/>
      <point x="354" y="1517"/>
      <point x="282" y="1438" type="curve" smooth="yes"/>
      <point x="209" y="1357"/>
      <point x="172" y="1243"/>
      <point x="172" y="1094" type="curve" smooth="yes"/>
    </contour>
  </outline>
</glyph>
<glyph name="uni019A" format="2">
  <advance width="738"/>
  <unicode hex="019A"/>
  <anchor x="377" y="1520" name="above"/>
  <outline>
    <contour>
      <point x="193" y="0" type="line"/>
      <point x="551" y="0" type="line"/>
      <point x="551" y="621" type="line"/>
      <point x="728" y="621" type="line"/>
      <point x="728" y="881" type="line"/>
      <point x="551" y="881" type="line"/>
      <point x="551" y="1556" type="line"/>
      <point x="193" y="1556" type="line"/>
      <point x="193" y="881" type="line"/>
      <point x="10" y="881" type="line"/>
      <point x="10" y="621" type="line"/>
      <point x="193" y="621" type="line"/>
    </contour>
  </outline>
</glyph>
<glyph name="uni019B" format="2">
  <advance width="1212"/>
  <unicode hex="019B"/>
  <anchor x="601" y="1520" name="above"/>
  <outline>
    <contour>
      <point x="61" y="0" type="line"/>
      <point x="419" y="0" type="line"/>
      <point x="601" y="514" type="line"/>
      <point x="793" y="0" type="line"/>
      <point x="1151" y="0" type="line"/>
      <point x="655" y="1328" type="line"/>
      <point x="971" y="1425" type="line"/>
      <point x="936" y="1554" type="line"/>
      <point x="608" y="1455" type="line"/>
      <point x="570" y="1556" type="line"/>
      <point x="212" y="1556" type="line"/>
      <point x="287" y="1354" type="line"/>
      <point x="-22" y="1257" type="line"/>
      <point x="15" y="1128" type="line"/>
      <point x="333" y="1229" type="line"/>
      <point x="410" y="1020" type="line"/>
    </contour>
  </outline>
</glyph>
<glyph name="uni019C" format="2">
  <advance width="2134"/>
  <unicode hex="019C"/>
  <outline>
    <contour>
      <point x="932" y="186" type="qcurve"/>
      <point x="864" y="82"/>
      <point x="770" y="28" type="qcurve" smooth="yes"/>
      <point x="677" y="-27"/>
      <point x="565" y="-27" type="qcurve" smooth="yes"/>
      <point x="383" y="-27"/>
      <point x="271" y="92" type="qcurve" smooth="yes"/>
      <point x="170" y="199"/>
      <point x="170" y="438" type="qcurve" smooth="yes"/>
      <point x="170" y="1493" type="line"/>
      <point x="530" y="1493" type="line"/>
      <point x="530" y="536" type="line"/>
      <point x="529" y="523"/>
      <point x="528" y="509" type="qcurve" smooth="yes"/>
      <point x="528" y="495"/>
      <point x="528" y="469" type="qcurve" smooth="yes"/>
      <point x="528" y="350"/>
      <point x="563" y="296" type="qcurve" smooth="yes"/>
      <point x="598" y="243"/>
      <point x="676" y="243" type="qcurve" smooth="yes"/>
      <point x="778" y="243"/>
      <point x="834" y="327" type="qcurve" smooth="yes"/>
      <point x="889" y="411"/>
      <point x="891" y="570" type="qcurve"/>
      <point x="891" y="1493" type="line"/>
      <point x="1251" y="1493" type="line"/>
      <point x="1251" y="536" type="line" smooth="yes"/>
      <point x="1251" y="350"/>
      <point x="1283" y="296" type="qcurve" smooth="yes"/>
      <point x="1315" y="243"/>
      <point x="1397" y="243" type="qcurve" smooth="yes"/>
      <point x="1501" y="243"/>
      <point x="1556" y="328" type="qcurve" smooth="yes"/>
      <point x="1612" y="413"/>
      <point x="1612" y="569" type="qcurve" smooth="yes"/>
      <point x="1612" y="1493" type="line"/>
      <point x="1972" y="1493" type="line"/>
      <point x="1972" y="0" type="line"/>
      <point x="1612" y="0" type="line"/>
      <point x="1612" y="164" type="line"/>
      <point x="1546" y="69"/>
      <point x="1460" y="21" type="qcurve" smooth="yes"/>
      <point x="1375" y="-27"/>
      <point x="1272" y="-27" type="qcurve" smooth="yes"/>
      <point x="1156" y="-27"/>
      <point x="978" y="85"/>
    </contour>
  </outline>
</glyph>
<glyph name="uni019D" format="2">
  <advance width="1714"/>
  <unicode hex="019D"/>
  <anchor x="879" y="1520" name="above"/>
  <outline>
    <contour>
      <point x="-115" y="-410" type="line"/>
      <point x="-57" y="-410" type="line" smooth="yes"/>
      <point x="352" y="-410"/>
      <point x="553" y="-227"/>
      <point x="553" y="145" type="curve" smooth="yes"/>
      <point x="553" y="1024" type="line"/>
      <point x="1096" y="0" type="line"/>
      <point x="1526" y="0" type="line"/>
      <point x="1526" y="1493" type="line"/>
      <point x="1161" y="1493" type="line"/>
      <point x="1161" y="469" type="line"/>
      <point x="618" y="1493" type="line"/>
      <point x="188" y="1493" type="line"/>
      <point x="188" y="145" type="line" smooth="yes"/>
      <point x="188" y="-28"/>
      <point x="105" y="-119"/>
      <point x="-55" y="-119" type="curve" smooth="yes"/>
      <point x="-115" y="-119" type="line"/>
    </contour>
  </outline>
</glyph>
<glyph name="uni019F" format="2">
  <advance width="1741"/>
  <unicode hex="019F"/>
  <anchor x="870" y="0" name="cedilla"/>
  <anchor x="870" y="1520" name="above"/>
  <anchor x="870" y="0" name="below"/>
  <anchor x="0" y="1520" name="half"/>
  <anchor x="870" y="0" name="ogonek"/>
  <outline>
    <contour>
      <point x="870" y="1520" type="qcurve" smooth="yes"/>
      <point x="1230" y="1520"/>
      <point x="1638" y="1108"/>
      <point x="1638" y="745" type="qcurve" smooth="yes"/>
      <point x="1638" y="383"/>
      <point x="1230" y="-29"/>
      <point x="870" y="-29" type="qcurve" smooth="yes"/>
      <point x="511" y="-29"/>
      <point x="306" y="177" type="qcurve" smooth="yes"/>
      <point x="102" y="383"/>
      <point x="102" y="745" type="qcurve" smooth="yes"/>
      <point x="102" y="1108"/>
      <point x="306" y="1314" type="qcurve" smooth="yes"/>
      <point x="511" y="1520"/>
    </contour>
    <contour>
      <point x="871" y="1241" type="qcurve" smooth="yes"/>
      <point x="694" y="1241"/>
      <point x="597" y="1111" type="qcurve" smooth="yes"/>
      <point x="540" y="1034"/>
      <point x="516" y="920" type="qcurve"/>
      <point x="1225" y="920" type="line"/>
      <point x="1201" y="1034"/>
      <point x="1144" y="1111" type="qcurve" smooth="yes"/>
      <point x="1047" y="1241"/>
    </contour>
    <contour>
      <point x="503" y="662" type="line"/>
      <point x="518" y="486"/>
      <point x="597" y="380" type="qcurve" smooth="yes"/>
      <point x="694" y="250"/>
      <point x="871" y="250" type="qcurve" smooth="yes"/>
      <point x="1047" y="250"/>
      <point x="1144" y="380" type="qcurve" smooth="yes"/>
      <point x="1223" y="486"/>
      <point x="1238" y="662" type="qcurve"/>
    </contour>
  </outline>
</glyph>
<glyph name="uni01A2" format="2">
  <advance width="2217"/>
  <unicode hex="01A2"/>
  <anchor x="378" y="165" name="below"/>
  <outline>
    <contour>
      <point x="870" y="-29" type="curve" smooth="yes"/>
      <point x="1110" y="-29"/>
      <point x="1298" y="40"/>
      <point x="1434" y="177" type="curve"/>
      <point x="1434" y="1202" type="line"/>
      <point x="1594" y="1202"/>
      <point x="1677" y="1111"/>
      <point x="1677" y="938" type="curve" smooth="yes"/>
      <point x="1677" y="0" type="line"/>
      <point x="2062" y="0" type="line"/>
      <point x="2062" y="938" type="line" smooth="yes"/>
      <point x="2062" y="1310"/>
      <point x="1861" y="1493"/>
      <point x="1452" y="1493" type="curve" smooth="yes"/>
      <point x="1110" y="1493" type="line"/>
      <point x="1037" y="1511"/>
      <point x="957" y="1520"/>
      <point x="870" y="1520" type="curve" smooth="yes"/>
      <point x="391" y="1520"/>
      <point x="102" y="1229"/>
      <point x="102" y="745" type="curve" smooth="yes"/>
      <point x="102" y="262"/>
      <point x="391" y="-29"/>
    </contour>
    <contour>
      <point x="870" y="250" type="curve" smooth="yes"/>
      <point x="635" y="250"/>
      <point x="500" y="432"/>
      <point x="500" y="745" type="curve" smooth="yes"/>
      <point x="500" y="1060"/>
      <point x="635" y="1241"/>
      <point x="870" y="1241" type="curve" smooth="yes"/>
      <point x="988" y="1241"/>
      <point x="1079" y="1219"/>
      <point x="1144" y="1176" type="curve"/>
      <point x="1144" y="326" type="line"/>
      <point x="1079" y="275"/>
      <point x="988" y="250"/>
    </contour>
  </outline>
</glyph>
<glyph name="uni01A3" format="2">
  <advance width="1868"/>
  <unicode hex="01A3"/>
  <outline>
    <contour>
      <point x="1334" y="-442" type="line"/>
      <point x="1692" y="-442" type="line"/>
      <point x="1692" y="658" type="line" smooth="yes"/>
      <point x="1692" y="958"/>
      <point x="1544" y="1120"/>
      <point x="1271" y="1120" type="curve" smooth="yes"/>
      <point x="924" y="1120" type="line"/>
      <point x="858" y="1138"/>
      <point x="785" y="1147"/>
      <point x="705" y="1147" type="curve" smooth="yes"/>
      <point x="318" y="1147"/>
      <point x="88" y="927"/>
      <point x="88" y="559" type="curve" smooth="yes"/>
      <point x="88" y="191"/>
      <point x="318" y="-29"/>
      <point x="705" y="-29" type="curve" smooth="yes"/>
      <point x="898" y="-29"/>
      <point x="1048" y="23"/>
      <point x="1156" y="127" type="curve"/>
      <point x="1156" y="885" type="line"/>
      <point x="1292" y="885"/>
      <point x="1334" y="838"/>
      <point x="1334" y="658" type="curve" smooth="yes"/>
    </contour>
    <contour>
      <point x="705" y="227" type="curve" smooth="yes"/>
      <point x="546" y="227"/>
      <point x="461" y="344"/>
      <point x="461" y="559" type="curve" smooth="yes"/>
      <point x="461" y="774"/>
      <point x="546" y="891"/>
      <point x="705" y="891" type="curve" smooth="yes"/>
      <point x="783" y="891"/>
      <point x="843" y="874"/>
      <point x="884" y="839" type="curve"/>
      <point x="884" y="272" type="line"/>
      <point x="843" y="242"/>
      <point x="783" y="227"/>
    </contour>
  </outline>
</glyph>
